<mxfile host="Electron" modified="2023-05-09T02:08:37.177Z" agent="Mozilla/5.0 (Windows NT 10.0; Win64; x64) AppleWebKit/537.36 (KHTML, like Gecko) draw.io/21.1.2 Chrome/106.0.5249.199 Electron/21.4.3 Safari/537.36" etag="vh8SOIVcJ4oAKmIkUCeN" version="21.1.2" type="device">
  <diagram name="Page-1" id="j-5L5Xo5aonyZbf3SgEs">
    <mxGraphModel dx="1415" dy="987" grid="1" gridSize="10" guides="1" tooltips="1" connect="1" arrows="1" fold="1" page="1" pageScale="1" pageWidth="850" pageHeight="1100" math="0" shadow="0">
      <root>
        <mxCell id="0" />
        <mxCell id="1" parent="0" />
        <mxCell id="W9lq88Oc5fSQwS-0R-QA-27" style="edgeStyle=orthogonalEdgeStyle;rounded=0;orthogonalLoop=1;jettySize=auto;html=1;exitX=1;exitY=0.5;exitDx=0;exitDy=0;entryX=0;entryY=0.5;entryDx=0;entryDy=0;strokeWidth=5.5;" parent="1" edge="1">
          <mxGeometry relative="1" as="geometry">
            <mxPoint x="430" y="220.00000000000023" as="sourcePoint" />
            <mxPoint x="490" y="220.00000000000023" as="targetPoint" />
          </mxGeometry>
        </mxCell>
        <mxCell id="W9lq88Oc5fSQwS-0R-QA-28" style="edgeStyle=orthogonalEdgeStyle;rounded=0;orthogonalLoop=1;jettySize=auto;html=1;entryX=0;entryY=0.5;entryDx=0;entryDy=0;strokeWidth=5.5;" parent="1" edge="1">
          <mxGeometry relative="1" as="geometry">
            <mxPoint x="890" y="220.00000000000023" as="sourcePoint" />
            <mxPoint x="950" y="220.00000000000023" as="targetPoint" />
          </mxGeometry>
        </mxCell>
        <mxCell id="LcdQc8iV-d25lG8Cdk2--1" style="edgeStyle=orthogonalEdgeStyle;rounded=0;orthogonalLoop=1;jettySize=auto;html=1;exitX=1;exitY=0.5;exitDx=0;exitDy=0;entryX=0;entryY=0.5;entryDx=0;entryDy=0;strokeWidth=5.5;" edge="1" parent="1">
          <mxGeometry relative="1" as="geometry">
            <mxPoint x="1350" y="219.41" as="sourcePoint" />
            <mxPoint x="1410" y="219.41" as="targetPoint" />
          </mxGeometry>
        </mxCell>
        <mxCell id="LcdQc8iV-d25lG8Cdk2--3" value="" style="shape=image;verticalLabelPosition=bottom;labelBackgroundColor=default;verticalAlign=top;aspect=fixed;imageAspect=0;image=data:image/jpeg,/9j/4AAQSkZJRgABAQAAAQABAAD/4gHYSUNDX1BST0ZJTEUAAQEAAAHIAAAAAAQwAABtbnRyUkdCIFhZWiAH4AABAAEAAAAAAABhY3NwAAAAAAAAAAAAAAAAAAAAAAAAAAAAAAAAAAAAAQAA9tYAAQAAAADTLQAAAAAAAAAAAAAAAAAAAAAAAAAAAAAAAAAAAAAAAAAAAAAAAAAAAAAAAAAAAAAAAAAAAAlkZXNjAAAA8AAAACRyWFlaAAABFAAAABRnWFlaAAABKAAAABRiWFlaAAABPAAAABR3dHB0AAABUAAAABRyVFJDAAABZAAAAChnVFJDAAABZAAAAChiVFJDAAABZAAAAChjcHJ0AAABjAAAADxtbHVjAAAAAAAAAAEAAAAMZW5VUwAAAAgAAAAcAHMAUgBHAEJYWVogAAAAAAAAb6IAADj1AAADkFhZWiAAAAAAAABimQAAt4UAABjaWFlaIAAAAAAAACSgAAAPhAAAts9YWVogAAAAAAAA9tYAAQAAAADTLXBhcmEAAAAAAAQAAAACZmYAAPKnAAANWQAAE9AAAApbAAAAAAAAAABtbHVjAAAAAAAAAAEAAAAMZW5VUwAAACAAAAAcAEcAbwBvAGcAbABlACAASQBuAGMALgAgADIAMAAxADb/2wBDAAMCAgMCAgMDAwMEAwMEBQgFBQQEBQoHBwYIDAoMDAsKCwsNDhIQDQ4RDgsLEBYQERMUFRUVDA8XGBYUGBIUFRT/2wBDAQMEBAUEBQkFBQkUDQsNFBQUFBQUFBQUFBQUFBQUFBQUFBQUFBQUFBQUFBQUFBQUFBQUFBQUFBQUFBQUFBQUFBT/wAARCAGQAZADASIAAhEBAxEB/8QAHQAAAgICAwEAAAAAAAAAAAAAAAECBQMEBgcICf/EAF0QAAEDAgQBBggHCggJDAMAAAEAAhEDBAUSITEGBxNBUWFxCBQVIjKBkdEWQnKSobHBCSMzNENEUlRikxdTc4LD0tPhGCU2VYOis8LwJCY1RXR1hIWUo7LjGaTi/8QAGwEBAQEBAQEBAQAAAAAAAAAAAAECAwQFBgf/xAAtEQEBAAIBAwMDBAMAAgMAAAAAAQIRAwQSIQUxURMUQQYiUpEVMmFCU3Hw8f/aAAwDAQACEQMRAD8A9kTCclOAiAvmPoENd04CIhNZoA0EoLQOhNu6HbKwROmyAHOMAAntRErNa3VWyqF9B5pvIykjqVGLm3D0gGjr19yWQnYZuwA+5WHl6/8A1l3sHuQcevz+cuHcAPsQaLaNRx0puHeD7lHUGC2FvPxq9qNh9w546nAFatSs+qfOM+qEEEIQgRMJAyU4lNoErIEJkQkrAnGI16VuU8Nua9MFlrWI/SA0K0yAY7FmbeXDG5W16jR1B5VGcYJfucAy1rOM7QE6+BYhSeM1pUY3tWJt/cgyLiqD8sp1MQuqmrriq7veVqDFXsLi1YH1aZY0mJPWsLd1lqV6lZuV9RzxMwTKxxClBEogJoUWIkQkpO2UUAhMCSgiEWJUaZq1A0NzE9EwrB/Dt6SHc01tM7ffBuqwAE69Gqk8l2pc75xRK3jw9dfos/nVAp0uG7l7jLqNMATPOhVcdpPeUAAIjYvrCrZCXlhExLXgrTkrI7UbD2KMBBGSmDJTgIiEagiUQEIRUX6DRRBkqbhIUYhGayUqXOvy5ms7XbKwZgQcwOdf29MH9LX6lV7oAymQiLXyHQH4TFbYD9lpKTsGs2gnytRPZkKrCSVFzi0aFBKs1tOoWsq06oHSwEH6VENzuA2HSVBo86dZ71JZrUWbMOsDRDnYi1j+lvNun2pOw6xjzcSE/wAmVWOJIjM6OrMUgSNifarErdQhCqBCEICYRMoQBJRYEJkQkhQgCShSpiXa9SIREJLNkB6FF7ABoEGNClASIhAkTCEICZQhCAQhCAmETKEKgAkpkQlMImVAiYSBkpxKDpspQRKREIBkpxKQRmExrunAQdNlQHTZRmUxrugiEABJQRCUwmNd0EXbJASVNwEJRCLCgJP0GibzA0UJLt0CkpgyUEQhu6LDiUQEIQIiEk3bJIETCidd1J2yipQRCEwJKH6DRRQBO6T2gDRJpMpnXdWM1toQhVABJUoCjMIkoJQEjpsgGSnEoENd04CIhBMIERCdMwUhrumNNkGQGSh+yhmIQXE7oEk7ZNESgigCSpQEjpsiwEQkBJTGu6cQpSiAkRCaIlIQmCTqpFoHQkNNk5lUqJEJASU3bIbuiHASygpkwoyUDLQNkkxrunAQRSiVIiEkCiERKaECgIiE0IE7ZRUnbKKNQnCQk0CVKJREIlLKCjKB0JoRCIhICSpRKR02RqE8QFjJhTcZCiBO6KTfOOqZaB0JwG7KJzOGizQRCCJ3QGuG+yYElWCDgGjRIGSsj2gjcDvWN3mCQWu7AYUZrcQBJQm3daQ4CREJoiVKIzCJKlARASAZrMydFv2WEm8pSbm2Z8pxlaE5ZjSdEMjaBHcFRbP4fLBLbu1eerOVEYG53pXVpTHWakKscBGw9iidNtO5ajNWF1hYtKYf4zQryYy0qmYjtVcXHOR0KTXGd0ZRM9KlWIyUwZKcBEQs1QTCQ13Q7ZDd0gcQgmEJO2UoATI6Qt+ha2NRs1MQ5l3VzZf9AWg3dItDTIEHrVgtHWGHgeZinOHqFs4fao+I2n68f3B96rmuM+9SzHs9io2Lu2oUaYdSuTWdMZebLdOvdakwpOMj+5RAkoCZQpQEQEEZhElMiEgJKAmUKUBEBAUwC7USO+Fv0fJQH33xvN+zlhV5aDuAe9ItAGwWozVqTgo/XP8AVSBwUn88/wBVVLgI2CTQJ2ClG/f+T+Zb4pz/ADmbXnYiIPV6loKUDqSfoNFFhISBkqQElFRJhKSpPEBQQBcQgOJ3TAndBaBsgbRJ9HN2Erco3Nm3R9gHHr5x3vWg8SPcU2EnSdEFk69w5gl2G5h/KP8AeonFMNA83C9f5R/vWg4CP71B3mjRBlua7KomnRFIT1k/WsLXlpnK1/Y4wogSZ+1NwEbIN+2xahQP/RtGo+NS6o6PrWc47SP/AFVat7XEn7VUl0iIEdyiRPZ3aINxNu6QElSiFKBCEJAIQhUESgabIQgcylEoQqCIQhCgEIQgIlEQhCAREoQgIhEShCAiEIQgIlEQhCAQhBMICJTaBKiDJUm7oB+g0UJKm/ZQUoYMlOJSbumpsJwEKMQpO2SWoBIid0EwlJQBaBslMImUIA67pQE0ICIREoQgWUFKA3ZSSdsgi4mFE67pu2SQKIREpoRYUBIiEyYUZlSq3G7poiEKshCEIBCEIBCEIBCEIBCEIBCEIBCEIBCEwJKBIUoCDpsJUoimBJRmjcZe0oDm9DmnuMfWkA/QaKIMlTDm/GAcOrOFHLJkDKPlBKBJ2ynGXeHfzgoFr5kgBvaZUA3dSmEmtM7A9xhSjLqWgd7p+pBFxkKKk9zY+KO6Skwc4YaQT2goFMIkqfNOG+X6UZOxv0oITKAJKnzZO2X6UGm9msNPtQRcBCgRCyecd6c/JlBYXaZHj1KwYwJKcBSFIjeR3hBbA3B9qUQIhRJhZQM28INIkeaA49WvuUGIGSgmFkbQe4/gyfkST9SbrWrGlGpP7QIH1IMBcQhpLjqszbK4cY5h5+SCT9Sk2wrg/i9Yd7CFm0YHiAoLc8nXNTRlvVJ39En7EjhF6PzWr8wp36GohbbMIvSdbWr8wqTsIuwPOt6rf9GU7ttRou2SAkrdfhN81smyqlvQQ0hRbhl3P4nX9isSrTm8HPo3N049RYPcgswluvO3Tv5oVW+o4DYD+csNa8Nuwuc4Do1cqi7p+Rp8993HY0BTPkL4rrxx6jlVDb4jTq0pc9hM7kqTrukR6dP1Qgu/8S9V5/qoPkf4rbtx6paqNtxSeYFSn7UOfTMffGRPQUF4BhJP4K79oQRhI/JXftC4ziGJ21lvVYJ09JFrilvXoF3ONcflIsclzYQ3V1K6jte0KTH4O4w2hcvPVzgP2Lgd7jjmVC2nWDYPQVqux6sR+MD2rNtV2O9+E0xJtLn94AoeMYR+p1x8qsPcuum8QVWGefHtUvhFVeQPGQNekpujsM3OEjazee+4SN1hnxbEuPV4yuNYfiDXNzOrNcY6St3x2m7eoz2hWUXAvcNYZdhuYdXjJT8o4X/mr/8AYc76iqbxul/GM+cjxul/GM+cqlXBvsNfo3DMp6+df71B93ZAebh4n+Ud71UuuaZBPPMbGp85Knd0njMK7HN2jMiLTxy1/UWj5VR3vU6V/bscS2wpOMbGq73qq8bpfxjPao1Lujl1q02jrlZrUXbsUox/0fQb31HH7VB2KUI/ELc98rjZx2xY8t5+nmH7SjU4ksKIBfXpQTG4Vg5M3FqDTPiFqO9pKm7Habm5fErQjeAwhcWHE2HtGYV6YHY5QrcWYeymSbin63KpXKvLVJuosbae5N3EUtAFta0+3KFwe34xsa7o8ZpHXrCji/E9hTpAeMMifi6lCOdfCRgEcxavd1EBRqcRgt/FrRmu4AXUFbi/D21TNwY+SVJvFNjGYXBjtaVmq7co8SupuJZRtXGOloWb4UVX6GhaN7Q1vuXT/wAKrL9YPqaVlteKrLnfxgnTpaVErtWpj1ydRToOHU1jfcoeXLh29OnTHXzbT9i4lbcQ4fzGcXbGujY6Kq/hBsPHuYddsDR07rUR2I3G6wOjqf7pnuUvL1w3Z9P9yz3LijOJsMeAW3bduoqTuI8Pjzbprj1QVRyd/EN3Hm1KYPZRZ7lj+EN6fSqsj+SZ7lxo8SYe3V1yxo64Kw3PFWGMoud440RrsUWOV/CC8HoVg09babR9ikziXEqZlt0Qfkt9y65tOUfC6lyaRu6YI+M4GFYXfH+D2zM3jVF+mwJCLpzd/E+J1BDrokfIb7lA8Q4gfzk/NHuXXX8K+Dc3+Gp5p/SUHcq+DAa3FNo6w5DTsccRYkzVt29p6wAEP4ixKqIfeVSN911qeVvBGiTdMd6wsI5Y8DFQg3TAO8Iadm+W70Ak3VWPlLSqcXXNB5Dr2qztDlwN3Kzgb6Zm9Y0dEELj99yk4c6oXU6tOqJ6XKDtr4ZVamjsSrRv6SPhWT/1lW+eV01U5RLKqIin16PAWJ3HtnEjIP8AStTUV3Q/i1zBLcRrE7emVOlxJd1/wd/Wd2Fy6Mp8p1k2tlc1rQPjc41X+F8rOFB4a+o1ojoe1NQdrOxa9qaOu6zh1F5S8o3Q/OKvziuvq/K9gFIgc+1naXgqNPlgwCo6PHKY0/SCrNcLHGfKbWOVnAOPk/tWbx/uLTxrFOVi9s2NpcC41OcEh1uRpB/ZC9ofC2x/zmT3sKx/CfDwZGIunsY7+9bkZltnl4cpnlkeMlPgXFtNYNA+5Zadry1VTA4ExUnf8HH1he3jxZYM18oPP8x/uSPGGH/r7x/Nf/crpXiinhnLc50M4ExRpjchg+srL5H5c3GPgRiDe1zqXvXtH4Y4e3UYg71hxSPGVg7Q3z3djW+9XtxvuPEeKcA8uWLU2/8ANO9pEOzenRE6HTVyy4fwLy72DcrOCLyqIiTXof117TPFeGzPjVee4JO4vw4DW6uCOoBO3H5Tbxi/gblzqun4AXObrdc0R/SIZye8ulUweBKlPpl93RA+movZw4yw1p0uLj1iU/hrh36xcDuEKan4TdeNqPJhy413FruDA0ATPj1D+0Wb+B3ltudDwwy1LfOBN9bnOf0fwnb9C9hHjOwfoK9y7smFF3F1gQJfcHXpcU1DdeR7fkq5e2iGcM0KRGmV1/bwR1/hFnbyWcv8/wCTtp/6+3/tF6wPGFid31z3kpfDKwZqTXPrKzo28qU+Srl/eYPD1mO+/ofZUWalyQ8vlZ2V2E4baiJz1b6kQezzSSvUjuNMNeIc2uR2kqB4wwsfErIPMjeRPl1rODKtLCGMO5bdg/YpWvITy4Ug9rH4Cxod8a8M/UV6Zbxnh7XAsp1sw6iQh3Gtk0E+L1nSZMOgqyDzczkM5cp1rcPeu9d9lNQueQDlwvafNuvOHqAmczbxxJ7NaS9Iu41snD8TrnveCoHjKyO9jW+cFdQ28tu8FXlnfVNR+L4FTkel428/0STvBN5XblzG3HEGBsph0yy4fP8Asl6n+GtpEeJ1o+UEvhrbfFsqpP7VSE1DbzBV8EjlSNQNbxNgzKQGxrPOv7tI+B/ynVgWv4qwYN7KlQ/7gXqD4a0ANbCR+1VH2yl8OKDdW2LWnrbWA+xNJq15htvA05R6T5bxbg9PTcGo7/dW1/gf8pQdmPG2EtMRIY/+qvSbuOaLhBsyR21x7lB3G1ADzbJoPbVB+xNL5nh5sHgacoNd/wB945wxvTLWP9y2KfgccfMEHlAw9rf5Bzl6KHHLGnS0YO5/9yHcdgjS1B7nymobrzy3wOeOXGDyj4fT7fE3H6yFL/Ax42q6O5TrJg3lmHucf/mvQfw6H6mEjx1A0tGDvMJqDz4PAn4wM5uVK2IPQcLef6ULUreArxDnFSpymW4M7swt7T/tl6Lfxy94htnSceouKi3je4YZFjRB7HFNRO210RS8C3iJtMBvKnTa4dPk139sstLwLuIA489yqFzY0FLDTM/vV3meNrupoLSk09ec+9HwzvGam3ojvcSp3SeDsydJt8C7EyfvnKjc5ezDo/pUP8Ce6rNLanKfdlp6BYAf0q7r+HF100Lc94cUxxzdjahbjuDgrMsfg7cvl0SPASpNzOdykXxPRFmN/wB4VsN8Bm0q2gFblGxB1Sd/EwdO7Mu7Xcd3ka0rcd7S761jqcc3T92W3qpwr3Y/C+Y6NHgEYQ0y/lCxMj9mzaPrcs9LwDeHSYfx9jDtPi29MH7V3QOOLtvoNtwfkFRPG16DMUJ+QVLlibdQ0vAO4XpuJqccY49sRDadIfW1FTwDeD6jXf8AO/H6jgJA+8iD6mrt34bX7tAaDf5hQONMSb6L6M9jYSZY/Cat9nU9n4C/B7KGWrxXxBmndpog/wDwKmfAT4IJn4V8TT2VaP8AZLtUcZ4kX5s1KY6glU40xSPNdSB7h7le7H4amOXy6r/wEuBj+E4p4meOrnaP9kpU/AS5Pmu8/iHiOoOp1emPqprs/wCGuLfp0z3Nb7kHjXFI854A/k2n7Fnux+DsydaHwGOTprHf44x55jQG4Zv6qalh3gRcndsC+riOPVH7ebXaD/s12M7jPE3DzK+Q9Yps9yg7i/F373hP+jZ7lZlj8LqxwSr4FHJpWMuueIXntu2t+pgUW+BDyZk+a/H3dnj/AP8AyueDi3Fh+d/+2z3IPF+Lgfjf/ts9yXLH4Glr1n2oInck+tAdmMDL9KlB/Z+lQRAhMEjbRMNJPxfpTLY6G/Ss2iOYnpKCZ6Uw0k/F+lNzNPSDe1QQiUAQmKZPovDj1EJlj26kZuxqsClEoDXO0DC3tcEGm+Og/JCBJgTvPtQ1jp86QO0KbWa7j6fcpsQLAOv2pAR1+1ZebnYZuwA+5BoVHaNY8H5JP2IMcpbrNTs6znatf+7KmbCt0Uqjj1CmUGtHf7Uso7+8yth1hdEebb1p/kypMsK9TzeYrB2882VqDWAA2A9ic9g9i2jhVyPyVb92UvJV2fRoVnHq5sqjWnsHsQddwPYtnyTffqtY9zYWY4LeBgPidYHtbP1LnbdivgDYAdwREreOD3n6pWPc2PrQMEv3mG2dYntASWjRgIHm7EjuKsPIV+zV9nUaOtyT8Hu40t3T3rco0S9w+M72lLMXbuJ7yt5mBX9Uw23cTvtKyDhzEgdbR57hH2qWisOiW++verR3D1+B51pUaOvT3qB4fvei3ePlR71ZRXACdh7FKB1Bb7cAv5/AH2j3pnAL8fkD7R71LRXEAdCiRPX6jCtGcO4jUMC3Ljv6TR9ql8GMQHpUAwdbqrB9ZWfdLaqMg63fOKRbHS75xVu7hy8aJLaXrrsP1FDeHLuoY+8N7XVgmllqoHmnQn2lSBJ3J9qtjwxdAedVtWjr58BRPDtdgkV7V3YK4KCrkt2JRzjj0lWTsBuI1q2/qqSo+Q6rdX17do6y5akgriS4ak+1Qc0Ea695VszBM5g3lo3tNSFP4PtP5/Z/vv7lNCkLQNgEDfYexXFTAWsE+O2Z/wBN/coswNrjHjtoP9N/cou6qTptp3JSetXPweB2vrQ91SU/g60elf2rB1ySmjdUpJKFbMwKjzhDsTtiI+KCpuwS0YJdiVGOxpRFKTCjMq68j2TtBitBva5pQMDs+nF7f+a0rNGwzGHtMi3tvYFI43VH5C2+aFUtAnYIcBGwXUWvlysPyFt80JOxyuRpRtvmhVUDqCBpsB7EFmcbuBtRtvmhAx+4ZqadAfJptP2KuBncD2J7dAQWDuI6+gFOm4nT8EwfYtDE+Nn4RSNSvUo0o3JYwfYoVPR7dwvKvhccX17KrZYdY1qjK1WajmNqBubQgST0QSu3DwZ9RyY8WE80d4Yl4S2E21Q0vKFhmadQQ2fqWkfCewtuvj9ge5rfcvAeC0OHbq3r3mM8Rvt7tstp4Za2dV9au7rNVwyADXbphdp8NYDySVcJF9dM4qr5crSyuadMVHfGykAL6vU+k3gzmOfLO6e6b15r1VT8J/DHOhuI2lI9bS0H6llHhNWLpyYxbEjXVzfcvJz7Lgq/8Wr4Lwq0Wzazudbi17XLqjB0Dm3gAzGqxcU8Q8A4BVtKLOTik6vXBIqMxu4YzuiXH2r25fp3qMeK89/1+XK80uWo9Xt8KaxfV5oYrQDhqTIAVjb+Ejht85lPypRcZk5ak6L598T8o+GYjTuLCx4StcMdTGZlTxyrUM7RJOu/Ut3gzBKOOYZSvKgqteHZXihULdY650C36b6DPU87xcPLJZ/xrLOYTdfR/BeU+ljTXOtr0PJMANIKvPLt+QB4y8dOkBeReT/iXhrhzCaD7F1bDsbsmF13Ruazn0bykCC9zC4nK9oExoDBXqLDL+niNhbXFPVlVgeyodM7SARA6NCPavnepekdR6Xn2c81L+TDOck7ouW43fz+NVfal5XvZnxqrPylpN3TJhfF1Z4ro3fLF6fzqr84peVr39aq/PK0pKJKDcOK3h3uqp73lS8sXwEC6qjuctGSmDJQbhxe9dvdVT3vKRxO7cPxmr6nELUJhKSg2XX9y8Q64qkdryoi7rj8tU+cVgkokoMz7uu4a1qnzioc9Ufo6o8jtcVCZRMIJF7h8Y+1LO47me9KZSQTa4z0exDnGOj2KMwiZQDjmEGD6km+aZAHsQhFhucXCDHqCjlB6JTQi6RyhuwATGp1APeEO2SmESmYGwDe4QkTO+vfqiZQiDbYAdyRJHSfagmFGZQPMesozE9KAJKCIQI67696B5uwA9STzA0UQ4k7rNWJESZ1nsKC4s1BPrMqJcQlJduhTdUc4QYPqSzEbadwQRCSsWNtu6lEoiEKMkRCQElSiURCsBEIQhURqD71UcDBa0kfV9q8V+FZQz47it2QWuo29OjT19EEgn6l7UeAWkHpBjvjReV/Cu4dqvxG3rutKtW1xG3DKtWmDFJ7dnGBtp2L9X+m88Mes1n+ZZN+265ZS2+Hj1jGMdVGWWA+h0Fdo8M3dXEuB/J9zdO5q3fz1Fv6HQQPatXgvkXvOM7K6urTGsGoXNu/zLO/uHUK1ftaMpb9IXaeF+D/AI/h3BNOhcYe+wxd1TNWqm3uLhtWmTplNIOaOjqXLqeg6zg57hzePP8A9rN3MfLi/BLHUcIygeY2q+DMz2Kv404Zs8Xq4dXuLh1sKbszYd06jWejVX9zhbeTrCqbMWq8051yabAaNVj3PIMDK5vUD7FLEOGRxELe6p0zdMoeizmntc4kGND0epf0zl6zp/8AC3i+p+7T52s/qbns6z4x5JqPDWE3GN0uKsPxqoXtb4lbmXsmTmPRpEfzlYckpNSyxG1jNSZUbM6h0hUJ4Hx/BbjG7nFcIuLGy8RqmlUc3Kx1TnGZQNNTGbTsK5byWUPJWA1xWohtxUrFzWkkOc0AR5vXr9K/K/pPhufXTOe0j283nj3V/WwO3xGu61r3NKxo824mtVa50ewEk9GukEr2ZyYV6lxwBgT6xzVTaU5cB6XmjXXXWAvK+F8A4pxNh9TF61M2GDtdzVKvVZnq3NdxytpU6YI6TqTsAV684ZwsYPgGG2hblfb27KJAOgygDQbxIPsX1/1p1XBycWHDveUcui9tLVu6lEqLd1JfyG7/AC95EQoqcSlAUUMEnVNwDRogabIOu6CMygCSnATiECgIIhNESgghSgIgIEBJTIhB02SmUCQhCAQTCEwJ3QRBkpploGySBO2STdskpQIQhQKJRATQrAjpsozKlEpEQqERO6iWgbJkwga7rNaiDtkMElTygoDQNlYlGUFRe0AaKTzA0UC4ndRG1JRJSTAkrQJKJKcBEBApKJKcBBEIInzhB2WnjWCYfxHYVbLE7Wjd21QGWVhsT1FboElZ7WzqXlQspNlwE+ll0WpbPYdD3ngicD3Ny99J9/aMJLuboXOYA9madNVv4Z4MPDOG1GFmL48GsaGsa2/dSDYOh8wgrvQcP3j9BTY3tdUAUmcNXxO9If6YL6k9U67tmP1bZPm1NSur7fkiw6zq0qoxzH6zqbszBVxiuQ09Yl26zXvJVhOKPBu7/Hr4j0muxy629VQLsqpgN1bNzvfTjbSoHKsrUy1zmuYACIJBXC9b1OXm53+yST2dcWnIXw6xlenfVr/GaNR0tp3V/WIpt/R0fJ9cqoxDwXeB7u7dc06OJ2lFzs3NUr+plD+sS4kaDoXbgaAQQ0CBGghQNNofnAyu2lphXDr+r47vDlyl/wCWlkvu4fwhyT8P8GvDrKhXr5SHs8dun3GRw+M0PJyntG65nlAMhrQYjQAJB0ekZHanma7QGF4+bm5OfLu5crlf++Uxxxx/1mjmESUo/alMCSue9tCSmDJSdpHaYW5b4eyoMz7qnRHXU2+hBqpEwrNmFU3mGX1q89UkJuwZoHnXtqwdckoKsGSgmFYPwpjGy29oVD1UwZ+laL25H5d+1BCSiSnARAQKSiSmRCigcykhCAQiC7b1rdtqNhU82tcvpOifNbK1BpJzCsza4UzXxytU7MgQ2lhROtav/NapRVuJhIGSrG5pYa2nNKrWLp/KNgKtc17Xk5Yp9BUEolAaCVGStmnTaWyRrCDCWgdCiRCm/wBIjoUHbIIkwlJTdskBJQAMlN2yYbMxvCtbGnhwtP8AlVC5fVn0maBBTxKIhWr62EsOlpcu7H1A0KJusLH5jV/foKt5gaKGc9asrq6wyrSDaFq+lUmS51XMI7lphrQ6RTzt6pKDDJdugiFaUcRwum3LVwvM7r59zftUqmIYVUbFPC8ruvxhzvtQaSbd0k27oJISJhKSgkiJSBkoJhA4hNri0yDCiDJTQN1V5GriVEkv0OoQ7ZOmJdr1IIwGNcQ0uMaecRC4Txpyr4LwTWZTxC9pUHERDzOq5hjD/F8Or1GuyFrSZleFOVPhy84u4lxHE7iu64oU3Hm/OLBl6oA3XLk5Jx+cvZ9TofTuX1DK48U9vfd1I78xDwrOGLeRSvaTyD8VpKoa/hf4KyoRz7cvWAD9ELylh/DNCtXcLzC759MO0dSqPGUdejfOHZI712Dw1ybWmLO8VoULy6dUrZaIp4V5xLR5zZBJ6QZJ6E75/wCMr1X0vsurz4f27oPhgYM/RtXO47DJK0q/hc2bKzaeYHMdnMj2Lr2/5DrrD72xoPwi5a99TPzdzhzw+oyY0ggCJVRX4bwTx+paeRLu4xC3H3wU6HNhhzQJhzj1dA7+ud//ACrj6fwy7z5cdf8AK7swfwrsOqOcLkNtyNBzpyuI6+5cxwbwisBxCswOvqDQeguC814hg1ji1W1ZUwGgKjHCk576jy8AHWRoOpWA5N8KpNJpWzQ4PIkEtIHVoV5ubqseH/aeH3Oi/TXH6pv7Tnl1+PL2PgXGOHcQ0S+1rh8mBBEK95p1MAufmnoXkTk8v3cDcRWThUqeJ1anMvpF5cNdRvtqAvWdnceNUKdTraNF14ufDOftfE9X9G6n0fkmHL522WmDsPYpZiOr2BQbumTC9T8/rUSLi4a/RokoyUSUDJhKSiZSQOZSQhAIQhAw4tMhSNVxGsewKCFQySd0hpsSO4oQoHmPWT36pHXdCEDa0E6hZcxaNNFiBjZDnmN0Dd19Kg7ZGYnpSmUABO6eUDoSmESUEh5pkJl7pnM49hOnsUJKT3EBA5Mz0oc4xuVjDiTunMoImm1xkyT3qQ0EDZCTzA0UojUGihEKRcTukBJUWNpNu6Sbd1YiUSlATQqBoEpuAhKYRMoCIQhCAiU26HRRJhLMQgruKmmpgdyP2T9RXmKlhpvOHb15Gaqyk+oHE6g5J+teqL2gLu0rU3+cCwnJ+lpqPZK88VXWvCGNYjhGLNq07N7H0hUaDAaW+a6YO409S+d1NuOeNvs/bfp/fJ0/VcHHf35Y+HXDmHI1j9SG/RMH6F3byR0KNvhFviT3k1KVzctLsxkF2TL09TV0tbZ8Uv3UbYOe9oynKM2YE6GIELt/k4q4Xg2E39le3FSuDVDnMphrXMdHa/bTqX0/uOL5fD5fSOt4L3Z8Vx/+f/1bco3Kbd4Pyh2FC1wupi1GtZNYKTNHZ851a7oPmjsXT3GF/inDXElbGLWwq2te7sw+vReQSz74DLo0J0C7/pYtwnSY+6q3FepcOpG3YH27nEAnNoR0yF1fyn4fe4zSrUsBsH1Kr7PxZr7ommQ0ODjEjU6D2rU5+N5pwcuXtN3/AJY66p16mJX1K4J++1KgqyP0iRK5jj1tTpYtXptaGhhIgdcNKpMB4ZvcEubM4naV7S3puYX1aommdCcgdvOiscQxaliF7e3oqAsq1Mwa1vogCJOu2y+L6pzYZccmPu/of6O6PqOPnz5eXG446V1S3p1LyzDmz/yql0/tgfavWWHU2soNAEAaBeY+EOHrrjTiC0trQFtuyo2tUuQ05WtaQekbzC9SUGsZbsDBMaZz8aNyuPp0vbe6Ov6558Lnw8eN3Zv+kzpsga7pTKG7r7n4fyWTRwEQE0IpQEQE0iYQBEKKcykgYElMiEm7pu2QRQhCAQhCAQhCAJhIa7odshu6BwEiITSdspQkIQkCJhROu6k7ZRVA0CUyIQ3dN2ylCAkpPAhEwk4yFBGAkdNk0nbINuAnEISJhaDQoyUSUEkJAyU0AkTCazWzKD6hFw9zGRoWiTKDXmUlZcxhv6xW+aEcxhv6xW+aEFbsQekGVpX+B4filLm7uyoXLYI++0w4we31rkNO1wt5M3NcQJGVoVdX5ttUtpkuaOk7qZYzKaym28c8sL3Y3VcGPIpwSahecAoFxgmalQ/7ysaPJpwrb0HUWcP2HNucHEOohxJ65OvSuSoWPp4fD1ffdV/7Mv7rjtPk44WpxlwDDxBkRQbup1uT7hp+Z5wKwdU1Ic63aTPs7FyCYRKv08PhPvOp/wDZf7rjOGcnvDtnSq5cEsWvqE5iKDdZMno7Atz4F4CCSMHshPVQb7ldEyUk+nh8Jes6jL35L/dYLSxt7ClzVtRZb0v0KYyt9gWxAc9zjud0ASVloNZn89rnNjZpAK1qb28+WeWd3ld1jIhJu6sxXw3KGus62b9I1YSNxhjNfFKp/wBOPctxhXpEwt2te4fk+92b2u63VZ+paT3BzpaIb1KUKSiZQBJTIhQRQhCBzCJlJCBgSU9B0T64S1neFvWeJ0LVxPiNO4fEHnSYQaOh6mdpdKD5vS13YDCt347SeI8l21PtCj5ZpfqNse/VBVNa6qYaII13lLUOgqyr4tTqsyi2o0TPpUxr3KvqQ52YdKCDtkphN2ySAkomUIRYEJEwkDJQpu2QCTpzXrMpOGy27XFbi19F7QIjzqbT9YRGrke/QMg/s6oNOo3VwMdo9wVi7iG7jzalMHsos9yQ4kxGnq2uGnrFNnuQVpzNghmfXUCdvYk45nEthrYgA9asK3EOIXTCyrcZ2dRY33LSZVfRfnY4sdO4QQpteW5XUpdvmbPuTfScB+Df7D7luniHEQBF04R1Ae5RPEGIne7f9CDFJTGu6ICcQgUBBEJpO2QJu6kozCYMlAEwhpMpxKIhA5KRcQhESgi4lwgk+owohoHepwEQECAkpkQg6bIGu6BASUyIQdNkDXdBFMCSnATiEBEKLwCNUyYQNd0CGojo7E4y7E+1B02QNd1QB7h0+3VROplSIhICSoBu6btkHTZKZQJCEIGBJTIhKYRMoEpFxIgxHcooQBMdXsSBk9HsTiURCBOaHjUJjQR0IQpWaTtkk3bJJFgAkpkQlMImVW4AJ3TLQNkphEypUpRKC0FNImEiEWgbKDzAUplBE7qiDDJUnbJQG7ImVKsRdskBJTdslMJFbclElJMCSqyJKJlOAiAgQElM6bJxCIlBGSiSnARAQAMlBMJxCIlBGSiSmRCQElATKJhOAiAgBrunEIaBKZEIEkTCaIlBGZRMJwEEQpQplEwgCSmRCQKZRMIAkpkQqFMpITAkoEhSIhRQCEwJKZEIIoTAkpkQgihCEAgmEJO2QKZQhCAQgCSh+g0RqBImEgZKbtkSlJSmUiYTZqdUQiYUS4hZHAQo5QUWIZielKSpPaANFECShTGu6CIQdNkDXdEbKbd1Z+PYYwa4bJ/7QT9SXlLDTthev8q/3oK9MCSt/wAo4f8A5s/9x/vR5QsDthuXt5x3vQaMBIiFv+PWX6i0fKqO96RvbM7WVL96/wB6M1XkkbCUBw+MC0da3xfW1My2ypA/yjveptxSiD+J0vnu96LFdmp/pO9iJa7Z0H9pWRxWiPzKj84+9OnjFJrtLCg/TYuPvRVbAHS1/YDCRIb8UDvdKtn45TaP+j7VnaZcsZx1pHm2dqD2MIQVmbNoA09xj604/SOQdcgqzZj2U62dse8KTuIsoltnatPWWSgqpA9F4ceqExmO+VWXwhqVNBb2o7qcJHHaw2oW3zQtQV0H9n6UEEfo/SrA49XI0o23zQo+XLk/kaB+SxvuUo0ACT8X6UObI1cG9q3nY7XaJNGm0dYpt9yTceuHHzBTaes0WH7FYNFrQ0+lznYNPsTcdPQPzv7lv+X71mrajGnrFFg+xHwjxA/lx+7Z7lGars0fEPzv7k5zbjJ2kz7lYfCLEP48fu2+5McQ4gfziO5jR9isWK4tHQ4FDWknTzuwA+5WJx/EDvcuP80e5ROPX8aXLh3AD7FKrSFN53pv9h9yfi736NpvB+ST9i2/L+ID86f9CHY9iDhBunn2KxmtUWdfop1HHqFMpiyuTvb1v3ZWc41fH85eO7RLy1fD86q/OUqxi8Srt1NvW/dlMWNzVMMtqxO+tMqb8ZviNbqr85Q8sX361VHc4qKfkm+/VavzCk7C71ok2tX5hTGMXxP43W+eUPxW9cIN3W+eVqM1HydefqtX5hSOHXh/Nap7mwjynefrVb94UjiN27e5rHveVViTcKvHmPFKw9QUvI943e3qfzoWLx+5P5xV+eVE3lw4Qa9U97yis4wq86Ld3qEpnCbw721T5n961XXNWNarz3uKQuKpP4R3tWam24zBL6oYZa1Ce6PtUvg9iJ/M6ntHvWg+s8jV7vaoGo8fHd7VCLE8O4jH4m4fKI96ieH8RbqbbL25gftVfzr/ANInvKXOO60VZN4fxGoYFCT2ke9TbwxiZP4tPc5o+1VReT0+xKfX3oLd3CuIuHnURSHW6qwD6SnT4TvgTpRdp012fYVTFxG0exIvJ6Y7tEFt8GbsvI5yiT+jzjUO4auqYlzqQH8qFTwETl1H06oNvKJnpTBjZJCCWc9aRJcNUkIANBOuvepQG6gAepJu6btkWFM9XsRMdXsSQgcz1exIgOGoQhEDRlMjT1qQcZ1M96QElSiEA46bD2KIcRtp3Ju2UUEpL9HahJzGxsETCJlUINA2ATn1dySFA5PWiUkKbDmUkIVgE5hJCoclEykhZoEIQrAIQgmFKCJSIhAMlDtlAphEygCSmRC1AkIQpaBCEKygAndMtA2SmEnEwgIlJwEIBkpu2QQgIIhNJ2yBASUP0GiG7ofspVjG4mEgZKkBO6ZaBsoVEmEhrunEoiERtAyU0jpsgGStBoQhA5hEykmBJQJCkRCigEIQgcwiSkTCQMlBKZSQgmEAgmFGSmNd0ADJTSOmyUlBJCQMlMmEAgmFGSmNd0ADJTREIJhAEwkDJSmU27oGTCjJTdskgJKJlCEBMImUIQEwiZQhAIQhAJEwgmFGZQBcQhpLjqiJS9HZFiZ02UXEwoueY3SDid0UFxCWYnpQ7ZJA8xCC4ndICSh+g0WaomEnEwlJSmUZpyUSVEmFE1AzVxgIRvE5R6TXIbUE/F9pXJRjGAj0a1sT2GVJuL4K8w2pbg9jCUmUnu1XGecH7PtKOcH7PtK5SMSwk7PpPPUKR9yDiWFjoZ+6PuV74ji4eCdQD8lMuHQ109y5MMSwwnQSf2KDifoCbsUw6mJyVj0aWlQ/U1ZucHF5J6HexA1OzvYuTeW8P/irj/0VX+opNxqwJ0o1ye2yrf1E7sb70cYLSdg6e5Lm39TvYuUOxmyAnm7lvybGqf8AcWtdcV2dmzM+1ui0mM3iNX+opeTCflezflQik87h3sTFCp8VjnHqhWrOOMPcSGW15U6Zbh9X+osN1yh4dbNBNnfEzH4hUH+6Fm8uHyvZWjzFf+JKXMVj+RKyHlOw90BtleAk7mzeIVxYcUW162adrfVNJkWjo+pT6uHynZVILesT+BKfi1YfkSuSnGmN1bhuIVD1C1P2whuOFx0wbET/AOHA+ty1OTG+x2VxsW1U70Hn5IT8Vqfq9b2LkoxmqfRwPEnH9llJv1vWEY3eF5AwLE/5xoD+kV7/AIh2Vx/xSqfRt609yPEbh+nM1W/zVyLy1fD/AKjv29uah/aION3vTgl+e59uP6RO/H8nZXHhhlwT+Dq/NCl5MuB+Tq/NCvvLl4NsEvm9r6tCPoqJjG71+nkm5Z2mrRH9IVm8mPyvZXHzhtwPydX5oQMNuDvTq/NC5AcYvBvhtUfLr0gPocgY3dA64fp/2hnvU+pj8pccp7RQDC7noo1XHqhPyXdj82qexcifjNZtMO8UbM7OumtWJ2O3EfitFva69ap9XD+Sdufwojhl1HnUKrR1wnTwi5qOhtN8/tCArl+P3DRPMW3/AK4e4qPwiuOmjZN7X4gAPoYn1cP5Hbn8Kp+B3oGlIJNwO+J/BT3EBb54muC6MuGR+1iJ+ymj4SVh6TcJj/vFx+umn1cP5NzC2eWkMBvSfwB+eFLyBe/xB+eFu0+Iq1QxTZhDnf8AbifqYpOxy8j8HhDf/Fu/qrN6jjnjui/TqvOA3o/IH54SGBXv8SR3uB+pb5x25aPP8kNHX427+osTsfumHNz2EsG0i4c76mp9fjv/AJM3jrWGA3hP4IJnAbwfkgthvEtzP43hf72p/VSqcTXAHnXuGMHW1z3fRAT7jjnvlE7JPetccP3r9ObATHDd4T6IWQcTVH6HEcPA+S/3odxFUjzcTw4H+TqO+op9zxfyh24/KPwavOpo+UUncNXsbUvnIfxLVYBmxbDmzoCbWq7Xuzhcdx/lOoYG17K3EeFsqDXWwqn+kT7nivjaySey/dw7d02lzm03AdTlRYhdMsHQ+pSYZjVy634x8JLDbDDajRxRYGpl2p4fVaZjrzrydxXy/wBziuI1XHiQOpB0tNKzeDPtSZ78yq95HFKDwyLmg3XUufutzDKVTE3uNOrbuYHR5rl83qvLfcbDiOo6NQHWjjquf8mfhRv4cuGNuuIm807Q58Oc7pHuW5npe6R7/PC9wIOakAR0OS+C1eppzlMetdR8n3hMcPcV1RRpcWUHXGWTTGGuEDTrPauy6HGVO4pud8IGuZOhbYBq459ThhdZHb3eYsTwhcEaVqXtS+CFyN61L2rVZxbTJgYu4nrbZgrXvuLzb0TUfi1dzB+jZM09oWPvOL5Tt14bV7w1XtqBe65o0wOk6rr3ijiK1sLetSdjFs2o0aDKuPcofL1hWH4dWo1uJL+m6YDbezoh0wd5adF4w415WKF/jNeqzFsTuGEmM7KbfqauuHNjn5iXKSPo7Q4sxQsl144drWtH1BTdxViLwQbyo7vVA0kCOhKi4uquBMgBfjfuOb+d/tjk8LR/E+LB/wCO1A3sgfYsruIMTfSJ8oVWECZlUziXOILoA1VffXT6zW0g4tAdJPWFn7rlnjurHFLlV6eLcRZT8++qO86JlbNtxZcvPn3lVojcOXFjQbVYA6rFKZ061tUKFtbjMapI2XO9Xy7/ANr/AG+1hwyz2cyt8fq19G3tZx3jOVUY1xNfW7nNF9WYPi+ed1oW99SpVG5H94joXS/Lhyw/Ax9B/NmpTc6CO3XX6Csfdc2d7ZlXfDhxl3Y7nwrijFXPipiFeqTpHOEaepdA+FBy04phFq6xw3Fbu0qMeC7m7lwM5XdMquwLwibC8svGMwpVBTJmeleWuWnjU8ZcS1nMujD3SXaL29Nx9Rlyfvyunozx45j4xjco+Ebxva0+Z+EGIFpObz7lxCx1uXbi3F/vdTiS+t48/My4dJ6I+ldRVroMdlJnIcsnp7U+eFRo5vR06kdS/UfQk8Pi8t+HadXlh4pYMr8fxGq0mATcu39q9DeDl4Rlxb0vEsXxW5qmIHO1SekLxra1AyD8Ydat8PvTaV2Vabix4MyD0rz83FdeHHDP8V9X8C49tceYOYuH1DvBqu29qt8Qq1jSaWVHtbPRUJ+1eEOTzlxocL4WKlzWNSsGxHX/AMQu5eSjwjxx1em1e0MA2LiNRIEfSvzvPx82HmWvdjZlNad8295dU6/4d5ERBMrYu77XK55nfdVbcQY94MhsnQgrHczVriKmkL5s5OT80uHbNo4hd3DmgU6rgMyw2tWpcVBTrVnBp+MejtWxWpc3QzZpK0HCaWYemTAK1MrfeueGeNredRp0rg06d0bhmWc8R6tFnsrimyuWlvRuTKqLSic55zV0d31K2pUaeUZvNHWFXXLVvhdW1xSaZAAJEaLNcg16Hm9cqqZVt2CGuLnLboYk1stJ82NkJFLUbcUboljyOg6Tot+tc0W2jTWGZ2beewqFzWD3lzd1W4ow1bcDzpDp80dhXLLLKXxXbGTSGJXYbSaaMNJd1TpBUbG6Lqg52qWAiJAhaD7epRtDUq12VGzAZ8YHrWC1v6b2uDiMzRIVxyys92rhubjklW1pl8su82k5TqnbVWUqpBAOm6obMC6rZ3v5s7QTCt6TKTa2Vx8zLIPat91+XluFXdtdUWGYAJEaLZqZbinp3qiq17eg0GS/XbVZrTG2h4a1ojqKzc9e70YcW4Ls1GOAB0B6lmp1gaYD4PqWHEcRpAjzAzXeZWmzEaHnZnhumhPWpMrb4cebj1PCydVptB0bJ0GixsNQA5nCRroAJHUtG3uGXOoqh5Bkawt1h55/n1GiBIIK9U8vh8m4y1G8/QDweb1iJWHJzWpcSNt0VajqjoJzAdI0Wnc3LGUannFpA6NZ9q3Na04Y56nllvsTs8PtX16tYNyCQC7pXh3wheUO6xviKrSZXItWv0LT06rl3Lvyu4nw7f1cOYKrQ/zgXMEEQexeWcTx+ril3UrVgfOM6npX0+k6e2dzvjyeGXE8RuK7YdVLm7arQo3DqTS0EBvcFiubwOpgA9K1KlwS3zTr3L9Djj2zTf1G1VvHFx84ju0WqL6pzs84495WAuLplarn5HkldJGLlu7cs4d4hfgd4y5bcPpBpzSDMleweSLlitLzDKVa9uBzYbBDiNSvCZvCGxIjuVphvEN3h7MtG4dTZ1CIXj5+mx5Zv8uvHnrw+o/CvKZg+NVTRoVabiDsIXLMYure5w6rRc/RzJBAGi+e3IPxlcUeI6ANcvaWkvaT6WoXe3K/ywXXDWEsdZVTztSmdCB5v0L83y9Nlx59u3v8ZY7dGeEPhz8G4srGhcVTTeD06LpZlYwXOMknc6q/4q49vOL6vO3jw+pM5p1XFKtwG6AwJX6Pp8OzjkfN5vd9XLfjrCqog3lPNE6OCyHjbB7Yl5uwZ03C+XbOUzHJ83EqzD1iPcm/lJx6qIOK19Nej3L4/wDi8p4uTWXJMq+nVfjXC7geZcg6zoQtS64qw99MNN4KQJjNAK+atvyo8SWjs1PFKzjEQQ3b2LPV5ZOIjSLamI1Wg6SI9yzfSbbvb08OeOPnT6G41yoYFwvZNc69ZduzgEHToKo7fwg8Hv3ljHU6WmjSV86MV4+xW+AFS+r1Gh2aHOnXX3rTt+LLp1YOFeo2o0TIK1PSdTzX051ck8R9Fcf8ITC8HtHvqOZmHokEbrzny68rlHjvC6brdrA1roIB1mCugL7ivEMSphla5NUAyA4D7N91T3JurW4aLinWtzUEhtRrm5h1gFenh9Px48vLnydXuaXFljt5ZUXBriMxynXYKoxLEQbg5uceHbuaFqX1WBla4gHtV9wrf17e1r0alCmaFWkWZnNDiJI117l9uYY4+I8N58vzVG6s64e0DYDRoW7bioyCAW9qh4uMKq1W0vvlMy7nD19SytxQ1aIGXzgepaYy5PC5wm0OJX1tatcGPrVAw1HbNB6St/inDXcM45cYYLineNt4m5pei4kbKjw+/wDFq7K4JpvYZad9epWHFVridq6nf39qLWhdQaMPac4jeBquWXu+d328nhpeVKgfrUJHUuackvGjOG+K6dzWqltANMtBgE5mrrR9em/v71HnxT1aYJ0Wbw48mPl9GZ3Hy9h3/hX1cPxECi2beQ1ux+tc64E8KCy4guBTu3tpn9IwPUvAPjjpnOSe0ys9hilazrZ6FZzHbyCvn5+m4WOmXVXtfVfD+UzBMToubSumPf8Aoh2y3rfibDyyKty2nHnA7r5fWHHWMWjs9O9q5uwgK6teVziSjVLjiFb0Y3HuXz8vSbvxXmnUR9KqXFWF8+5zr4Phu0Qg8oWF0nFgrhsDc6r5sXXK7xFWZAv6xMzuPctD+FriPOQ/EazW9Yj3J/iM/wAZPTh1EsfSqtyi4aHT4y13YGwqK/5a8Hw66DX1gW7Q4gL53v5U8eftilcHtg/YqfEOLMQvjnq3tV7ydSXLU9Kyni1v7iPptacruE4jUYaF1SDOluYHRWd/yg4LzWY3rAwj0WO1lfLXDuM8Uw1zjQv6rJEHY/WtxvKLjLCScSq66dHuWMvSLbvbePVSXT6K3PKRgzXvZTuc89Giy2GL2lemLhlx0yBI0XzgbxzjBql4xGrJG+nuVrZcrnE9gzLSxaoWRGVzWx9Sz/iMvl6p1eG9WPo3bcQ2VzeN8Zu8oaJmQPqW1e8o+GYdc81TqNqtDfTJEL5r3nK5xHcU4qYk8a7sIn6lXHlk4jsW5WX76jSYy1A0+uYVnpOf4db1PD8PpBinKxaCgTTq03EGS0AGB1quuuWPDWUG83Vb4wBmyuBAK+eA5UscuAXsvHU6rtHFh1IWpfcf45cUstTEKoB0kESr/iMr7uk6zhxx9nvbibwhcMw+xz0bqk+5iC0/FPrXV/EPhYVZp0qL2EdOQNJn2LyFWx27vHDnrl9SBpmK1zdQ7MHedO69fD6Thj/s+dz9ZMp+2PX2G+FhWt2FtSc0dQH2K2wrws3G/piq4ik4wdB7l4vp3Zq1Zc8kwtyjfmkdHr1Z9BxSeI+Jcrn5r6h4Vy0YHfcOMvfH2UXRJGhJ02XSfKB4VFK1v229m7702qMz2gGRB7F49pcbYnb2xoU717aR+LAP2Ksq4u+oS5zy4u3JXLj9Pw33RzsjuPle5V/h/c0qpeHFkAHKBpB6gupa9bK4mfNJWh46CIB7VGrdZmgF3Svq4cc4p2xPZtPuYG6gbuPjLWpVGVKgDjopXwZSjmm5z1A7LqguL99NrMr4JdGylUD6hBnQ6qluq7pGYwA6QFs08UeGiX6dwVSW7brqT9FPnQ1sFazsQmmIdr3LWq3Wk5tZU09mPs5XwtxTdcO4vbXdtUy807MRAMj1rtvijlksOL8INC4t2te1npHpP/BXnmhcGo8jPGkrJVqZWyak9C45cGGd3W/qXHxtZVb4CrUcwhomBA6FiN2SHH03Ro3aSqznw0aFDbmHA+lGpXTHCYzTz55d1XpsqtXQNy9KTbCtSMkE9C+hI+5rsdp8NSPk4X/9qD9zWawSeN3fzsK0+iquX1sX1ftcL7PntUt65b5rSCtWrZVmiSwnXpX0S/8AxuU26njZp/8ALC366q0rz7nJSDCfhs0hpBymwgnsB5wp9zjPDpj02pqPno63qx6MepYxZODpG5X0mtPud3CN7zzauM4lIAy825sA9J9E6etce4o+5v4dUuA7BeK61jTayDSubYXGZ36Qc1zY7iOlT7rH4dJ09jwLRs61KK1ItZUpkODndGvR2r1bgPBP8MXAFKrxVw5Wp4nZUAy1xMl1Jr26ed5pAJA6CPqXE+UzwXL7k4veauMS8fo025ucFvzQnr9I+xcbwzinGuGrAWrMevqtmGlotqtUvptHYDMf3rjy5fWk7PD53W9Pn27xriHKLyVjhzFrijY3/PW9KGtqVC0ioOk6dIOnrWjgnJ/ipwDEMaZXpvw+1cGOIOre2PUnimL1a90/nahezNmaD0LlfJ9j4weyxC2rVqJt7xhzUq0Zdxr3+9dZuTVfEy5s8ZpxGibGrZ1GvY6rXfBZVMgAR1D1KoZbttHOa5ud0zm7Fd4xQZQxCq63eKlB+udvoz1BV7hlbp1rrj7OU5c8pu07SoHvMsgNEo4xvK+K07QGoXNoMys0Gg6kmvIkDSRB0UKxOUDo2Pctaaxzsy3toYXw1i2I29xXt7Ln2WozVnCoGw3r1PaNBqr685M8TteGm49cXFC2tnkNp2tQkVHaEyBG2h1nqVnwpxJTwGpcCk1rvGWxUa/zgdRrBnq6FucQVa3E91Sq3VSW025acAeaOqOpZnivpcfJea9kdePw2oKdN4c05hMNOoUG2FYFcwqYBTpgObX5vXUuA1HUnhWE0r7FLijUqmnbsAh4jeR1rrcpLp9Dswl7ZXG6dpWa0HUp+LVnaBpXpTkw8HLDuUO5qUKfE1O0cACAaAeegR6Y613JR+50ue9rBxzRpl4kB2GS/wD20R6lyy5pLp0+1wvl4H8UuG7NcoGyrkyWEr6JO+5t0gGn4bPOkO/xVpP75Yx9zaY4/wCXEf8AloP0c8uV546Y9NhJp87qllXy+gVr81VzZcpndfRir9zbpMYS7jguH/df/wBqr7T7nVhVliLKl/xfVuLYy006VlzRJ6POL3fV6+ufc4zw19rhXz68WdVAaAWO3lZXYS7mwZzGV9HbH7nVwXUpt8YxbFK7qROd1Ouxmfq+KfojvXHL37m5Q8dqvs+Mn29o4zTp1rA1C0dWYPE+xWdVis6WT2eBqdjVZvoFJ1lUeI3XvIfc3iT/AJcNd2DDD/arbpfc12uH+W+U9Zwsn+mWvucL7r9vZ7Pn6cKuplug7gsb8FuTuJ7wF9DW/c23DRvHTD2Owoj+mWZ33NSWA/Dsgz/moAe3nlZ1M/C/Ss93znHD9Zri4AgnqQ/BrlgmHOX0Xp/c1mtPn8dAj/u0f2qlU+5r0zTdk45GYDT/ABaP7VPuIfTfN+4sLmjTLg0grHbUq1dkEEOHSvf3F3gA2nDOHvr3XHNNzGNzOD7DJ9IqFebce5NMD4Zxh9uzF/KVEyA5tPJr84rvh1GOvLll08yrp6jbFp286FN9B5Gkhc9q8I2Ln1nUqrzGw7FpDhimGk84+Z6gt98z8xzvBJ4cM8Uqu0BKBYVjvK5c7BWUszm1R5gLiHjQj1LsLko5IMO5RMEN5cY43D35i0NbRLyeyJCzb2zbneDuy1I6RbYVmmRIQ+zuI3K7+4p8H25wAk211UvqIOr+YIdHcDsuDXHCdCk4sfUcxzTqCIPsWMeSZTa5dLjjdZOtjbVmQXAkLPZXgw+8pVq1I1KJOSoP2f8AgLmj+HKDc5NfzWiTmjQLguM4z4pe5LVwqU2n08oOq13S+I83JxYY+Np8WYfSpXTa9o8ut6vnNafi9ioxnAhx0W7e4xXxJrTVIJHU0D6gtMuJGq3jNTy8Fkl8Hzr2jRyi6s90AuWvUquDolRbUcTqVrR3X5WdCiaoMGDEyrCywfxui8m45osGaevsVXRrFjZmJELNTxCpTADHtjpDulc8pNtzP5bdphdW9qhrCwAO1LjEhYrmwqW1w4Bwc5p0a3oVrwXhtPHL2tVrVqtDI0xEZQZHXvuuw8S4Tw+3wu3oMY51+9wLrkGS7qho06tIlc+7HG6y9nXHtv7q+px4lxBzjTN5WY4CZzKvuOLsXt3+biVbq9JbOL2WXPUAg9YXErq3qPylr8rs+p7NV/O/r8v8q/TzGfDkLuL8ayhzsRrls66rXueJsVuvweIVQBqQ5+hVNi194lZNBadxJA7CsmBM8ctzUpPkHdpAU+tyfyrcymPhnZyj41hbw2nkrx8VrBp26Qretxni+MWD7hld9tWDT97oMDXHQ+3WFX1sKpvAJpNLwZmFhusNe+i/m6LHOiDoAAO3+5WcvJufuqXPdkjzzyhWdzywYteYRdcY4pZYjaU5fhlzlNOq+DlLSdhrEjrXTHKByBY3wNhNlcOu/KNlUti6rW0GSrPoRJJAE6rsDijEeUDgTlLxjFsLwuz5y4qsp0K2IUKRIbEfe3hwI9Y7dwuR8sPF11/BfaHFrduG43cgtuKVOtno7GHBzmnVfe4s+SWar8d6hy8uPLce6vF90yHFlTV+w7krcNFSXaw3KJ2W5Sw65xu8vW23Nmrb0y/zzoWyJiOnVVDLgim0nXNMu6iOhfpJNybeCW2LU1Q6maY9UdB61ie2pL3OpFlIj7249JWmy8LSYdodDouS4vf+M4Ph1vp94EGAAZWmL4qno5ado51RuapOhWm11a5BDGzGuvUtsuJBB2WFlQtLmZsojQjoKX2Z2nguA3fEOK0bGwpl168+bTylxqdGUQRrqFzv+Bji+4bc2dO1uWYzSBe+2lradBo6XvPq0mdV274PfD3C1pTscYxmwdUxa2dztEueQ12m51jpVT4VfLtbVrfyHw9XtXsuJffPtGVKdYO1GVzpgjXo10HavBeTL6nbGsOTPC/teZb6riDHVKV1VcDRqc25odILhuQR0LM7H7u2snU6FcsLiC4gCT64VKLlpcPvhc5wzEHZJ9QOGhXvk3P3PfhnlZu+7sPkl464lsOKbWlY4/iNgazspfbVi09kx0TH0LuTjzlz5ROC8JtnDjjGK+O5iTdO9Hm9fN1ETOXo6F5r4Wxz4O4tSu+hug7NR7le8dcdVuLq9MOrVH0mjRpd5o9Wy82fHvPb1Yc2UurXNGeF5yzvqsjlFxam0nMfwZB/1V6h8ErwkuNePMSu7THuKLnEjTGhq06Y0lo6GjrXgO3a17sr3lgA0Ijr7V6D5AeMMK4DqVLsfen1dc9R2kSJXn6qaw/bHuw5bfy+nlTFr59IubdvIjaVpsv7sgVXVqjnB2mq665L+VKw42o0m0ryk8lskNIno967KptNKo9o1b0L8rc+TG6yr099vtSqcS31pQgOlpMasaT7YVLf8QYmyiXUr6tRl0wHK9qgPYQQD6lxrGbTnmZWjWZ0XPLkzk93fi5u26rjt5xjj4q5BitZwnQGD9iXw8xy0exlS/qvJMQCB9SxjCgy7BcyZ0Gp0K47xBVdbYzSo1WOc0mGvb0FeecvJ/KvsY8uGvZf3nGnEt1Z3Jo4veWTmiWVKTwDPUZ6PcvJ/Ldy8cs3B1242XGmLUqAdoab2Ob0/sr1nbYVXZbjJSD2OGZxdr9BXQ3hVcP0KHCVxfUbYGqyMwYAABB16l9Do+bL6mrWeXLG4bkee8H8KrlmxuqyieUfFaDi2cxczf5q073wsuWrD7irR/hExZxY7LMs17fRXVNBmapJLqWb0XBw83t0XKKWH4HxHaNourOw7Eqe9SS4VQOuZA6F+vkxs3p+c5eay+Kz8U+EjyocU2po4vxpid9RdoWVHtj6AFwB3E2IvuRXrXdWrUAgFxlbGNYW6yqQ54dTcfNaOiFR1ZGYNkHoyiV3wk08X18vlds4vxCHNbcObOp0HuWF3EeKAH/lb8p7B7lXczUdS5403touIDS4QJSc4loHQuscsubO3xa2nYxeVT59zUJPUYV1gvGWL4FYeL2OJ17Mg55pug+1cXOkHpBSqOLzJOuytm/dj6me97dkWnLlxrRtxTr8R315bTlNF9SZHfurG5wjHuJrN17Y291Sc5vOZLl4DndrSd911LRfzTgQYAMrlNtxhd1a1u65v7nJRgfe3CQ3qAOi4Z4am8YXkzvm1aWvCmO3d1zGKmvhFvkJNet50noEDo1Vbj/JxjGCCnUdTZdNeC/PQdmbl6D3rm17yr4Xf4d4rQdcc9ky89dhsu/ZgD/iFW4Zyrtpvp4fTwynbtpUy0PzF5eZH6UrzTPmnntYuVvvXWlVtamJcwsYDHnCDK28GfQdeZLqlz1J7cs5iMhkedp/xquyuNMFw3GsPbfUqTbe5LJc1tUEE9cBdV804S4Ne2m05S9onVevDPLPHdZTxzDK2GXppOaMj/Pp1Ad2qvZ5hmo4tCtbm8dcW7KbqhrBp0cdx2LRrBoZro2dT1LvPYZza3BtW14+8E5Qe1SoVKdN0uALgNJ1VxQ5jyC1or8/SDwQDpBg9XrXH6gDiSBpKlGxRvq1tc85Rc6JktaYG/8AxsvTnIlysWmIPOH49a4ThuH0KWavilSqKVR0ERlkS53YOiV5doUudflALndDRuSu2+AMNwPh91rcYoarq9RppN8aoh7aRcJkT06bmV5Ook7XLOW+z//Z;" vertex="1" parent="1">
          <mxGeometry x="30" y="20" width="400" height="400" as="geometry" />
        </mxCell>
        <mxCell id="LcdQc8iV-d25lG8Cdk2--4" value="" style="shape=image;verticalLabelPosition=bottom;labelBackgroundColor=default;verticalAlign=top;aspect=fixed;imageAspect=0;image=data:image/jpeg,/9j/4AAQSkZJRgABAQAAAQABAAD/4gHYSUNDX1BST0ZJTEUAAQEAAAHIAAAAAAQwAABtbnRyUkdCIFhZWiAH4AABAAEAAAAAAABhY3NwAAAAAAAAAAAAAAAAAAAAAAAAAAAAAAAAAAAAAQAA9tYAAQAAAADTLQAAAAAAAAAAAAAAAAAAAAAAAAAAAAAAAAAAAAAAAAAAAAAAAAAAAAAAAAAAAAAAAAAAAAlkZXNjAAAA8AAAACRyWFlaAAABFAAAABRnWFlaAAABKAAAABRiWFlaAAABPAAAABR3dHB0AAABUAAAABRyVFJDAAABZAAAAChnVFJDAAABZAAAAChiVFJDAAABZAAAAChjcHJ0AAABjAAAADxtbHVjAAAAAAAAAAEAAAAMZW5VUwAAAAgAAAAcAHMAUgBHAEJYWVogAAAAAAAAb6IAADj1AAADkFhZWiAAAAAAAABimQAAt4UAABjaWFlaIAAAAAAAACSgAAAPhAAAts9YWVogAAAAAAAA9tYAAQAAAADTLXBhcmEAAAAAAAQAAAACZmYAAPKnAAANWQAAE9AAAApbAAAAAAAAAABtbHVjAAAAAAAAAAEAAAAMZW5VUwAAACAAAAAcAEcAbwBvAGcAbABlACAASQBuAGMALgAgADIAMAAxADb/2wBDAAMCAgMCAgMDAwMEAwMEBQgFBQQEBQoHBwYIDAoMDAsKCwsNDhIQDQ4RDgsLEBYQERMUFRUVDA8XGBYUGBIUFRT/2wBDAQMEBAUEBQkFBQkUDQsNFBQUFBQUFBQUFBQUFBQUFBQUFBQUFBQUFBQUFBQUFBQUFBQUFBQUFBQUFBQUFBQUFBT/wAARCAGQAZADASIAAhEBAxEB/8QAHQAAAgEFAQEAAAAAAAAAAAAAAAECAwQFBggHCf/EAFMQAAEEAQIDAwYJCAcECQQDAAEAAgMRBAUhBhIxE0FRByJhkaHRCBQVMnGBkpOxFiMzNERSVMFCQ1Nyc9LwCWKU8SQ1RVWCotPh4hcYY8IlNqT/xAAbAQEBAQEBAQEBAAAAAAAAAAAAAQIDBAUGB//EAC8RAQEAAgEDAwIFBAEFAAAAAAABAgMRBCExBRJRExQGIjJSkRVBYXEjQlOh0fD/2gAMAwEAAhEDEQA/AOzapBNIRVr5j6BA2UyaRVJO6IGwcxo7qUg5BbYzIfAKMZoq5x8mTHeXRkAkVuAfxQWrXvv9Vd7VNjnk74rvar12rZTRtI37tvuQ3WcsH9I37tvuWoLWiesBjHibUXtAGyucjUcjKYGSvDmg3QYBv9QVq42FKIoQhQCCaTAsocBSCINlOrRVIQNjQSqrMftjytbKT1/NAE+1Uga6KpFkywOLo5HMcRVt2QVRpryf0eb9233IOmvHRmQ0+MrAAm3VMu/1iT7SbtUyq3nc70O3/FBRlxXwNDndCaVGrVebMmyGhsj+YA3VAKggqQY0uS8thgkyHAWWx9QPFVnaTngbadK0+Muw9ioRTSQO5o5HxuqrY4g+xVfj+SeuRK70OeStQP5K1IfsLPtFRkwsvHbzZGM2FhNBwcTv4JjOyCf0z/Woy5EsrQHyOcLuiVKKT9hsoXak42FFQCEAWUyKUoSEAWUyKUCBrops880dwoIBLTsrBdQYYyXloeI6F2VXGjb7ZUI/xTQ9ix7nFwok/VsogePnf3t/xW4Mm7RjW+XjH/CdZ9qtszA+KRB/bCSzVBWrumwDfS0V+CQ3O5J+kqUJxNJA2VJwFJVSgFF5oKYFlDmghZopNJtSO/VJwDRsnH5zt1YIkUpRNDnEHfZSe0AdFCyzcbFStRcwtw2OJynTMjrYwN5jf193VVw7Qz1m1D7oe5WAkcf6R+pBkcOjnetWJV+fkgj8y7Kkd3idvK2vq71bZgxhEOxZyuvc2TsraR7ninOJH0qFUqsXqEIRkIq0IQA26J8xCSEDLieqLpJCodlF2khQCEIQO6RdpIQCEIQCEIQO6RdpIQMCymRSV0i7QJCEKh3SLtJCgTuiQFlN3RDeqB1SKtCECO3RK7Td0SQCEIQCEIVCd0UbpSq0UFBG7TAsoIpK6QSO3RRu0XaEARfVIANOyaECcbCg7opu6KDuiBXSLtCECq0UEE0kDZUrUXhNIZud03AUkNuirKVBBFIBsp1aCIFlOgnVIQKggik0VaCIFlOgnVIQIikgLKlVoqkCoIIpBNIG/VAgLKZFIO3RK7QAFlMikm9VKrQRAsp0E6pCBEUoqTuiQFlAAWUyKTqkVaCIFlMikHbogb9UEatFUpUEEUgihCECd0SAsqVWiqQFBIik0VaCIFlSoIqkE0gRFJIu0IFVooJoQKgkRSZNKN2gRNJs3O6KtA26IG4ClB4oKV2m1ocaO6CihVpGBgtsRkPgLVPmd/Cu9qLEHdEm9VUtx/ZXe1I33wmP0m0aXV2kpEUkBZRgN6pk0nVJO6IAGyq+NjfGpCznEdC7Kt29VIi/H6igyUWiSPcRG9k7q+aTX1qodBnaLk+L47f3pHmj6Fh+T/eePoeQm0cp6ud6HuLh6itRmr/M074pEH9vjS2aqFxJVk/YbIv0NH0NASO/VSrCBsoJpB26IG/VRSu0N6p0E6pAVaRFJpO6IE3qrjFxfjchZziOhdlW90mN+8/UjNZIaLZ/WW+xS+RB/Et9ixlV3u9ZRv4u9ZRYu8zThiRB/aiSzVBWjQLR9ZP0lF0iq+NjRZLy2XIOK0C+cAGz4bq7j0zT2G5NWcW/3B7ljuct3FfWLUXu7QU4NI6/NCDJy6dpj2gR6q4Ov90K1yMHHxmB0WccpxNchaBQ8dlaxgMdbWtBrwCm95I7vqAQJJ3RKyi7QJBNIRVoEDZTJpI7dEDfqgVlTiHM4g77KJFIa4tNjZBe4rIBIe1bba8SN1cuZgV+jH2j71iudztiUdfFagyL5NPgHMcftAdqDne9W2Xk4k0Ybj4xhfdl3MTt4blUGvMZtp36b7odK6QU4gjr0AUogkTSkRSg80FBFxPKT4bqwfr2LFL2bvnfSjWc9+n4EkrGlxO1Aej/ANlz1rPH+pt4mMYLgy+nIPH6EWOk4pBMwPb80qS1/g3WJNS0iPtGFrq5uYhZ8GyhQTSbCbTAvqk4cosbIRXhypMZxdG4NcRW4B/FVTrGWP6xv3bfcrHmJ70xv1RpeDWMsn9I37tvuVLLz58qMMkcHNBvZoG/1BWzzyixsoF5PUozV9VoqkM3O6ZFIhIq0IQFUhCEAhCFQIQhQFWiqQkTSBoUbKYNlA0VaEIFQTqkIQCEIQCEIQFWlQTSJpA6pJ3RANlDuiCKEIQCEIQFWiqQhAVaKCEICqQhCoKtI7dE0ndFArtIi+qaEFHJxfjMD2AXtuvKNV4Nw36z2pxgZL62fevXe1dE1xaaJFdFq2e0Oy+Yjzr6qVvFl9DwnYmmxtoNj6AAK/qlRwp3vxWsLraN6pVkjN8i6Qd+qEJVhEUldJu6KKih+43UKCqtAcd0yxo7lYzVf5vRAcT1Q7ok3qqiSEIQCEIQCEIQCEIQImkDfqnVoqkCoJ1SEIBMCykm3qgCKSUndFFAIQhAIQmBZQJJ3RVA0Ep8gPcgot6qVWqnI0dyToXSCo9nKUUyKUVN2HkV1PqCQw8gnqfUEgQFlMilJuFPfU+pD4JoBzOYZB0oJRTQpxuc52+K72qZsfsjvWUgok0kDZVXzj+yu9ZTaDf6o71lVmqSCaVej/CO9ZUJI5ZG1HiuDvrUqxRspjfqqkWFkPcQ6EsFdSqp06UdLUVbEUok0rsafMeto+TJD1bK4eETQSrBaNAe197021pmbNO7USyMNeBuQ7ah4rfH6bkNaewxsyVx2LSwDb1Ll/4Q3EXFfDUrRpseZih8wY7liYSRyuNbg+AVHQ2Jn4uLjMMs8T5CeXs2Psj0rItLZYxI0eaVxZ5A87iLVvKfCMyLUMgTQlj2vIojnZ3dB06hdvs0bOg54Y9NlZG0ihKaHTx6rLNWRFKJNLIjQtSnPK3EZGRvZcU3cMarX6KP7SLGMu0lkjwxqwBIhhNbnmfWyxWbmxYJ7KTHmlyCaDcYc1HxPo/9kVcY8jI5LfEZQduUEhbJh6Vh6nFytg+LOaOYvLnb+jc+n2LXdE0/iCHJdlzYuG7AcwtY0SfnQ6wRY8KB9i2zTPjGfI6HNiZjwMbztc0151gAbeglbnhmsSHaIeuU/wBSTnaI0bZT/UtIyOKJY5iGvYB/ht9yp/lVM7rIz7pvuXK2uje2P0UnfKf6lMHRCf1l/qWhDimUdHs+7b7lJvFU3MPzjPum+5WVK3t50QDbJf6lEHSXH81K6Z37psbeKwGPrLZYQXchP9we5E2qRFoBeyKz84ABVGwhuATvDI70REk+1Ps9P/hs31LCsuGMTuyS+N3mgNNfh9CPj8f9pJ9473qwZos08dIMhvpl2HsUawf7MfaPvWH+PRHq57vQ57j/ADUmZeO7msdB4lUZasH+zH2j70w3BJ/Rj7R961LJ1kRz8rX0L6LJw5uO+AOc/sz+8SpRmy3BH9WPtH3qNYP9mPtH3rCyZmMG7ZTeviqRzscftTfWosZ50mnwjmdj9oOlBzveonP04dME/bd71hItSgjdbctt130VV+V4j+1s+y33IVlflDTj+wn7bvemzN0xxp2J2Y8S93vWGk1iNrdstn2W+5Y3WNYjfjNBzG/PHQAdxRG3fHtMi3jwRlHpyGVwr07H/Vpsz8Oc8o0VkZG9md/+Zebu1iOMW3NDT4ilTfrYeKOea9DqWba1HpxlxR/2ZH98/wB6py5WHE236c1ourbK4/zXmjdUjcd89321kdG1WKPKcRm35h+cebvHirKN1Op6eOmEftu96G5+FMeVuN2Z62XO96wjdZjcd8tn2W+5N2pQSinZTSOuwAVOGbdl4cI5nQdoOlBx96I9ZwonW3DIPT5zvesG3Px4jbcpoPTeiqjNViJ3y2eoIcM6Nax5zyiDsyN7JKZ1CEdKWBfqGPIKdlNrrtQUBNBKajmEjutAqw4bB8pRDwU49WYx1ivrFrARsDnb361U7Jo7j61KlZyXWXlv5pzQ6/3AdvUqLtZy6/SN+7b7li2DkNjYqYeT1KsRkPlnL/tG/dt9yR1rMHSRv3bfcse9xA2KstSypYIWFjuUl4B2HgUozh1zNH9a37tvuRHxDnxG2zNB6fome5YrGkdJCC42VUSDJTa/nZLQ2SYOaDe0bR+AVB2pZFfpB9ke5Wt0i7UouflLJH9YPsj3I+VMrumLfS0AfgrVBNKwPUtVzG4j3DKlaRuCHkLjH4WWuahDreHCzNnEbqkLe0O7qO/tK7EzvOxng9KXD/wk2Z+ucTdnG5sj4TfnACmb/wDsukgw/wAHLXdR/wDq3ozPjs/LI4tcOc7jY/yC+gr9Ty2yQk5Ez+0Y4u5nk7ggAr5reRzXMfhryl6RNPkOhmjk6di6Tm/3Whvf9O3VdxycUcW8U5Yh0HRW6XgVyDUNSkaHkHqBH6etnw9KWDfNQ1tunQGfK1eIQ3Tmyv5eT0ityduh8Vro47fqcjoeH8bP1kjc5MtshYOlkitrIVph8AY+NnD5Zmn1bO5ecl7QIBuOlUCf5Wtmiw4omhkTTCwf0IXFjT9IFA/Ws1Ywsel6xqUnaa1mvkxurMfEkLYmv7jzghxNXsTW/TYLM4ULcTzYi5u1Xzkn1k2q7gAwNHmt/dbsPppUZnGJoLdjdKLwrW6J3O17w47XzFSbmTtupX/WVaRzPe6nGxXgqgNlDhzK/j/i6V1nhzVpD/8Ag06Qn1BjtvqUoOOOLXPIPC/EB2/7qm/9Fd7O1eNwo5o+qgoO12LFHP8AGjJe1By1xHPmuFY+MeMJHVDwdxDku6lg0+VlDxswqq3ivjcG3cBcRN9JxiPxjb+K7hdxTA8U55cPSVH8p8dm7Xcp9BTiDi7G418octx43BGshwF/n4Gtb666qy1TWPK1kNYZOC9QMPOC0CMDej4D6V23NxRhvaO3yXxMBsOBvdEnFumyxtY/UpS1psbBakjNtccY/EXlZZhsa3gvUA0Hp2YP8lOPiLysudvwXn/dD3LsX8sdPawNGpy0PQEhxngDpqkv2QrxFlrkFmveVxxqLgXOmd+6YwNvHom/WvLQ4csPk6znOO3mlraHj5wpdeu4zwHCjqso+gAJDjTAj3GqSm9vOAd+KxfJzXH0uleW9zRkO4Ez3cxrs+0gsen5qU2n+XHPiELuBdQYxp5h+chHo/d9K69bxVgOkL4sx80hG7TsK8U5OJseUU55I67OpIrjPJ4W8uBjHZ8G5cbr6zZEAHt5d/rVuOE/LsevCZ/4vG/zrtNnEWNGba436Xkqf5UwD+n7U4WOLYOCvLtkPLRwsY6F2cvF/wA6uWeT7y7E78N//wCrF/zrsh/FEBHzz9RUPyogb0kd9pOErj5nk08u2UeX8nhHW9nKxf8AOnJ5H/LpkN5ZNDa4A3XxvFH/AO66+fxPA8UZHV6HkKP5R44/rH/eH3pwOPv/AKJeW523yDCP8XNxgPZIpN8hvlvcdtCwnfRnwn8Hn8F1+OJcfveXf3nE/imeJMU9Q0/SAU4hy5Eh8g3lwlcR8jYEG18z8trgfRQV3j+QPy6QvLo8PR2OqrlnIC6sk4qxMdvN2YNmvM80+sKmONsPvx3u/vPcfxKcQ5rmKLyD+XaV1POgYoq+cT3fo3VUfB/8uRO2foR+h5/k0/gumfy2wu/EB+lRdxpgEb4TD9LbTg5rmh/kA8uLBb9Q0Fg8XzFg9bo6UsbyC+WoSHn1Lh5wroM3/LEV0qzjbCjNsxGxnxYOU+xKTjnEkbToHOF9C4+9OIc1zxF5APLDO7lk1fQcUVfO3IL79FGJv4/UspofkM8rej6jHM/iTQnRnzHtcW7jrQ267L288ZYB64Yd9NlOPinTsgkDEjjc0cwcWg7/AFqrOWsZOm5WkMjxs3HYMoC3ZELiWO9A/wBdytyaVfUsp+bqDpS8ubVAXt6uiogX1Wa1CZud1I7dEqDeiLtQpONhW2XE2WNoeLAdauatJzGuFEWiKOMaPKPmgdFXUWxtYbAoqSAJpIGynVoqkAk80E0EX1QUJqdDIHb23b6Vz9xt5Ahx/r5lyZX4rGu7Uytc4c1bcux9N/UuhXxtIFhO9gKFD0BUed+T/wAjnCnAxjyMLCZJqjWchyJC5xqwTXMSAbA3W/QsZEJA1jCZPnOc0Ocf/Edwrl8rpGBhDeUG9mgH1hU+UDuQKIdnD2ILuzvm5SSd/rQWgdE6pFWoI1aoZQHZj6VcEUqcrQ5oB33UrUWsAHOfoVeqQyNrTsFOgolVuQeLvtFSYOQ2Cb9JJVSQcgtsZkPgFAPeT+qu9q2iQkcT1KfMT3lDY5JjythMR62UPhmgHM5hkB2oIG15ab2P0i0+2d4M+wPcqYkeT+qu9qfO/wDhXe1E4T7Vx7mfYHuR2p8GfYHuUQ95P6q72qQLif1V3tTlR2p8GfYHuS7QnuZ9ge5St38K71lBLh+yu9ZUEHO5hVAfQAFGvp9anzO/hXe1SYXE74rvWVORSr6fWivp9arP5gNsV3rKgXPH7K72qciHKD4+tLkB8fWqjHPJ3xXe1THMT+qu9ZTkUOzb6fWjs2+n1q47F83mtgMR62bTGnzE96ci27Nvp9aOzb6fWrsadKT3qXybJ3tld/hNBK1KLNoDDY9u6nzn0epXB01w/q837tvuSGmvJ/R5v3bfcpaKHOfR6kucnw9SuTprh/V5v3bfchmmTuNRY2ZM790sA28VORbcx9HqRd+HqV8zR84nfTMr1BN+j5oG2mZXqCcjH36B6knsDxRHq2V98kZ3/dmV6gj5Iz+7TpW+mU0PYtSiw5Q0bIb1V87SdRr9RZ9spxaFqU7uUYjIyBdlxQWLuiisp+S+qH+qj+0j8l9U/so/tIMYBZTIpZMcN6jEbfFHXT5ykNByz1hj+2pRiELL/IEw/ShkLf3g69/BI6E0ftDUgxKFlfkQDplQj/FND2JjRLP65g/eH3qjEoJpZf5DB65WMf8ACcSfaov0JoH6w1SjEXaFlDokI/S5vYt/eAB38Ejo+CP+1nfYHuUGMQskNHwif+tnfYHuVSLSdNY65dVcW1+4OqDEoWafp2jgbao77IVKTH0fHbzHUHSXtQCsGJd0UHCwspz6Kf2p/qTb8huNHIyHDwibZUoxLQLTIpZZzdBaNpdQ+7HuVN50MDafLb6ZWABBcxanjYDjI2IPJHLW5/10VX8qoh+yj1LERNEbrb1rv3VXtD6PUFoZJ3EMWUOTsRHW90oO1Kh+ZIDu/YHb61jZfzjad0vu2UGNEZtuxQZT5UyR/Tb9hvuR8q5P77fu2+5Y8PcT1QXkd6DIHVsodJG/dt9yXyxlj+sb9233LH87j3oDiT1QZD5Zy/7Rv3bfck7Wcuv0jfu2+5WNlJxNIL75Zy/7Rv3bfcga1mDpI37tvuVhZRZQZA61mHrK37tvuS+VspwN5DYwN7MbfcseXELFcS5TcXRsiaQ+axpd1ruWteF25+yNRd6x5RMbQ4g7I1GKK3ctljOtE+HoWHf5atNaLGswD/wM9y4a8r/G+qa5qphOoSDTW5A5GNa0U+iASauqvvVro/CunTwY8+scb6RpONK4MBlmkfIXHcN5Wu8AfUv0GP4f25avrfUkn+WL5d0TeXDS2NBfqsMovoGsH4BUT5dNGHTOi9i5FHk94Gw8svl8o+TJE6PzW4mBJM0usV3gja97+pUtP4R4aZnTHI1DXM3AEZLJcaaIOLrFfmy2wKve1z6b0Hd1uVxwy54+GLvxw7V1+3y7aPf6/F/5Vc4Xln0/UJTHjZ8fOG8x84N2/wBFcSZudwFpGUbHEeS1vzmTSxsFeNija1jiHjDhzUp42cNHUtOfzjndkZAc0to2Ot3depZ1ej57M7r98lnyszmfePoe3yo47XAS6g0Bxocstm1n8TWsjLhE8We+SN3QBy+fnD+lOhhgzcrV86GEkB0mL+dkrr5rXWCdvBdReSLjLEkZFiwalBquIGbTh1Tg2PNkaNgfoC9vU/hvd0ur62WXMS17O7VMuv1iT7Sj8pZbv2mUfQ8hW87muyR2e0RZdelB26L8rLy3PC4+UctvTKn+9d70jqWYeuXP9673q2u0KquPlHL/AIqf713vTGoZRO+TK70OeT+KtkXSC5dn5Nfpn+tQfmzvFGZ9ehxCouJpRsoK3xib+2k+2UfGJv7aT7ZVGyiygnI98zafLIRd/pD71T7ID+nL9473p2UWUDa3lNh7z9Lyf5puca+c71qNlF2gOY9/neh2/wCKbSL+az7AUU7pBIuobAN9LQB+CiXOPVzvWi7SQSa8tNg39O6bpnV/R+yFAmlG7QT7d4/d+yEOkMgpwaR1+aFBF0gHMaR81vqSa1rDYa362gp3aED5/wDdZ9ge5MSOb82mnxaAFAmkrKCqZnnq93rUHPJG55h4O3UbKV2guLpOykmBZQA36p0EVSaBVSKtNCBUEVSaEAlVppE0gRFIAsoG/VM7dEEXigtW8pBrg7USP3CtpO/VYbi7TxqegZWNy83aNIr6l36XOauoxzrFt5fOjynY0cTYoGAtidL2pAcd3URd/WdlpeI8Y0jXsji5m0QXxNcRv6QV7D5UuCJm5xxZHdnM2XzCfCjstUj8j/Fb4RkY+kR5OG0h0soyGsc1ne7ziB4belfvvVdG/qrN+jH8nE7f25/uxbV7xZkSS6XgBzqHZiWmihzdLofSV6DojjFo2CG9JYreHb361heIOAsjNGnNwo+3xhj/AJzt82GMA2NgQCT9HtWw6bjnCw44NQYMNkTOWORsrSCe5vMTR7z07l9X8JXXrzzx23234eLb+p5vq3B+ocY8WT6TpGPjySuhc94noNa3maCb+kj1rWuNvIvrHkx06CXUoMTsZMhrWz40lnnLXEDY9KB9S2Tyl6PqWPCM/BwsucyyCJ02n5FycpBO4b0bsN/Gl51j4ufmOjxJMrKe0PD3Y+VLI9w7r84nx9q/NepaMc/VPdpvZ6sJxo7PZ+C3uk4Tgkc53OHgBwJBGxW/eSlrYfKJpTo2tiOQ8wzdm0ND21zbgdTbRv19O61LhLTmxaDDitbRsGr76Xpvkg4C1R3HWn5k1uxYjztHKBR2H4Er+n9b7NHpU15R87XnldnFrqKJoGFjP/pEOBP0HZF2kHF08jGbY8RLWt8Cdzup0F/AtlxyztxnEfaICynQRVJrjQqCRFKSVWoEBfVBaB3JnbokN+qCJFJAWVNwFJNAtAqCKCkRSSBUEUE0iaQBFJAWUxv1TqkCoIoIJpKypQOApKgndpJAUEiKTSd0VCQhCBO6KKlVooIEBZQRSdUh3RBXAsp1SKpNAIQhAiaSsp1ar4mnz6hIY8ZrXPA5iHGtv9FBbg2UyaWRPDGqDpFH9pH5OalHvJFGW/3kGNBsp1avZ9LnxGB80bGtJoFrr3VtK0NaCNt0FM7dEhv1QN+qqRtBduO5BCgovY1w3FqtI0NbsFSeaCzfI848onkS0DjuNkkkk2lZwlDzlwEvc4URy8pJaBuDdXstW0r4OGRo8sj8fj3WsaB7DGRFG1liwaNDpt0XtpAfV926qyzySQiNziWA2Avq6/V+r0a/o45W4/7YsjygeRrVXhrYfKJqYLWclZGFBM3l/uvYRfTer9O5WM/+3OWDKdlO4vE0zxylx0LBJ8f7H0L2RsYcd7+pxV7puEMidzRIY6bdlxPePFMPU+sxvv1yS3+T243zHiLfIXlY0jXs4ofJZot+TMaEV9LIwT9HRZHXfg9aZxRo0GJl6qI3xzCXtcPFgjlJDXCi7k3HndPGl7ZJott3yWn6aKo/IEd32+Pf/wCeuX/mp/UuomXOWM5/w1xOOP7PCcD4MGmae9jhxTqcLWnYOhgeD6Nm2vT+HeGm8LwsbDLPkBo5RPNG1t+oLYsrR44Iw4yYkm9VjmnezuVBsLWireR4F5I9RK6bfU+r6mf8my8fHNYmvCXmRQjaI+cN2D3c7vSVNXmJgtypC0SRRUL5pnEBXL9EofrWMf8ACcSfavl3tXRiSaSsrKfIgP7S32KhmaaMSIP7USWaoLIsgbKZNIO3RRu0BdoukwLKCKQA36od5o2Q3qhwsIIcxPeiymRScTQ5xB32QRspjfqrqBmG15OWZmR1sYRzG/d1Vw35Dv8ATah90PcjNY07dErKyh+SCPzLsqR3eJ28ra+rvVvljG7MdizldfiTsixZ3aSkRSiihBNIJpIb9UADZTq0VSCaQIikgLKLtNgsoE4lotsZkPgFHtJP4Z3tV7h57dNlMro+0BHLX+voV2eKoh+yj1IMPUs3mtiMR62UGGWPeQ2OnRZOfXhnMEccQicDzXSs8iZ8jAHGxd9AgmhRBsqSAQkTSQNlBJNr3MNtc5p8WmkkIJ9vKf66T7ZUJHPmbT5JCLv9I73pE0kDZQEbOzdYc8np5zy78SpucXCjukovNDZBOPHdkPDWydnW5J7x4LS+MPKjpXBGoFmVkMdHXIG2Pndb9hWx6tkuxtOyJg7l5GF1hcT+VXHyuLdbyJ3SPlx2vIABrffw+tcc7ZX1ug9O3+pW69Uk4/vXu+p/Cl0DHO+SGNuhygErE5nwrtBMQ7LOcHX/AGbTt6lynhcHwQai85QnawsIHZ+ebsdxv0rb9C8mmPqOQGw4+dmF7aawwgVuN9h/q1ce8d76Vlhbjnuwtn+f/T26X4Wmk47eY5r5LNUIm+5W0/wwNOdHy47nyyu2aCwCvT0XmeZ5GcrBnjhbo+UJb5n9pAXAs79gR31urSXhPTDq/wAQ+RXMyIGdsSWSM6EDrznx6LpzYTotOHbPOW/48PcuHPhTaa9vZ6tLHiPI5hLMOUH/AHdv9bLdMT4QvC2exjcfUsZ0pO/Zv3r/AFS5U1ThzTtYyIMebTgXteCS4uqqI8fSsnl+TfScd0bYsARADmuOR7Tf0grxbd8wy4r7npv4f/q2Vw0ZycOzdE4vweImViZPavDecgO7un8wsvG8ud5x5h4O3XKfk11TJ4O1uN0MzoopWdgQ7zrBINedf7q6k02f4zjxS3Yc216NWz348x8b1r0jP0jL3Z3meF6HcvQNB9DQEGRw71EmlG7Xbm18C43HymJHHrR+kAoc41sA3+6APwUW9U6tEIEk/Od6ypfWT9JSO3RIGygbuiipO6KKAukXaEIC6RdpgWUEUgVWhp5TY2QhBLtHeJH0IMrx0e71qKTuiBl7pBTnEj6Ug0BJvVMmkA7ooqpEA91HcUpSRta3YIKNWiqTfsNlEGygaTuiaKtBECyn83og7dErtBIPcP8AkjtHHw9QUUIHzn0epIkuG6EiaQXFUmmRSSBVaKpNCASJpNJ3RAhv1TO3RJvVN3RArKi42FICyhwFIMTxIL0HPB6GIgrmaLTcZ2Fm3FdPLhZPVdSanity9OyYT1fGQB4lc758EOgZWoYuo4ckMPI5zZRzbusbeq18/rMcsJNkvZ+29F34fabunxy/5MvDzpuBB2bpuzqQOoOBK9t8leJGMBmW22zxiw+z4ju6LxnFy8bVzPj6c2aV7CZHBjRYaNidyO8heyeTDUNLwtL5MjJznSgbwmKMAem+Ze/HqdftnZ8LP0/q8L7Zhx/95ZLyk+UmbSOLMSE6O7UBLjFrgW8wBsedX+uq8g4iD8DWdR13EhjwcmTEdHyiJtgFzT0I9C6EyOJtKnzYskfGHZPJ2Ae7HiPmHeqJrqBv1XlHlU4fm1rJmGj42Xk5k7eQtLGAcvUmuauoC3Oo1/Djeh6u/wDS84x8mTMGFkSkOmeWlzg0C9wO5bxxNjR42rzRRt5Y2NZyjrVjda9pvC2oablYI1TCdh4TB2TnTkAGXqBbXE3QPo2WWzNWiyZcvIypWZUnaCMdiDYABrYL5HW3HP8ANI/cfhTR1enqr7pJj/5Y3JA7fCPQjJZ7l1jgwMxIuxjHLGxkfKLurbZXMXDPD+RxXruNBBHL2UThO8OZQ5QQOv0kLqNsZaYz3GNod6SBQ/muHQZWzjl6/wAab9GOevp5xf8AR3aYFlBFJsFlffynFfyq883kHbolZU3AUo0FhCG/VM7dEVSHdEEbtCEIBCYFlBFIFdIu0JgWUCQmRSiTSBpO6IBsod0QK6RdpIQVIjTj9CnIbCpNNHZNziR1QJwsKNUndpIAmlGypVaRFIFdoQgCygEJkUkgEndE0ndFKLm7QBZUbKOYhUTIpJR5ie9FlBJKrSBsq6wosaaUtysg40fLYeBdnw/FBbtAtDxQWWbg6Rf/AFo77IQ7A0gj/rR32Qgw10i7WSyMPT42A42Ycl97sIqh4qzmjaxoIFG0FBzA4tJFlp5h9KstZ0PA4haW6hix5APiOX8KV8hTKTOe3LvG9eeWrP6mu8ZfM8tNZ5HeDWc3/wDBQu5uoe97h6i5XUPkv4Tx4BDHw/gtju6EQv19VtCFn6eHw9d67qsrzduX81rTPJrwtG8OboWGHA2D2aqzcA8OSzRyu0bEEkZtrmxhtepbAirT2Y/BOt6n/uX+a1/C4A4dw53yw6Tjte93OSWk7+O6uWcHaJCXuZpmO0vdzOIb1Ky426K4whC6UidksjOXYRDe1fp4WcWH3vUy8zZf5qzwMSDTiTjQRQkt5SWsF0q9mq7uqyfJp46QZDfTLsPYisH+zH2j71cdeGH6Zw8uzZntvOy8/wC2Lq0xt0WQlOE1oIjA3/ePvVLtMP8AcHrK6eXNaXaFfROwnOILAdv3j71UIwR/Vj7R96DGpO6LIn4kP6sfaPvVvlnHMY7JtOvxJ2WaLRCEKAukXaEIGBZTO3RRukXaAu0VaRNIBsoGInybR7HqmMKc9SfUquJO3HkLndCKVy/UQ8VGQHfQgsXY8sA5nMMgO1BRcSRvCY/SbV83UciM214B6btB/kqWXnz5UYZI4OaDezQN/qCC1ukXaSEAhBNKNlBImlG7RdoQCkyJ8ppnXqoqUc74Hc0Z5SRXS0FaLTsqRxDIJMg1fLGBY9KqO0nPA206Vp8Zdh7FR+Usrumcw+LPNPsR8pZZ65MrvQ55KCr8lal/As+2VCXAyoG82RjNhYTQcHE7qHyjk/2z/WoyZk0rafI5w60UEkwLKdBFUgKCKCaECO3RRoP2cAR6VKrRVII9kwf0G+pDo2V81vqU0qtBFn5s20Bp6bBTMjn7ONhKgiqQIiklJ3RICygALKCKTqkO6IEBZQRSV0i7QCYu9nOb6WuI/BAFlOqVBR73vd/eeSivp9aaEEHsDhvfrURC0nofWVUq0Hbogi2NrTYBH1puG3f60A2U6tBENB6360cob0/FSO3RRu1AJgWUAWU6pAUEiKTJpRu0AhCEBVpHbogmkrtAi0SCnbhNkbYzbRR6dUXSLKCTnmuqiXE9UXaSBgWUyKSukXalABfVBaB3IuknE0kBQSIpKyi7VAgC+qEXSAe0AbKIFlSO/VKqUoKCRFKSTuiQV7KLKSFQ7KLKALKCKQFlFlJMCygLKAbKdBB26IGkTSVlA36oAb9U6pFUgmkATSQ36pXaLpBKgiglZQDZQM7dErKdWkRSAsosoAsoIpAWUrtCEBdJ2UkIGN+qCKQ3qnVoI3SdlBFKJNIHdpE0gGynVoEDZTRVIQFWkRSaTuiCKEIQCEIJpAE0o2Uxv1ToIEDZQ7og7dEDfqgSALKlQSO3RAEUok0hxNJDfqgLKLKCKSQOyk4mkIq0FwhZOsH+zH2j70nSafCOZ2P2g6UHO96tGOb1Tq1f/H9NH7Cftu96Pj+nfwJ+273qCwoIqlfnUNOH7Cftu96idR08fsJ+273oLMCynygq6bqWn3+on7bvemdS08fsJ+273rUFpyDwRygdyuvlPA/gj9t3vSOqYA/Yj9t3vVFuGglPkB7lcMz8Kc8rcbsz1sud71PtcT9wesoLTs2+COzb4K77XE/cHrKO1xP3B6ygs3QOkFR7OSbhT31PqV+zKxojbWgHp1Kn8pRDwQY74lP4n1I+JTnvPqWR+U4/Qj5Tj9CDGnHlg85zDIDtQQHPPXFd7VkTqhA/MuAd3+aDt9aXyvlD+sb9233IMfbv4V3rKLd/Cu9ZWRGr5RP6Rv3bfch+r5QG0jfu2+5Bjrd/Cu9ZRbv4V3rKvjrOWP6xv3bfco/LWZ/aN+7b7kFo0uv9Vd6ym9zgNsV3tV0dbzB0lb9233JHXM09ZW/dt9yCyImlFR4zgevehsM7DcmM4t+tX0ev50LrZM0Gq/RM9ylLxHqErQHTtIu/0TPcgs2QPnPK2AxnrZtTGnSk96k/Wcx4oyivRG0fyUPlXKH9YPsj3IzU/k2TvbK7/CaCUfJrv7PN+7b7lEatl3tMW+loA/BS+Vcz+Jk+0iwjprh/V5v3bfco/Jrz/V5v3bfcpO1XMr9Zk+0o/KuZ/EyfaRUmaXM41Fi5kzv3SwDbxUnaRngbadK0+MpoexUjqmYR+syj6HkJfKWWeuTK70OeSs0VDpOoj9hZ9spx6HqWQeUYjI63suKo/KGSf65/rSOZPIKMz69DiFYLo8MaoOkUf2kN4c1KM3JFGW/3lZunlr9LJ9sqnI58radLIR1/SO96lGS+Qcw/1Mf20fIU7f0oZC394OvfwWJ7Ifvy/eu96YZybhz/AK3k/iVBlDooH7S32JfIt/tLfYsZZP8ASd6yjfxd6ygyXyJ4ZUI/xTQ9iR0Wv2vGP+E6z7Vjvp870O3/ABQa7gG/3RX4IMlHonMf1qEf4poexTOhAfteD94fesTfLv1/vb/ijnJ/os+wPcgyjtDFb5WMf8JxJ9qidEA/aG+xYwuPcA3+6APwSsn+k71lBXr6fWpMeYzbTv033SQgqjIkJ6j7ITOQ8d4+yFRukXaCp8YkPePshHbvPePshU0IKnbvHePshHbvPePshU0KioJnE93qCHSuru9QVO6RdoG9xkFO6egUodm30+tSQgj2bfT60dm30+tSQgQiaeoPrQYWDuPrKk3qm7ogpdk3wPrR2TfA+tTQgTGiM23YqfaO8VFCCXaOHen2jndSoJt6oG4mkrKbuiigLtCEIETSV2m7okBZQJCkRSigd0iykhA7tJCEAhCFAE0k0m0O6Ib1VErtImkJO6KBWUXaEIBCEIBCEIE7ooqTuiigEiaTSd0Uor2UwbKindKhk0gGygb9UHbogaFGymDZQNCRNJWUDJpKymN+qCKQANlNRukwbKBoQhAXSLtImkA2UDQhImkDQo2UWUEkXSjZRZQSu0KNlJ7iBsUEiaSsqmZ2M3lkDG+J8Vb5mqYmLEHHKaLNdyC9G/VB26LExcRYfPQnbKTtQWSjlE7A9vzSgndpIQgYFlMikrpJxNKUCEgbKaQCEE0kDZSh1aKpBNKNlIJE0o3aLtCoALKZFKJNdEBxPVShoSJpKykDJpKyldpE0qHdoUC4hLnPigmTSBv1UQ4nqndILvkHgmGAnospFqXDeQ4tGdp0dC7Oez/OqjsvhuEcxzcTI7uWDNa5w9Oxdt9Sy1wxPI0dyOQHuWWZm8NznlbMIiN7OT/8FUB4dJ/XG/8AEj/IgwojaT0Q/HLxUezlnWjh9x83L5j/ALs3P7OUKbXaHCeYZZZ3W5jnj1BDhrfxPIPefUExhTk9T6lswytJcfzWXHM79048o28eqZyMAd7Xf4UEpPtKHDWfiM47z6knwTQDmcwyDpQWzHJwB3T/APCyIZm4TDYE1+nFeVm1K1bnf/Cu9qbHvJ/VXe1bS/WMSEc3ZTzd3K3Dl9fmtJ9iUet4sx5W42TEetnCn/8ATTmrGtFzx+yu9qjzv/hXe1bUdWxY93syCOn6jP8A+krbO4n07DiD3NmaC6rOHKPxYPxWbaNfDJJ/NbCYyN7KjLBLjtDnHYmleah5Q9IwsSSV8E2TQ2aIXR0fGz+C5949+EtLp+Y6HGxsjsw/ZgjYa6+hTmtSPcDI4d6qY7JMl5a07gWuXX/ClzgP1PK+7Z7lsPAPwks7V9bdAcOcjsi487GAfOaPD0rUtXiOio9Olc7e1M6ZIO4qnofHuPqGBG92ky9qermvsn6rWbGfJLEJG6ZlFpPc+NnteQPbal344dqcMQNNlJ6FP5Mk8Csp8dmH/ZWZ/wARi/8AqIOo5EYLm6LlTEdWnKxh9f6RPusDhinaZKASO5YnUdXx9LhldLH2jgNhZ2PisnrHHM2FiTCPh2Rsoad5M2Gv/K8/guUvKF5cuIMXV8iJuGzEi3FmWKS/RVX9an1Pf3jNZPykeXTI0uZ8RDnQCSmsDQKNHe6vxXjuseXbiHU39lhteWg83KWt6dOtelYTX+NsniDIIlhhLwecuJA/11WHnz5nRgdnCBf9F1fguuPhxy8ty0Lyy8S4OoNkyriiI5b5WmzY26Lobhfy5sytLhjlk5ZCQS4tG/sXIHxyWweSI14yX/NZDH4ty8IN7RkUkY+a0OAo+O31q1vHw764b4rj1g2Xh4LbHQd4W1x6bPlMDoth9C4X4G8u+q6VqIa7sPizWfNkkYwdR3kLsjyV+U3J4p0hmRFDp7Y+TrJmtq9vAFcM9813212knDYhoeaT1PqT+Qsw959Sy7eJcy/maT/x/wD8UpOJs1rdm6T/AMd/8Vj6+nLvllwfQyz7xim6DmX1PqUvkHM8T6leS8XzwNDsmfSsVhNB4zQbPhuz/VKg7jWSVzBianosjg63ifNDQG952Z1uk+ro/e1Oly+UI9CyGuuUEtrwrdTfocrxUYId61htS8smkY2r/EHa9oD8gNswDL5q3AvYA9/j3rLRcZcuO3Kbq+jNif5o5C6T09AfQpduj97pNG7GcY48l+T+WfH1KcWgTsdcgJbX0KJ46Euw17TYu/mZiSSH1WPWmziSfUT2ePr+NkPHnFsWmSWB4/P9Kxd2j97N6bZlecpwq/Ih/cPrTGiWfmH1qm7UdShHM7PbIOlDS3/51Tk17LY25c3sm/vNwTHv9LiR7FZu0fvZ+n7O1XQ0IHqw+sp/IIH9A+srF5PFZxmBztUnIJr81jxk+1qs5eOQ1oI1PPG/8LF/lXPLqsMbxjeYnEbEzhv4weUHs63slSPCDh/Xhabn+UOCCJjsjWdRhYXAczcSLc0dvmK5g4307LhHxfV9UyZepaIIWbeNlteCz95FkjaBwoI93zik/wAmYD1ke4eEO5WsflRC7502pyj92QQ1/wCVoKrY2vwzyFrDlMIF288o9YWfvIvEbCOEoJ/NbLlxEb2WN9yf5ERfxmV9hvuWFdqDJRTppiOu0zx/NR+Mw/2s/wB/J70+8jFk5Zz8iIh+2ZX2Ge5SbwZjsNyZeUR/cb7lrs+q4uEwSSGeRpPLQyJB/wDsrLJ4m057ADDkEX/Ey/5lPvIxVHN401SCIOdlADmr9EwfyVtBx1qkryI8yjV/o2+5anm5cuREGyP5gHXVAKjiSOhkLmGjVeK/KTqd/wC+/wAvrXDHnw3h/GGrvFHMNehjR/JODinVHPIOW47fut9y1fGyZZJCHOsV4BX2K9xkO/ctTqd377/Ljljjz4bNj6/nzvLZMjtGgXTmNP8AJXcWq5QLiJA011axoPsC1zHyRA8ucdiKV9jalE55BqqWL1O/n9d/l0wwxs8JT8R6kJi0ZkgaPCgiLX9Sc6vj2QNv6MhH4K11B0BYHRNqQu3Nk7KwM72btdR+hWdTv/ff5cNmMmXaM67XNRr/AKwyvvne9R+XNR/7wyvvne9YeDIkkeQ51ivBXMZLnbrvh1G6z9d/l8zdeM+IyA13UQf1/JP96Vx/EpSa5qD20c2b6nkKyk81uyoSveACDsDZ27lv6+391/lylq7ydYyuzuXLnLRv+lcP5rmry2+XzW+GM74tgavkxNEnzWuBPQ953WzeVDyzx8M5EuKzJEZAoDlad/rC4w8oHGeXxHxDNkOyO1Bvfkb7l7Om27Msu+VdZbw2ri34SPGXEOKML5eywxr+cghvgR4eleb5XEGp5uQ6ebPyZJXdXGU/gsZlSurnvzietK0kyZGt2d7Avu81eay02sZ4aKzcjr/aFLG4hz8eTnOflMroWzOafYVhH5Urhu72BUpJXPbRNi1qWpbXsfk78tHFGj6zGMfWMqWIMp0cktjlseK7J8n/AJWNU4lx4xLmvhxhHzX2l26x7yvmjHLJE8Fj3MvY0asL1Lgvyr5XCmGIosp/Z1XIadv47rxdTpyznuld8O8fSrTtUflt2zpJXVZAeVW1DHzNQ07LZjTyCZkZe25nDp9fpXGfkd+EFqWqcWfEzmFrXwEAGNn7zfQugOL/AClxcO4DPjs5BIBJB5e4+C+D+fDta7yThzL5YPKxxRoWq5GlzZMsEok3lcQ8FtHanWPDfrsvD9T16fOndkmdxyX7OeDVj6Bt4LY/LRxLBxXxRLm47y6ImvnXuvP4opJ8iGKEkPkeG+K+70mVurvXzt9sz4i4kmleeYzS34h5H81QyJZQwVNL1/tHe9V9f07L0LObBM4glvNRAWKlyJHN3d3+C+ljbw8/uvyr9vL/AG0v3jvegZEw/rpfrkPvVk+Z4Gx9iTJ3k7u9i1zW8crx5ZBmQ580UUrjK2V3JyyecPb9C7S+BnxA+LCyNLE7MeVlutjGtPJYFWBfUj1LiKJxdNG8/OjdztPgf9Feg+TPypanwLxC3MjyiyJ45JAI2mxYPePQvm9Voyznuj6Onvh3fUTXtQfpkcb48155iAQHX3LDflJlzkNblSXd9VynkfCi+WtQghgyjG3kF21ps/WF7R5ONbyNe/Pyy9pGYiRsBvY8Avxu/wB+GfFr73TSfTem6kXZ2nNE8kkgDg755G9HwK0rUppMR35qRzd63cTt9azOs6nlY2EwRW7zwKDR0orW5Z5Ms/noi3vs7Lh78vl7pjOPDB5HA+n8TZz5pMeM5oaXNld3mxtXRZzSosvTsUaZkxBnZnnbIxgYTW1W0DxVTEjbHN2jdnsHMDfelmcSZeTk8uXIJWAU2mNbR+oBWZZfLvj2nZltJ092dkujbJRDC785546juN+K2bRNHfgZb5HSMILC3zGhp6jvA9C0/Ajna8TQ6k0cw5ezDW2B6vQts0tksQ7R+aCSK3AT3X5ebb3yZ58r4BzMe4E7bm/xVGTUshjbEgP95oP4hUWSGQ0cgS/7oAUMvzYxXiu2NvD5G+T3nkZ02SwNkcKBvzWBv4BWOW4tjFOd18USSOa3YqjJI57acbFrrMsp/d4c+1W2RA7MYGG3Ueaj/r0pxQy44pwaWdwLAf5KtG8xOtpo9E5ZnyNAcbF30Clzy+WEOUTbEBvfcfmH1ild6ZA2OdxDnk8tedI53ePEq1hFvP0K6hcY3EtNGlPfl8u+E7MkSR0JVLImexgLXEG1CGVz3EONiks01EK/eT35fKWTlSdM+UU48w67hU5Ggt3A6+Covlc0WDSi2Z7jRN/UtTPL5eXPtWs5WoY7ZHN+NNru6dVa4+VJDO6R+SJYSKDeUdfFcM5HwpsqdzSwScwdZPKOnqWz6f8ACzEOK0Ojdz95IC9F9L2/NfZw6nCzvHZ+JmOy5S2GYROA5iaB28N1l4tSxsRv53Kbz9L2XD03wwMiBl4sBfIdiCANvV9Cx8nwspMtx+OYxgb1Dw7qfD8VZ6Zu+a6zfqvnGO7M3iDCEQ/6W353oVmOKMHH845jaO3ULg7K+Ey8efzvkjJ2aANlj8z4SL86HkjEkbgea/8AX0p/S9vy7Y79XH6Y721Xyi6dpuMJTktkBdy1Y8D7lpmv/CG0bAgaGStbJzgE3e1FcI6p5eNW1O8eDNdHR5jbGnbp3j0rVdU4rzdUFyZTnv5rJoD8F69fpOy493j6nfrk5kfQnSvhKaVLkODshhHIT3eIWwaZ8ITRcvKEZyWMsbEkL5m4Ws5sUpLMh4PLXcsji8RZrMhjpMl5DTY6DdenHoLrntr83lsmy+6PrTpfEOHrGD8Yjy2lobzdy0riXyzaPw890UuUx7nHkqx/ruXE2ifCH1jh/SOwi1J3KW8nL2bD+LfQvOeIfKPmcQak6eaZ/NfNzGhv9H1rf2dcbby9R+EHxbj69rPbYbyHOkskG9qP/svG5cuZnnB+/S6Cp5etSak8F8nO8d9DorHJnkEYp3f4L6GjRjrx4s7pzV67UngfnX236B1UHZzZhysO/VYieV8jAHGxdqk2V0J5mGj08V7JIvuvyy8kzw3Y9/gqTsiSvnexY8Zkz9i+x9AVWLJDXHtTba9q1xG5bwu25El/O9iqY8z2yEg70rN+TG8VHs5JmX2J5nnbon9uHfG3h6R5ItVbgcdYE2RKI4g4WTQvcbLoD4RnE+BqmNC7DnDoxGAWtd6CuPIdVY2Vjw6nMPM0g1RWVyuNMzNYWT5RkaRy0QOnqXh2dLNmXukb91+VB+qOMb44n1Ul77+Piqul6rNi50U/PTozzNPKNir3gLhLD421ifT257dNmEDpo3ONiV4c0Bm/jzE/Urfi3gPW+FNTOJlu7OXqGtaC0t8b9S669f0sfa8G633s9xfxJFxFhwZEjhJqLXBpkAA8yjtQ2613LUpZHBvXvVFsPxdu99r0JtHMXbHdejHw89tVInGRxDtxSrtY0HoqMAp5+hVXEtGyrHuvyUzjE0Fho3SMObIy87GwoojPNmSDHZQ+YTvzez2qnK4uaAd91sXk81WLQ+Im5jzC18cZMTpzs19iiPTVrnlb4d8Nmcnarvi3h9nk+1zCxZJOd4iD5CHH59j/AN1178HzjrH1DQ8aBmQI5gBzONbt22/BcTeUnW5OIuI5JZsiCZz/ADz2Ttyf5DdXXBflR1ngp7hjMkii5C2N3ID51gjqPQV8vqekmzH38Ps9F1dw/LlX1HnzY2yAQSRzHkstcR61ruq66+OxkiIRA7clXf1fWuFx8K7XW4jYc2GdmUDfxjkDbb4UBXh6lSxPhNZkk7i+SVtt6vAI6+kL4f8ATM8+8fpJ1WPDsDO8oWLpEofK8dk48lenr/JeUeU3y/RaHO0YMwbzP5SA1rtqPiD4LwTijy1zcR4ccMUxZIyUSc3KOgBHh6VoWta58oETZEnaSXVnb8F9DR6d7cOMpzXLLrJK6B0v4TMmNmOmM7uYsIuhXUd1LO//AHZZksfZszzEBvfZs9y5LflRyio9j1VJ7e1HK6yOuxpeuen48fpeLZ1s9z6O+R/y44+vROkys0OlMZ88ho7x3AUvWYuK4tQa0szmlt30b7l8quHOOc7hTaKd4gqgwAGj9NX3LfuHvhMa1pk5Be7Lj5CBGWtFGxvYF/8ANeHd6Xnlnzh2jz3Z9T8z6VS5mN8UY/4y3mLuu3grLI1KGNgLJw830FLgOb4XeriINlhMMYOxAB39SeF8L7PjlJa598tbxtP8l5L6Xtl8uWXl3xjaqySQhxBFKu/KjmADJBFRsk+C4Y034Y2c2dxlc4t5f7JnWx6FfZHwwMvLicyFvM/ru1o/kk9L2/LLt46vpmHGDLkM57om1H5f07I82DKYHjc73svnRrHwmeIsmckN/N3sKb7ktG+E7rGBlOkyWlsZYWigDvY9HoW56Vt+Wpa+jkOqxBxrLb08Apy6nDI2nZbSL9C+e7/hb5jBbS8H+433KI+F3nHq5/2G+5Yvpe35Xl9A5MmGUUzKbfXuUBNHD5z8ptdO5cAD4X2qxb47XSP6EFrenqSf8MHWphy5MRjZ1BDW9fUrPS9vyxZzXP8AjHIheS8iiK+YPcqr8h43sX/dC9bj+DVx/MeV/DOoEdf0dKq34MHHTjR4X1A/+Ar9dHSa/p/lrxbLdNkxhrXUQb80ALHZWnzyxgPLnAG9yvfo/gv8dMNjhbUPsFSd8GHjtwo8L6gf/AtRqR4Lg/GMdxDneZWwLQrmbIkLOo+yF7efgt8cPBvhXUCBv8wrE6n8H/ifTYJXZHC+ezlGziDsVK08Z7NrXl4FOO1qrC8teaPctwn8nebhYXaZOLNC/tOSpNu4+5WD+E5WC2sIP1rthbI45yW92JgmeHnfu8FUkmeW/OWSj4dlhdzPaa6KfyO7tI424smQ+VwjY2M7gnv9iXve7nMMZO0Ydj3NdYO6lLO+Rga42LvYAL0AeQ7iZmOJ36dkxxuHMC9u1LBZHB2TjTugmxnRvbuSbUZy6a53mNaizPibw7szLzebXh6fYs1l6c9+nMyGS7lwBjroKKvsbhmTGe55ZtVbq3yMvF07nDxTiOXdx/BZrybNf08vbWr5WaWns2mng2VbOy5SPn+wKlllsmoPlZsCK6qnI4hux71ueHmy8ruDJkc827u8AqksrnNAJ71Y48juc79yrl5PUqVnmrzT3O7V9MMp5TsPpCt5smaacxyRljBuL8VdaNnuwMl8gcBzMLdwD3jx+hXeZmszg1pALi7uFI7Y28MbBA6V5DLurVV+LJCOZ5NdFt/DHk+1HOyGysaTE5tVXpCuOI+B8vTswMyOZuPWwa2zzf8AK1i2y9npw8Nb4W1PB0XW8fN1DHnyceI8xjx3ua4m/EEHxXsfGflL0jjTSMZ+m6bk6fFG4AtybcTsf6Trd9VryaXh4Q8r42SyPDrA3bXp2V4zJyxkYrMqCSTGdIGuZZAqj4Lllby8vUT8vK11DJjlmIZs61a85Het54h8nDezZqOmt7OB4DTFzF1Hre5PgtS0fTYpOJMfT9UyX4uLO7szNGwExk9DX1K4+Hx8MrZ3UMZ5Mhs9yuHk0rziTh+XhHWJtPkeZ2/Px8mq7SPxI6A7hY5ry4Os3Qtbi21GZxDRR71HHe12RG14Di51NsXutli0jEl4Sycx0V5LBbX8x2+q6Wv42Njv+KTTTmB0Y7VpAvneNg32n1KU91+V5rugw8sLeVkOovcOWUCtt9q6L1PSMHhx/D+LJqkkfZ4IEr2jYySgUBt6C5efazo2p5+DjcQZkPZ4jZRFCeh5+UkGh6AVaabh52oukxMJks7pD2ro2AOJ7r3+lYtvh6NGrPZnzKhx95QGcV5fJpulx6fpkLqa7lsucAQNzZ6WtRdK6ccr6IG+wA/BetYHwf8AjLXow6DhnPkYfO5mtNH6ht3q8i+C5xwXf/1bUOn7pVx7Ts/SY9Ps48vFJPzI5meaeipPlfIKc4kdV7nJ8FrjcxuJ4U1BwAv5p29K0jXfI1r/AAxIZNTwMjEhLuzDZm0Obr9PQFdZ4dZr9k4yaA3tQfzLi13eeu31qtjvymvJlfba8B1Wys4UmiNtZR6d6b+HZWi5G231brpGMscefDX3yucKJv6lTLyOhr6NlsbeH2uO8Z9ZVSPhds7uVsZv6SpbWfHaNZbI6+t/TuqsU72uJHKNv3Qt90ryR6rqklYemTag8tvsobsDbf6O761sMXwauNMlgfDwtqAB/wB0lYrc05bPzR5KcuUd4+yPcrfLlfPGGvdsDfm+b+C9ni+C/wAdPdR4X1Aiv3Cqh+C1xu4b8K6h9kol6bP5eDzN8wDmf1/fKlgPdDMS1xvlrzjf4r3N/wAFbjYtN8Kaga/3SrLTvgreUHM1CSGDhLUJCGF3LYZQsd5+lX6+OHat49Nnx5eUfGZHbEtP/hHuSdkPaNuX7IXuuF8DnylZUj2/knlY3Kwu5siZpadxsOXe91hdU+DL5RNMlMc/B07mg0H47nOJP0X0Wb1OHw19rn8vHciSedgax1EG9gAliNyIpCZHFzaqiAV61i/B048lkIbwlqMRq7LCfxV4z4NHH0hp3DOoEdf0an1Pf3jN6bP5fUV3lkwIxbcB4PT5zveqmN5Z8GSQh+I5grqXH3rzd8WWctrLHJe45B7lYa/kiPLbjMptecQAP9d6/DffZ4drlX2NeOOWPNj1TVfLXBh4bpsTTX50jN3Rtl5CG+Nn6vWvCeL/APaIY3CGa7Hn4FzZ+V3KTDltJW1YeHDLizF8TX3Gb5hYXE/lyhldxrJiYkWOxnNzFpiYLH01fevodL1Oe3Ln3VjdhjMO0dIZf+1N0H4qWN4A1OCbve/NY2x4bgj2Lx3yl/7QL8tcB2Hp2gZmkPdJzOnkyo5g5tEctBgrcg36FzRxViZen5gD8BuJEek0ZPnHw/14LAzZkzGbPJ3rzhf4r9Ph3x7vifXmHatvyvKLkT6jLnTTyyxyAjsnusAk3dfUfWqc3lLYGj813+C0lri6QuO5pKc+YNh18F3x8OGfVY8ttl8oYyW8oi3Bvonh8RQ6llwmeWTD+LOGQx8ZIJcNgNvpPqWmwyuicS2garoFcR6jPGSWubuKNsaf5JXny23O8yujdB+Fzl6LyY0+nHUY2R9m6SR1+bt3dPrWH4o8rWDxjKcrTdMfFITbmBpofWvBGAmSWWzz8hs3t1HcvXvJLxQMjAfgPZBLGxpeQ5jWkUQL5gL7+lrx7bZl2Sbc54yrA6lxvqDeZvxd0TfEsHuWjZuoTa1ntjcwtPNZPS/9Wug9SxeHtWZ2BmjflOO0Q2APjYXkfGHDsug6gBDI3n5rAAB2Vwt47uOeeWV5tatqeI/AyQ0eawt6elWhkc4blZjUckZsTRL58wO56bfUjRdOx8vIlbLHztbGXAcxG9jwXqw8MMVA4h5+hXAcSeqoZQEGc9jPNaB0Q2Q8wF9dlpFWRxDdj3oxskRZULnmxzhTysGeDGbO8/m3O5Rt30fcrbHxZ8+ZsUEInlu2gmuU+P8ArxXPLyvNdG6Jx5j8KcIjMlcwGgyLmjLhz9R09AK3ng/jDg7jfK03HzNajZr+W3lZp7MYhrjtvzO/l4rx3RNNdp3CroeInNlimHZtiZIWOBO43aQegKsvJ9wpqjOOcXK0nLODj4gMzHygSkAECgX34r527KzLyzc8pe1drz+S3hKfTY49R0vGxMiGUdoWTP8APHKf97buXmHHvwes2PSsnM0rJYyLtO0iAaHVHR23vvpecaNxXxazUOIItc1GbUsZ7jLFbGsoggA20A9CV6DkeW/L0rTsCGTUO2xxDySYpYyyza96vw715Lnlz5eDdnlcuOXh8XFup6S6fSsiU80dkvLG0a2rp6VhtJ4vOhcU42ox4MeoTB9FkjQQ0fvV07vavadX8m+k+U7TMjWeHsiHFyi0n4kZCXOPjuSf+a8cyeB9b4ailOp6U7ByOfk7cuJ527mqO3df1L2asrce9ccfDbOK8f8ALyTKyMXEZizOi7Voa8uJkFCgCdhROw2XnEuHJBGDI0wSs/NSxHqXePs9q2DgnUs3B4jifp8PxqeAdo5kkhprbALqv0j1q64uycXVuMmZM0LWGc8skbHENLvqXolqtci1XKbgvwhL/wBGePOZyjf66tUYAyKbGe5oLIHAgHegspxRpcemasG47Ozx3R2G2Tvt3lYtjow4NlFxu2cLqwnNHsPGPxXXNJ0jHiHJjzNaQA48rZKNO9Vj61Y+TfybalxdxJJi6ZHLpUmLGT8bDjUhDm777VusRqOtY0nDOFjYkZdK2ZooOJIbTv50urPIHHl5PD8MuZABE6HsA4MDTRINWAD3dV8/fnlM+1d8Os2aJ7cceVHRPhNcU+RDTHs1jhGfVtMxP+jGSKUMdI/qH2e6mu2HioY/+1K4dlLnt4L1UvHmui+MMoem1W+ER5PpvKBoMWj4fEGn6WGSiRxz3hjAwMcCL6l1uHX0rikeRbFwOK/yS/KrScjInJdHkYdPp90LJ7tz7F3023DvX19HqOeWHOfau0sr/ao6Hj4swbwNntdK0xgy5bQN/wDkuWvK18KF3lGyjOzSJtPgM3aDtMgSC6Iqvr6rQONvIbxHwxnOx8zHgMER5RLGA8SnqHb3WwPRabk6Dk4HmOYxpBrzY2j+S9+v9L0zrJe9btp3lPhfM4TxczeXYVW9jwTzuOu2aC2E9newpaLj48sEoc7GOUDtyjavTt/rdbHCwOxm8zAzf5hHRdHHPrJyvY+N443XJBYqlc4/HXPIPisPJI3cmr2+v6lhp8eN7ACwEWngtbiSudEA1xbyk1e31o5XrI9e8nPwm8nyd6zFlTYhz4nNMLoBIyCwSD84tP7vRdGcN/7RmfI0KeWHyaSCJkwiZlx6qJTdHbloDu6+hcJ5sDpY3PYAJBvddy3vyZcYs4a0SfGlaybHlO8UrA8c/juDXf08Vz29sOY9WvreMe1fSfh34TsOqaZg52VpMmnMnistfO19u27hv4rZZfhB6YcRr8fCkypL3ZHKGkDx3+pfOJnlOzcrJx2QubjxghjeWJg28Oi6Q8m2YMfT25uXUgmj7IF0bXiyQehFdy/Jb9+3HOyZV+u9Pyx36JnZz3r3k/Ce0xj3xS6NkMdy7E5LOqzui8YM4g00Z7Q+Nr3UA+RjvYBa8Iy+EcXOkGU58OTG812Bx2Nr02AD/wA1v/A+BFpbTCYmR45Zs1ra86x3jfxXzdvW54ZcZZV9Sa8Ph6RBxHDivL5QZGkVTSRv9Sll8e42NEHR45a4mrJJ/FYt2nMZCJg3zCa3JUWaXFnczDGHUOb/AF61x+/vy4544y9ouX+Uljh+iP1bKjL5VYNPaJH47pATy1Z/13LA6lpvxQuPKA3oFp2s588PKGOAHPVcoPcfQuuPV7cpzjlf5cLJy//Z;" vertex="1" parent="1">
          <mxGeometry x="490" y="20" width="400" height="400" as="geometry" />
        </mxCell>
        <mxCell id="LcdQc8iV-d25lG8Cdk2--5" value="" style="shape=image;verticalLabelPosition=bottom;labelBackgroundColor=default;verticalAlign=top;aspect=fixed;imageAspect=0;image=data:image/jpeg,/9j/4AAQSkZJRgABAQAAAQABAAD/4gHYSUNDX1BST0ZJTEUAAQEAAAHIAAAAAAQwAABtbnRyUkdCIFhZWiAH4AABAAEAAAAAAABhY3NwAAAAAAAAAAAAAAAAAAAAAAAAAAAAAAAAAAAAAQAA9tYAAQAAAADTLQAAAAAAAAAAAAAAAAAAAAAAAAAAAAAAAAAAAAAAAAAAAAAAAAAAAAAAAAAAAAAAAAAAAAlkZXNjAAAA8AAAACRyWFlaAAABFAAAABRnWFlaAAABKAAAABRiWFlaAAABPAAAABR3dHB0AAABUAAAABRyVFJDAAABZAAAAChnVFJDAAABZAAAAChiVFJDAAABZAAAAChjcHJ0AAABjAAAADxtbHVjAAAAAAAAAAEAAAAMZW5VUwAAAAgAAAAcAHMAUgBHAEJYWVogAAAAAAAAb6IAADj1AAADkFhZWiAAAAAAAABimQAAt4UAABjaWFlaIAAAAAAAACSgAAAPhAAAts9YWVogAAAAAAAA9tYAAQAAAADTLXBhcmEAAAAAAAQAAAACZmYAAPKnAAANWQAAE9AAAApbAAAAAAAAAABtbHVjAAAAAAAAAAEAAAAMZW5VUwAAACAAAAAcAEcAbwBvAGcAbABlACAASQBuAGMALgAgADIAMAAxADb/2wBDAAMCAgMCAgMDAwMEAwMEBQgFBQQEBQoHBwYIDAoMDAsKCwsNDhIQDQ4RDgsLEBYQERMUFRUVDA8XGBYUGBIUFRT/2wBDAQMEBAUEBQkFBQkUDQsNFBQUFBQUFBQUFBQUFBQUFBQUFBQUFBQUFBQUFBQUFBQUFBQUFBQUFBQUFBQUFBQUFBT/wAARCAGQAZADASIAAhEBAxEB/8QAHQAAAgIDAQEBAAAAAAAAAAAAAQIABQMECAYHCf/EAFIQAAEEAQIDAwYKBQoEBAUFAAEAAgMRBAUhBhIxE0FRByJhkZLRCBQVMlJxgZOhsSMzNELBFkNERVNUcnPS8CRi4eI1gpSiJVWV0/EmNkZ0sv/EABsBAQEBAQEBAQEAAAAAAAAAAAABAgMEBQYH/8QALBEBAQABAwQBAwMEAwEAAAAAAAECAwQRBRIhMVETFFIGIpEVMkFhM1Nx0f/aAAwDAQACEQMRAD8A7Cc0NGwSrcyMrFyWBsOMYnA2XcxO32lasgDW7L5j6BUCaQsojfqgFlEGypQRqkEq0KCYCyoRSNRGiii4kDaMyHwCW6Wxh5MmPKXRkAkVuAfzRKwB7yf2V34pgXE/srvxVh8q5Q/fb9233KHV8odJG/dt9yIr3E1+pMfpNpRv1W3lZ8+XGGSvDmg3QaBv9gWrVIGYN9ozJ6AmNj+iO9ZTY2VLiSF8Tg1xFWWg7fath2t5lfrW/dt9yDUHMT+yu9ZUcLG8Bj9JJW2zW8wn9a37tvuWPL1HIyowyR4c0G9mAb/YEGs9oA2SIlxPVQCyjUBRNQQIpFBRRECyjNFgsrI1gcdwsfzeiLXkHqiMww5Zzy48ImeNy0kjZOzQtSnPK3EZGRvZcViZkSRm2PLT0sKSZc720Zn1fc4hBtM4c1GM3JFGR0+csWZpk+HEHyxsa0mra691qSOfK2nSyEdf1jvekawNN8zz/ieT+ZQEikG9U1WpVLNagO6JSaT1aVwFIpWk2mu0KpRBFlx8b408s5xHQuysShHMO/7DSDfj0a3b5LenoWUaGD1yG/gqoN5TsXe0Uzbvq71lWCzOhNH9IatbN04YcQeJQ+3VQWq8kD5zvWUlk9ST9ZVEUUUQAmkt2md0QAsrNRALKj9hsjVIOFhWIS7TxAOcb8EtBFp5TY2Uqxuukc4Ua9QSP3G6FlBxNLSQKCLQLQBso3SFNQQIpSyoN+qERvVGrUqkUAoIjzTsooiGDiT1TDfqsd0jzEIGeKCRRziR1S2UDIVaANlEmkWCNuih36pbKllFGgi0C0oNlNdIokUlq0btRGaFBSqRURAd0Qb1Rd0Qb1RYJNIDfqi7olukU1BAilLKF2gIFlQikLpS7RQJpC7Rd0SrNBAso0EG9UyAUFKCKBNKwQikLpS7QUBO/VCgoTSANlAaClBRQmkAcBSWqRu0CaQQmkt2pdqIggWUaCDeqZFZgLKjgKTloHRLVrTBapMwWd1KCLRRQQtA7kKpM7ogpQCaQBspgL6o8oHckAAspqCLQLRIpULQQIpFSrQJVqUExFIKUFjQSi9oA6KM6pyL6pBhoKUE72gDZKq1AqkQLKil0iUSKSk0jdoVaIANlMhVIqUCrUO3RFCrSADfqjQUqlCaVAIpQCyoN+qNUgBFIJndEqCVaBFIqVazWoW6RBsqUEapWJUQd0RQd0UWFUURAsooValUmoKUECoO6JyKSO6IAoBfVRFvVAC0DuSkUnd0S1aAN6ok0pVKVaC0yMDIx2B02HNjsJoOk6E+C1ntAGyyzZk8zQ2SeSRt3T3kj8VhLieq3WAUulFFARv1RoJbpMzc7oJVIgWUaCNUgB26LNh4subKWRNa9wHNTjWywPNBLy8+xLh/hcR+SC1Gg5hP6mP20fkHL/sY/bVSYQOj5fvXe9KY6/fl+8d70FhnaZPhxB8sbGtLqtrr3WkGglIxtH5zz/ieT+ayN6oNjCwxlSlnOI6bdlbvyLXTKhH+aaH4KrJI6Ej6kOY9/neh2/5ozVqdFJ65mD94fetfM00YkQf2+NLZqoXElaYIJ+az2AoTQ2DR9TQEWAWgdyFBRxNKM3O6KBFIAWU7xQSXSAkUgpdqIIniaHOIO+yRFri02NlkbmLjYskhGTOcZlWHjez4La+T9HP9aO9kKpce0FOpw67hKYmD9xvqVgtnYujY45jqDpL2oBa2YdOMQ+KTOkkvcHw/3S0mgRm2tbfpaCo6QuHRo+poCojuiVS7QJpSgPlZCOZ/TogzNgJ3A9arOI89un6d2r2GTzqAHcaK+Lah5VtQxtZEEbnNi5q5eRp/go1H3/t4pdmDfqoqPhXVotV0yOXsS3IItzyTuPCuiurKsSmWXHMQee1FtrxrdYQbKjmhwoqo3e3wIfOdj9qOlBzveodQ04dME+273rTjHZOtux6b7p+2cfD1BGo2BqOnk/sJ9t3vWPJy8WaMNgxjC+7LuYnbw3KxGZw6V6glfK54okV9QRS3aFWooTSAEUhdIOJpAGyga7UUAsokUs0KTSLJRG63xmVv0QhVp4pXQuJYQCRRsAoM12oootMxFFFEKiLTRQRb1QhwbKKVvVMhUIvqloN6Ik0oN+qIg36qcoKNUogHKB3I1SBNJS4hFh6tCgk5z4ohxJ6olMduiF2pdoKVYIF9UQ0Dog3qmSFBwsJCKTu6JHdFSAoooiiwWd0/IPBKzqmJpEpXANGyA36ouNhBvVERwFJaCZ5oJAbKLEIpCrTO6JVmq0Na092oYJiYLIPN+B96+QajwPz6xzmGyDd7r7g2V0IcWGiRXS15rL3zC4gcxPWkVv8ADmIzE0uOMNDSFZ0FiwWjsQa3pZyKViBVKIE0oDZVBUUQJpER3RKjdoKVYilWooooOApBoFrI0Bx3Uc0NGwQLVIO6Ik0gN+qAAWUSKRqlKtGazkUgi7ogjQsFndMWgdyQGuiYOJ6qxmgRSF0i7olJpVYdhspiaWOI277Fkd0RKF2pdIKE0iGBsopGGynUoDuiWrT1aFBIFoKVSagoRSoVRECyiRSzQpNdEOc+KjuiAFlWA8xPelcTScNBKj2gDoqEZud0xFKMAtM4CkCA10R5ie9MxoJ3CL4HPFR7OQY7tS6TMxpGG5N2oyjkbbYzIb6BSrCHfqhVIdpJ/dnfimY95O+K78VAKtAik5c8f0V34qNc5x3xXfiiwI2h4fYumkrx+TldnqbhIbZWw9K9m5sxa7ssZwNb9TsuYPLl5WdS4D1P9BC93PJ2YYGA0aJvcehErpDAyY5YQGdatbN2vkPwaeMtV474XytS1QOnkbL2bAWBnKP/ACgeC+yMsnfEd6yjNrDVqNAtbHxczeaMeZnfcQ5j+Kw5mNJjRteBkM86j2zAAfR06o1PSw0WHBlyntznFkXIeUi/nWP4WrH5F08vc6OR0za2abFelaXDmpRTZRhbo/xiUMJ53PdXUb9V6jPx8xuHFJJD2WP2g5o8drS6qPXa6/6KwrxWdjxwyEMbQvxWqRSvtawocktmxYc1sd0fMB3+1VfyZkO/U488ju8TtDRX1jvUqxpqLcGlaiT+ws9sp2aRnk+dp7nDwiNn8UVpNNFRxsLek0jPaLbp0rT4ymgkbpWoOPnae5w8IjZRmtF3RC6Vj8j5p/qzK9QQfo+aBtpmV6gixos3O6cNBK2maRnX/wCGZXqCyfJOcP6syvUFmpW2MPR3bDWGv9DYXN/EpZdN0x7ai1Vwdf0R0VQbcKc5zx4OcSPxQErMY8xa0Xt0WkW0Wmacx1y6s4tr6A6+pZ2afo5P/ijvZCo3Z8EgpzWkdeikb8eY8rS2I9bIRYvX6fo4H/ijvZCxuxdGhHM7UHSjpQCqHwxV+0M9QSsYyM23Ijv0taUaXDfkMH9oyD/lNs/imd8h1+u1D7oe5VIkrplMafFrWj+CIlceub+SzbUWg+Qif12ofdD3I1oR/ndQ+6HuVbG++a83oPEKk1PVcnHd+j1Hl3ro0/wVlHrmt0IH9bqH3Q9ybl0c/qvj0zvolgG3ivn7uIM9o21P/wBrfcl/lTlQedPqBlYdgG03f7FKPoXZ6f8A3bN9SIj04n9mzfUvng4qly/MizZInDey69lsYerZcs3K7VHkV4hOUr3nZad/ds31IPj08DaDIb6Zdh+CpoyXY7XHPfzE9ecpHnbfOLv8TrVlWLgtwR0jHtH3otGC47xj2j71SCj1yx+CIDR0yx+ClF26PAr9UPaPvSlmAOkY9o+9UzpmQjmdOJR0oJRlMmPKw79eqsFw+XAxxzHH7S9qDne9Nj6jpPOe2wC5tbDtHjf1qpjkcx1g7137rIZnv2JBH1BVKtp9Q0UsHY6cWuv+0edvWsDs/Tq/YT7bvetGORzTYr1BO7IfXUeyERtDUNOHTBPtu96I1fBi3ZhEHp85x/itF+RIBsR7IWnqGfPFEwseAS+vmjwPoQXLtaw5RTsMkdfnH3oxa3h4zi6PDpxFbkn8yq2DIkdCHEgnx5Qm7d57x7IQW38o45vNbCIj1shLJrD3N/ROaHf4B09SqnuMop2467CkrWCM23Y9OqsFk7Vsqv1jfu2+5AavlDpI37tvuVfzuPegXkd6lFi/iDOx4pHRzNaS0i+yYf4Lhf4THFWps4kJGQyzLW8LD3O/5V2jlyOGNIb/AHSuC/hAvy8/jd7BDLlwwuMsjImiw0WLPosj1rpjPDNdC/A017Ol4FzS6VpPbf2TB/BdAza5nRM5mSRmuvMxo29S5N+CDxViaJwXqjczNYZXZF4+GxtyO/5T6PT16L7xDg6vxa743qcBwNOBuPBY4tPN3PLh53SxV1v06LOXtuenoMzyg5OSfimA05Ga08z2taGhrOhdY9JG3pQx58zOcHZupvyANxhuaAGH6VgX4j7U+Dh4eDHyY8Qjlqi4EkkeFn7FnbExry4NAcdrWVWGPrmbix8kUwjb02jbfrq0vyvmhz3fGZLe3ld53ULTWPIeWMBaaNoN6LU8uGDsWZEgjvmrmvdB2pZTxRnkI9JVfjyue8hxsUsxNIjY+P5A/nn+tQ6jlN+bkSNPi1xC1rKV7iAixt/KOW7Z2TK4eDnkqHUMlvzciRp8WuIWjzX1kEfpKdga7mvKbsL7kG18pZn97n+9d70Hallkftc/3rvevO5uouxZRea0NuqpvuW/DlRZEDS3KbzdSdkVYjUssdMuf713vR+U8z+9z/eO960BRP7W31BGm0f+Kb08AoOfB8LjEJ/YpPY/6pZvhUYuoRmNuLJG4ecDyD3+ld0/HcQfz0PsN9yhzsUdJ4h/5G+5WuT894/hHam/PcIocjJiraOLHBI3G+wJVxkeXbWcjDZ8V0HUZ5uYWBivdtR3oNHoXd79Qx5GgHJYADfmgA/gmdqkTmBhzAWjcA0rDl+f0/lp4uewCPhnUw6/7jIscXlh4zkcQeF9Zk26Q6dK4/g1232L9AvlOCPduUwHp0Cnyyz++NH1AKnLgWPyocd5ruTF4R4hMg8482lz9PufqWVnHflKJ/8A2fr/AP8ATJv/ALK71+Wm92fy/wCEgfkgdbA6ai/204hzXB7eO/KUCf8A9H6//wDTJv8A7Kwv4m8oWW7z+COIZT1puBMw/jEu9H8RiAcxzXyA7UHpP5WxnrK53oc6/wA1qSM81wa3V/KC40zyfcRSnwdA5o/GNv5p2ZvlGyDyjyda9HW9mO/4Lu53F2M0XJlOx2/SZ1PoWOTi/T3to6tkfY4hOIstcNNf5SAduANcH1RD3LNDkeUyN9s4D1hhrrLHQ/Jdt/yr03/5tk+2VP5W6c3f5VnP+Ik/ms2RqOMm6t5XpGiPG4Gz5XDflLaoePRPHJ5bMt3I3yf54IF+a5rf/wDQpdljjLAabGqTA+gKP4x0+QU7VJnDwItakiuOfiflvH/8B1L76H3KfFfLcOvAWoj65oB+fL+a7DPFmmD+sZPZCA4v05ptupytPoACcQchQY/lyDz2Pk+zpnVu05GP08dnH8lc8Px+W5upxDUeA59PxXbOlmljeDv0pov/APC6m/lfiSbR58szvok19qh4ujha5zZn81ULeT+anEPL5wyGeCONmZH2GXy2+HwTXS2tUnOoaq/JeedxaRzfaFh5B4KAR7u38EzxQUa0A7Iv6LNWMMppv2rQ1DzomX9MfkVY8odsd0smNFKAHNsA31KFHGYPizdkxaB3ItAY3lGw8EatEYzt0UG/VPygqcoHcrAtBK8UE79hsl+d1VGKRrXwTBwu2GvrXOHFPwfMzyjcWZIinfhhzC6WRr3N7SOwCzY95IP2LpMxtI3CVuNG1xc1vK47EgkKcjxfk58kWg+TTR48XDwYBlt2dK65HEd+7ie8Be2bK8OvmN1W/gkGPHG7naDzHay4lNVLFrUIIGNkMgb55FE2mIpMg7otT0lACysWUB2Y+tZLpB7Q8U7cJVjXxhTz9S2atK2NrDYFFMgFBB8fM0kGuUFx9OyZYcpkj2NERo83nekUUVy5rnlt4x1zjvK4W0HEl1DNE1Y8DGxsutq5i30r07MTy+CNzJPJtMMhh5XMhy43Ejx3/wB7r7zwf5NeCuHOIxxFDosbNb3Pxp00j97Bvlc4t7vBfRTxJgxumfJO6Dtn873tO7nfwHXZbnpzt8uL9T0Dy45Mbe28m+fD5184yYdzR23IC1PiHly05rXN4HzmAnl3kgf+DXErtyPi3ToXWzVJgarxUn4u07IaGv1WcgGxRrf7EpHG8cXltMDXHgjM5j38o9ySd/ltx2cx4EzZATVAD3LswcX4AaGjV8mv8RRHGGA07avkfa4qK8HzO+k72iiCT1c72inDAT0RLAOgWRjNj953tFDf6TvaKyhoPUJmRNJ3CDBXN1c72ipyDxd7RWyYmDoPxQ7Nvgg1+QeLvaKDmCurvaK2TjmTaPY9Uj8eWAczmGQdKCDFGOR1gm67ySsnaO8Sg2OSY8rYTEetlOMKcnqfUicA2ZzTdg/WAU4yHnqGewPcldjywDmcwyA7UErpGsFyxPhb9IC9/BOWpGQzOHcz2B7kvbuPcz2B7kjZonmohJM76JbW3inYXE74rvWUE7Z3gz2B7lO2d4M9ge5SRzGNuSJ8Lb+cATv4LGJsUn9ZL7Ccod0zq6M9ge5ASuJ6M9ge5NG6GR1Rtkmd9EivtWQtrpiO9ZTkYXPLhVAfU0BLyh+xs/as9H+6O9ZU3H9Ed6ygxVyjZQGys7YX5B5RAYyN7NonEfB5zozIDtQQYLpBxsLZZA+c8rYDGRvZtONMefnNlcPCJoJQabBZTEUtv5Mc3pHm/dt9yg0ydxqLGzJnfRLANvFBpPNDZJznxVl8j5zuumZXqCB0XNH9WZSCvDiT1ULiFvHR84fN06Vp8ZTQ/BFmhalkHlGIyMjey4oK8uJ6oXStBwtqhP6qP2kw4Z1CPeSGMjp89ZtFTZUsq4Zw9lE7wR+2VJOH5WNuQMhb9IOvfwVgp7tRWnyIB0yoR/mmh+CZmh2d8vB+8PvUoqCaS3aun6EK3ysY/wCU8k/isZ0MDpkwt/zXUFY0qVFbDRLP7Zg/eH3phodn9rwfvD71UU6iuDoQH9LwfvD70j9EoftWMf8AKcSfxRFUiHlm4NFWbNDBO+Q38EZNEhaLlzexb9IAHfwRqKlzi7qUOYt3FH6xasjo+CP62d7A9yjdGwXHfVnewPcs80VvbO8GewPcp2zvBnsD3K0Oi4A/rZ3sD3JTo2CP62d7A9yc0VvbO8GewPcgZnDuZ7A9ysfkfB/+bO9ge5T5GwT/AFs72B7k5ozu1HTmjbBPtu96X5T08/0I+273rWOQ89SPZCHbP8R6grGW23UtPv8AYT7bvej8p4DemEfbd71pGd46EeyFBkPPUj2QpRujUMKc8oxuzI3suPvTdrifQHrKr3OMop2467CkvZN8D61uehaR5WNE62tANV1KyfLcWL5/ZiS9qpU/ZN8D60zGiM23r6d1KLV3EMWUOTsRHW90h8pRDwVY/wDSCndOu2yTsWeB9ZQXDNXZGbaRfpFpna3IR+jLOb0xtO32hUvYs8D6ymYwRm27Hp1QWr9YyiPnRj6omD+CUavlDpI37tvuVfzuPehznxVgshrOWP32H64mH+Ch1zLHR0X3DP8ASq3nPig55rqpRYu13Mr58Y+qFg/gl+XM0/zrfu2+5VWRlDHj53bjp9SosvjfSNOf/wATqcTCTy8hI2P+wg9j8t5n9q37tvuU+W8z+1b9233Ly2NxXpeUA6LUI5L7gQrITB8QkjnEgO1ABBayazlvbRlH2MaP4IR6vlsdYlF13saf4KsZK5xom1kaTaCxfrOY8UZRXojaP4JflXLHSYt9LQB+S0S4hDnPirBv/K2Yf6TJ60PlPLdscmUfU8habHEndNdKUbR1HLHTKn+9d70vylln+lz/AHrvetdxNIA2UGwdRyq3yZXehzyfzWOTOyHtozPq+51LG7okd0VgysyZif10ntlSR75m0+WQi7/WH3rCDXRHnPirwJ2fL0fL9473ogEfvvP1vJ/ioHE9VEEJ8fO/xb/mgHV0az2B7lHdEE4BLyfAf4QB+SUuNb+d6Hb/AJooVaCNIv5rPYCJdXRrPYHuQO3RLdosNzk/us9ge5AuvuA/wgD8kFEXgQSOjnesoiRwPW/r3SqIp+2cfo+yFBM4dOX2QkQJpOBl7d5+j7ISumdX7vshIDZUd0WbA3bO/wCX2Qp2zv8Al9kLGoozW1QUoIqKoVwFKNAtNVqVSglUoootQECyjQQb1TKhSKQTValBAqiJFILNEUQJpQGyrAVjnZI9n6I0Rudu5ZFO1dF801zbHbuVHz7yn8ct4T4Sz53yhk7m9nE4gbPIJGx+orhLjnijUtQyMeafKnmyJpLBje2Px9FLp34SA+PYnxSYl+OJw8MBrcNcLsb95XHXEeQ+bUhFJyyRxCmNewHl/BfteldP2mGx1N/utO5f49+PDllby+pcI6X5T+wbl6LA7MZy7xunieQ3begL8PWvc4Hl34+4MLY9b0HMx4h5hlETXAnrXTwB9S594b1LUW6pjR4ubkYw5hzfF5DHbfDza26L6jrXle4n4bzcTTsHVP0UlNezJx4six3/AKxriD6Rus5aW13Gc0tvp8cyf7rPNfd+FfhT6JqDxDqD5MSblu3sAs2NunpX1LRvKZo+pRiUZURicNiH739S5OEmn5crc7V9Hh1cPZ57ATBy9POHZlu/dXTdeel1bgbS+II8mHU9b4Zin/4cHs3ZEAcTdedzH907+hePqPQNXbaczjcvh3ti61hZg5opmyCroFbDciKU0wb9VxPmeW6fyf5sUWh6/j8Ute2nMZBySsZ1LiCKoEAfaF9N8n3wmNO1zJbj58s2DkllkiIEE2BXT0/gvnZ9N3H05q6ePhp0c00U1lami5Mep6ZHmw5HbxP2FgA/gtygvkWZy8ZzirAu1LpGgpQSKVxNKMHMaO6blBUADTsoCWNHclLQO5ON+qjgKVgx1SIFlGgjVJQrxQSJ39EiQQCyiRSF0pdpVgO6JUzuiVICBZUIpC6Uu1ViIE0ig7opVCyiN+qVG6UBO3RC7Uu0CaQRRAGyiiNmymZud1ll0+ZrQRY3WL4vLD5zzt0WmTUFKCANlZIwHO3QYyKQWWZoa0UO9YSaQM3qmWNpNpgbKBlFFlx8ebJeWwRCZ4FlpNbeKDC7olVh8h6nP5rcRkZ62XFA8NaqP5uP2kWNCrQO3Rbc2j5uC0SZTGCMnlHKe/8A2CsPID3LJWAuIWGZz+aHlPm845tuooqyxdPkzpDHDF2rgOYgSBm31n61sScO5jG74oYDtbshrvy3VhHOvwj9DldijOxoS/G7QBwFmjyu3/BcfHgHXeI9RzcrSMRmpNjic6THc7lMbbFvBG5INCvSv091Tgp+t6ZPgZWFDkQSNNtMhFd12DfevgepfBV1DQtTOocM8Qx6TMH8xx5DzNI6kW673rYr9dsOoaP2n2Ov/bzb/Lnl7cl8DcI58eXLkZWK6LsWEnnBBBsdyxv07I4h41fIT2kMURLRVU4OaO77V07xFwVxO+eWXVOGsjVnCMxzZ3D3J2wj73GE0xzdh80B11Rq7+cN0nRdFyns0fHOZlOPK+DNn+T9Qb4k481tc2wN2uBsitrX0un6Oz0d7MtPPnHw82d8q3MnGncPZBealMZY0/w/BfKMjg7i3WOHXZWLp2RLB8YBMkEznO5ad+6TQ+tfXeKuHdcytIkf8mSRtj/SOimx3RFzaOwPO4HqOhXxXC8qXFGiZ0uHpuTk6PjNtsmM6Nr2kXvu8E/ivtfqjeY6vbp6N8cRJa1eEjFhcUY+E5uYzOceWZuS3Ys7xZ360vvPDOczStTY8RwiMShjuaFh82iasj0BfKuEIMjiDil2p5ru3ibCXMJFVJzNo7V3c23RfQppGQlhf8x0g5t+por9L+l9vjl0/LHWnd79+XDPPKX2638k2s4+uadPPAfNjdyAA7AfV0Xvl8v8gHD79B4MkdI0h+TKJGEk/No/9F9LdI4cu/ev4v1eTHeZyPboW3DyyE0oDZVhDgY+RAO1nOL39oBd+jf/AHsm+R8Ef1s72B7l8iO6uQJpWL9JwgNtXd7DfctfJwsfHjDos45Tia5C0Ch47KjWaTaN2pVKIATSUuIT1aVwFIFsu6qEUjVIO6IAogTSy4hj7Q9sOZteNboMTuiVW0GRpkDy6fG7ZhFBoe4b+OxTzahormgRacQ6/wC0f09aCmRAsqwfnaaBtgH23e9YMjKxJmBsGMYX3ZdzE7eG5QaxFJXdE7uiWrQKBZRoI1SBNIIRSWrTDfqoRSNQtUooskE8OO8uni7ZhFBtkb+OyzVWDtRyHCjID/5R7ljlyZJm8r3WLvoAsINlFaYMwWVkbsdliaaKfmIQO/zhusT2gDoi55rqhZd1QK0C0x26KVSlWgANlZoZnwvLo3FhqrCxHbokc8tGxQbOTnSdg90uS+NjBzXzUvk3FvwidE4VmML8szSh/KWiU2Ou/Ver8oGccbhucucRzHlFbb0VwjxxwX22pzapLj5OSZJOz/RPcTvZ6XXcuWVvL7HT+n7jqVunpSTj/NdN5PwtdBMY5pnxC/nc3N+Btaj/AIXXD0A5nZT5QdqDB7lyppvDuBHOTlYGoRxltA8t72P+q9hw75MYdeyxHp+nahkP5eYsGNz+bY3qx4hJXXLpWWGVxz1sLZ/v/wCPusvwweGZWgPc9wu/mhY2fC14alNRulY7rbRR/BfHs/yL6hhaxGx2iaiMVo5ns+IdR9fNa1NO4ZwJWZbodEyYnxS8nNPjuY2t9r5jvsFqN47GYTi6mL7/AKN8KTRMvKeyLIma4MJ89xAqwr3H8v8AoeqzNhmnZV2C4jr/ALK5li4d0/VZziv0/s3MHPbXOadtu4+lbMfk40svDvir7Z5zT28mx9peTV18cMu2vsdO/Tuv1DUv0ssbHamj6pg63iMkx5GSj5wA7vSsPEHBmg8WYwx9a0fC1WFrucMzIGygOoixY2NE+tc/eRziTUND4tgwZMl3ye9hj7JzQd+ZveRfce9dN47mzxyyAeaHgD6qK9OhrW492F4fA6l0fV6Turpa/m+/5fNNT8gvDYxHDRI8vQ5mnmazDyJXwn0dg5xjH+INvarom/KcXfB3bxHwVJFNo2mZWrMlD25kk8kMrmhrhXKxwb1I7u5fegwWCC5pG/muI/JZTKQ4Ophd4lgP8F9HS3etjnLnO6f78vjZ3DO84xwdi8A53AuF8V1PSsvS4+25RmCN0kPQ+a525aNiebfp6V9D4V8jONxycQ4usxZgZIJZmYhdJDyDYjtS1vnWRsPT4LqiWMZEgfJbiNwLIA+zonlb2wp5cR4cxX62fqbW0tD6WlO3/wA8PPljOfTTw9Oj0fFxMCBoEGPDyNo34d62AATv3Jw0Mj5B82733UaBa/F62tnuM7qZ+664SSeGVuTJy8nMC0dxAU7Z3/L7ISVSi4xs5lcevL7ISveSO77AEFKtUAGyoTSZjQSmcwV0QYrKl2me0AbJCaUqxCaUb5x3QG/VT5vRIUXtAHRY3NBCcuJ6patUhWAA+9ZY3ljrFA/UElUoTXRSlZnTvI6j2Qsb5HOFGvUEnMT3oXaQiXaiIFlQilVKTSg36qO6IXSBqpB3RCypdqVQRa4tNj8kCaS2VBtE10RY4k7qAX1UcOUWNlpgxNdEA4k9UocT1Rb1QNdqXSiBNIGspXuIGxRZud0XNBClWMXO496DnEjqme0AbJQL6pCvKeUuJsvCGY5wsxjnYb6GiL/Er4HNjRz8Nse9tu+fYJG9HwXS/EWkM1nQs7Gc3m5oiQLIsrneaXD0bBy8DWYZcRkYPZTNBNnub6rP2Ly6mOUz7+fD9/0TH6nT9bDTnOf/ALw8BHK9uO+TmJe11Ak2ulPJhjYuLiYmQY2iR+NZLt7PM3uK5s0aMatmSQx8zcO+YSEDffpuQugeDtTw8HCgZlTyvbEzlYImssbj/m6bL06e507j6flf6ZvdD9tw458qji3yj6ljcda5pzNGGo4zeWGJvZhoiBFl1gAnp3+K+S6vk53DGTNFjYTMFuRJzvmA57O/m+ddeP2Lo+TiThrGmzsvI+Ntmy2cj5GwxkvPcPnbdO5fCPKLpWfrRazSMTNbj9uJO0cxjiRThW7j4rd3Gn8OWXT91lebgreHgMzVcZ0wDnSu5Xmqsde76ldalEzFyMhsTeVrX8oHXalrcM6NNopZkalHJDyN8x+QA1vP3fNPWr9CbUtUxcjIeBPG5z3WeyslfB6rljlhM8fD+o/o7p+vo362ecxnw3eCsKHI410VsjOZr8kBwsi/Ncf4LpvCaIoI2M2a/mc4eJBAH5rn3yb6BLncT4mRC+Rxxz2w5mUB0F/+5dEyMa3Jj7IcsLYyK6+cSLXq2X/DHxv1xqY6m+wywsvPE8C7zRsl5ie9ZCL6pHtAGy+ljnlJxK/nGUkysgcxCIcSeqUCynaBad1Y4iXajeqNBGqV559qiiiiAPNDZBjiTui4WEGiigyxC3fYjN5rRXilaaOykjiW7+KDE5xI6pbtOBfVB7QBsgW6Uu1FEEQJpECyi4CkCWULtNQQIpAFEQLKhFLIF0pdqKIA7olReaCDNzujURRMRSVWJUq1KCiIFlSrG1VKEX1VhkaYMZgcZ8aUE1ywuJK05mBjQQKNrdZY2sF9E3KB3JGk2msqA0FOUFAGyiTSCBoHRSrSlxCHOfFAzmghLygdyLSXHdbGLiDLkLOcR0LsozWt83oqvU+GtL1lpGbhRZAPXmFfkvTO0aJo/S53Yt+kADv4KR6XpzDcmrOLf8A9yXzOK7aWrno25aeVlvw8BD5J+EYif/gePI078sxdI2/GnEi/Sth3k14V5A0cP4DQPowAfkvaZeJgRRg42YcmS6LCKoeP5LWbG1x3CxNPCeo9V326vvVy/mvKR+TfheJxLdBwSarzoQ7807vJ7w04UdEw68BEAvX4+LiSPIyZzjMrZ43s+CzSY+j47eY6g6S9qATsx+Gfvdz/ANl/mvFQ+T7hzHeXR6NiscRRIZ3KN8n3Dva840mBr/Ftj+K9iZNFH9Kf6lhyH6e5gGJM6SS9wR3f7pTLSwynGWMqzfbqetTL+arsHTsXTWkYuPHCCOXzW719a2WAAUOnVRS6WscccZxjOHnz1c9TjvytNQULQeoQsqWVpy9gWAdApVKXaiAgWVCKQulO1ZGQZN2k0giBNKzdJgQ4rZHY/aEmqD3e9YflDTj/AEE+273oNJvnHdMWgdFuN1DTgf2E+273pMjKxMhgbBjGF4Nl3MTt4blBq3SDjYTP2GyUb9UAb1RcLCDvNGyAcT1QAikEXdEEEukRG+Y8rDv1Sk0nx5nxPJaaNV0QEY8sO7mGUdKCji6v2V3rK2BqeTCeZkgB6bsaf4I/Lmaf51v3bfcg1Wl1/srvWUXAkbwGMeJtbPy5mj+db9233LFk6nk5bAyV4c0G6DGjf7AgwPaANkijnEjqlsrNWGIvqgGgdFAbKhNKwGrQoKA2VCaVRCKUZE+U0zr1SuJpNFkSQOLmOokV0BRqM7ZXA7co+poCfnMmzjYQawX0RoN6IyDgGjZAGyid+qlUghNdEvMT3pqtCggg36ohoJUqkW9UAcOUWNkA4nvP2JnCwhVIC1xabu/r3SzO52gODSL+iEVKDuqDHEA1xIABruCzCRw6FLyhvQKKUF57QU6nDruFj5Wx7ta2/S0FOpQd1SBWu5ju1nsD3JtvotH1NAU5Q3oFEoBNIWU1WoGglIIzc7okUiGgdFHdFQqiIFlGggAFlLNCyVoDhYBvqnqlHdEAY8xtpvTwO6btn+I9QSKIHM7x0I9kIGZ79iRX1BI7og3qgLyaScxCdwsJaClEaeY0d03KB3INFFMkCvFBInf0SKgVaI26KKIsBxsKMFndSrRG3RCoWgdyUik12g7opSFq0CKRQd0UaC6Uu0FFYzRulLtQCyjQSkI7ogncBSFBQbd0pdqKLSIooogiiiiCKXSiiCXaiiiCKXSiiCXaiiiAE0o0m0atSqQS7UUUQRS6UUQGyg4mkQLKPKCgRpNpgbKPKB3KHbogKFWgDZTIBQQIpR5obJOYnvQF3RKTXRRxNIDfqgnMT3qA2UaCB26IGukQbKVm53THbogjhYS0EbtBBKClBQmktlASKSk0o4mkt2pQbKF2gTSFlRqCTSg36qDfqoduiKhFJVHE0gDZViGb1RJpC6Uu1VS7UAsoI3SzUbINlFWB+IjpGPaPvQvC/sx7R960y0QLKNBb3NhD9we0femY7CJ3YPaPvQV9BAilZH4kP5se0feoPiR6xj2j70FYiBZVi+XAgHMcftAdqDne9J8oacP6Cfbd70GiRSC3/lDTj/QT7bvep8f07+4n23e9BoKKyi1LSmOuXAJbX9o7r600mp6O8VHp5Dv8x/vQVgFlMGglWMWo6SxxMmAS2v7R3vRn1XSCwdlgEOv+0edvWgruQeCnIPBbXyngf3I+273qfKeB/cj7bveg12RtJ3CEuOXtqPZ1raGqYA6YR9t3vRbrWHGbbhkHp84+9ag0Bh5BPU+oJviU/ifUrBvEGLf7IfWU3y3jzea2Dsj1skqUV8eNJG65N2oyjkbbYzIb6Bbr86CQU4AjqpFnw4zi6MAOIrff81GarhI8n9ld+KYOeeuK78VZv1p7xUbmh3+Ae5J8r5Q/nG/dt9y1BoW4f0V3rKnM7+6u/Fb/AMr5f9o37tvuQfrGWBtI37tvuUqxXSNmkbUeM4G770IoZ2OuXGcW16eqsW69nRG2ytB6fqme5R/EWoSCnTNI/wApnuUVovaQP2R3rKkOO7IcWiAxkC7NrbOuZp6yt+7b7kj9Yy3DeUfYxvuQI/TZQNgVjdp0lbtld/lNBKc6rlHrIPZHuSu1TKraYt9LQB+SCR6bkF36LGzJnfRLANvFZBpWeeum5XqCwnU8sj9plH1PIQ+Ucsf0uf713vQZn6TqAHm6dK0+Muw/BJ8l6l/cWe0Uo1HKd87JlcPBzyVDn5A/nn+tBlj0TU8g8oxWR1vZcUZOH9Tx28xx45ATVBy1n5s7xRmfXocQgzLnYbE0l+lxK1BsR6HqWQeUYjI63suKzM4Z1BhuSGMt/wAa0ZM3IeKMz/sdSwySySinSyEdfnn3qUWsnD+UG7Qx9fplYjw7nSbRwxg9fnqrLOYbvl+8d70Y+aF1skkBqv1jvekgt8fhjUGvJlhjLa+n3p5+HpWMBkDIG384Ov7FUSTSuFGWT2z71j5nd8jz9byUrUWT9EAH7Q38EGaICf2lv4Ku3d1LvWVK5ehd6yoqzOiAf0hv4JTooH9Jb+CrrJ/ed6yldddXesozVpHocj3VG9kzvok1t4rKOH8on9TH7ZVIbP7zx9TiFKI/nJfvHe9EbYaD1v1qFgHj61GGymd0QYy0Dx9ajRR7/Wi7oowWUEd06lRvXqUzgKSnbotQZI3ljrB3rv3TvyJANiPZCwsNlF/RShvjUniPZCZmTITuR7IWBMzqoMr5HSCnUR9QStcYjbaB6dFEHdEDumfKKcQR16BBriw2KB+pJdIg2UGTtn+I9QU7Z/iPUEiBNIMhneO8eyEBO89SPZCQb9UHeaNlQ7pntGxHqCUyOmHK/cddhSQuJ6os6qCdk3wPrU7Fp7j6ynUQBjBGbbsenVP2jvFKoqG7R3ig57iOqUmkriaUDBxPVR5obJWGyi/ogXnPipzE96CilEsqXaiiggFlR+w2Rb1Qf0QBpNo3aVvVMBZQRRR+w2S2VqAu6JVLtRSrEQJpQmkLtTkqXaCIFlEikWBdKXaBNIA2UUVKtQmkAbKINBAikSaS3aJWy00U12kulLKtQ4F9VKDeiXmIU5ie9IC4mkBv1SuJpRpNrQcbdETv1SWVLKiwwaCUaDeiXmIRDieqFGyiN+qUmkGk2iHoIO80bIFxCBcT1RYZjiTuo80EgNdFHOJHVSlMw2UzhYWJkzYuZz+lKvGrsdkuY6YRsAsXSQizoIfN6LVizI5nFsc4kNXQpZg8nqVVZQ4k9UwNlYmk2m5iESnJpCyl5ie9CypUPdoVaWypZUB+b0ULieqVxNIWUDKJbKgNlFhlECaQsqxeBJrogXE9ULtAmlKcGb1TXSxtJtNZQ4FxsJVLtREoE0hZRd0SosMN+qlBC6UsoCduiF2g4mktlFNVqVSANlFBKtSqUUJpBKtAikLKDiaRGyBZTUF6Q4OlRi5hj47e5xyuez4UCh8X0L+94v3j/esDzlBFjQTuF6E4+hD+mYv3jvelc3QIhb8/CYOlvyOQetxAV5FE6NtdEvI0dyve14cP9Z6b/wCvZ/qU+McMxgl+p6aRW3/Hs6+2nNakUfIPBJIA1uyTWuMuFtEb28ufhzQtdTmQZrSeh32LjWy+RcXfCe4Vws0t0twnYDymJs3PXp+aD+Pes21eH1wuIT4/nvIO4pc/S/Cu0xobWIdyvZcBfCF0HiPUXY88MeMBEX88r3AE20VtfirLTh9VkgdIKj2ck+J5A7z6grXRdd0PVIw7Gkxi/ls8plft9Wys/jGB9OD7mb3qW1mvMDCnPUn1IjAmJ716b4xgD9+D7mX3pZc/ToG8zy1wJqooJSfxKnNHmZcaSBoc7oTSr9U1WPSMN88rO0b0A8D4/gr7iLiPRsPTJJZO2AbuP+Gk60fSuT+P/hJ1qmTpeMJWxst1vxeUGturh6U5oueNfhGfImTJCxpIDqDQ0bdfQvk+s/CV1OaYlrX9newEbfcvC6/xRFrWoPnkhlLib5o2gn1dFWyajAWgGHKq/wCyb7l1x9Od9vrvAXwkM5uvtbKXsjezlPMxu/nDbouj9O8q2BqLYmNZ2b3NsuvquFMXUsOKZsj4MsFu7SI2ij6l6fD8p+XjyxdkcuXlIHKYmCh6lL7anp3zpuS3VIGuh+dV36FuDHlh3cwyjpQXNXA/wiZNIxmiXFyZC5nIByM62PR6F0n5P+PI+INCZnTaVltLtu0DQb9FdFytvLcjIOYn9ld6ymAJP7I71lehbxCx5rH0nNnf3tEHNQ8diE41fKm81ug50Z638XY38XyAfxWLrzDxWpI88zHdOeVsBjI3s2m+TJPAq8n1DOa0VoOdNv8ANIx2/btOsIz9ReabwzljxL5oGCvr7Z35J91iv0Ms/MVQ0uQ9QUfkl/gVcP1SOJg7fCOI++j8yHf0bOKU65HK3lZp1Vv2nxuPf0LU1tHLzllw3Nrlwp36NO8VGCHJWaFmE9T6lc/LcmP50WHGXHb9LlxgUi3ibMJ/ZcCL0yZza/AFS6u3/Nm7XPn2qPkDMPj6kP5P5fp9SuTxLmj9zSf/AF//AGrHJxRksbcr9Lhbfzhm3v4fMU+rofmn07h4qrHD+WT3+pMOHco9b9S3H8YuiF/G9Od3ebkB/wCHKFifxtI8U3UNOxz9J4c8H0UFLq6H5pWH+TmUO4+pEcO5RPQ+pJk8dy4zGudrmlbnlH6B6yM4zy44xMdX02Zjtg1mLI77diFi62h+ayJ/JzK8D6lP5OZXgfUieN8jJ835XwcSt+cadK6/Ru//AHSy43EmXNIWs4gxsg1fLHpb7Hp+cn1tD8ziMQ4byT1B9SdnDkrDcjSWrZfxBkxC59aZjs6Bx01zbPhuSsGRxSxrAXa83IF/NZichHpshT7nTx8Y3lLIdnDXbnlH6MjeyUJuE5I2gsk5zfQKvyuLIOzH/wATf17om+5a8fGceOeZmqZFnb9FCxx9RaVi7vHlirNnDcjDcjSW+pF/Djnio2EO+sqsl43dktDflfOjo3ZxIv8AQhBxXIx5I13NBr+5w/6Fn7uC1g4Vme8hzuQV1Kz/AMkHf24VPLxQ7Ibyya7nFoN7YkI/Jixt1YSmma3n31/Zov8ASn3cF2eEHD+fCxycGzSNqPIAd9QVUM55665qH/pYv9KeLUJI3Et1zPBr+6xf6U+8ixYR8F5DDcmQC36gmk4MlkbUc4DlXza52DC6fWNQmZ0DRjRij47NVM3jyLFynXqeoBtVXxaP/Spd5HSScNj5cjh85kWM09LGPH/pSv4ileKjEAd//Xj/ANK84zzzTrIWaBgY8keHivzc3Grx/df5eTVtmXhcP17LA6wf+mj/ANKkXEOcxxLJI4zXVkEbT+DVWSuIb9qwS5PxeN0hOwC19fV/K/y5zKr/APlRqEbXOfk20C/mN9y518rHwtNR4N1qXDizudg2EQijNHxvltWflH8t2Nw/gSRRZDYpi/kJoHaj4j0Lh7j/AIgdxFxTPnuk7SRwI5jVVfh0Xu22rqZZecq6S3h9V4z+F7xZxFjvxsXUnYzHOtxONCbbR23Z6R6l8qzPKBq+bd5xe4u5jcbD/BeYzZXSQhrqrmvYALRMjot2mj0X3LaW16afjDV+Uf8AFjr/AGTPct3SvKnxVouQ2XA1eTEkrlL4o42kt8L5fQF4p+VK4bu/AJBkyDo78ArLU5rqryY/Cr4zwM5kebxHk5OOI/Ojc1niP+VdP8I+W7L41LRi6hLABHzucXXe4Fb/AFr8wNN1PKwskvgl5HObyuPKDbbBrcegL67wL5ZsvhSEM+Nfoy2uUMb1sd9X3Lx7nT1Mse7G2PRh5nl+keHruoSRhx1OWU+Acq7iviXUsHRJ52ZeQXRjmHLIQRsfBc1+R7y8zcRcQjCfOadCSLa3rzNHh6V9a8pXlDx+GNFyI8iRodLEW7gd4/6L8/hqa2Gp25Z3+XWSOcvKP8J3iPJbNpjdby4nRzc3zh0AIrp6V8E1bj/XtVz3yT6nLO07gSBrhfjuEONM3D1TWcnLoefIaIcRZXl8h08TQ4YroYroSmyCfDf/AHsv02jlbhza+frWzPiLufijVJIw05RAu/NY1p9YC1ZeIdSDf2yXr4qldlSkfO/ALG/IkI3d+C9eNvDh3X5XDuINReKOZL61il1fOmaA7LmoG9nkfkqrtn/S/BETPJ6/gpbW8crx7XeJr+pY8jTHn5LSDt+lJX6LfBe4i1PL8nMD5s2WR1gW53oX5oDIcwON+dXm7d66s8gnl8/kbwgMHLyA97dw3kaK/BfM3eGpZ3YWx79t+7Ly7il12WJhdkzOezuBPf8A7tVDeJmZmS+EyczQ3mAvv/2VzVN8J1uuZTcNuQGDm5vmN+rw9K+ocH5nyk2HMDi7tNifH/dL8hramthnxllf5fo8dLDj1HtdXkyHw8zpHdlzbAbb794Xi9UzO0D4soieE7BkoDhfjv8AavR8T6rNhNZEBzw2PMAHWut9V5TJki1Cg/HLCDzcxJXKa2p+VerTwxmPiPJw+TvTWapLqeLghk7WEuMb3jnbYttA+Nepez03P+P4LWDHOJEw12Lut+NndbGj5Qwpi7YBrdrF72Fjn1hmXqL3y8pfyEDlAaOo7gpdTO+69GOGPHpuYMbhP+ia0uI35mhwr6ja9noOO/HeZeVsbiyuaNoYeo7xS8NpM2QzOLw/9GW0ByjxC91g5croRb/wCnfl8vHqyTLwtpsx0LQ58slXXzz71rSam5zajldzelxP5rBITkt5ZPOaN66LC+BkI5mCj06krthlbPb5WtJ3mzMiTJiDZSJGg3TgOqrcyJgiFNDDfVnmn8Fs5EjgwUe9asji9tONi10lrxZzyrsrTxnMawmQ8ruYfpHe/wBK2IWTxRCORxfCOjX7gH7VniJjcS3Y1Sd8jpBTjY69FWYXGDec+ZGdu9gP8FY4MbJJiCxrfNu2ANPrC0YWgONeC2seR0byWmjVLNrtjJwsXxCAc0bntJ2sPPvSfGzFvI4vb0p55h+KSOV8rqebFX0WPNja6IAj97xVmeU8SsZScsk2ZHM0NY1l3fzQtaaRzWjlppvq0ALX5RD5zNj062ldK5wom10meVnt5s/ZcqR8kYBe6r7nELDE3zj5z+n0z71lf5w3WN/mC27FLnl8pGaNlu3c/p9M+9buC3klJDn/ADfpn3qux5HF5s9y24JXNeSDWyTPL5aizL3Do9/tFYpsx2O0OdI6ia+cViile91E2K8Fh1JokgaHbjm/gVyzzyl9vXp4y4+TS6m6VvKyR1/WqzPjD4y4lxdfXmKLI2x8zmijXiqbP1DIDyztPNvpyhcrqZ/L1Y448elBD5YtGjcTJmxkV4hWej+VrQtQyzC3LjLuWxv6QvzHbxrnTGn5jyOvcrDRvKHmaLnsyGZMjv3T37Xf8F+jx2GWE4yfns85qXuj9WGTszMUZEeW3suvcvJ8R+UDRtNx5IJ8pnOfN6+hcoaT8Ks4nDgxRORLVfNb4fUvifFvlX1biXVpHNypGxg84PK33eldJs6423l67y76+czieVuLl8+PzcwjFene18rlypWecH79Lpa+bmT5WQciWQvmI5S4+H1LVlyZC0ed3+AX09voY6eHFnk7r8t12oPA/Sutv1DqkdmtmHKw79VU5cr3xgE96w48ro3ktNGl6+IstXEkrg3Y96xGd4/e/BanxiR2xdf2BZIp2tce13bX4q8RqWtiLJka407u8As0c8nnu5tw2wtSTIic39EKd/BCPK7Iu5zbSKWb8O+NvD7/APBW5dR4y7XMk82HHdIHHzej2Du+te3+FLxdNk6lE2HOD8QEM7NrW9aPfVrm7gvjXM4aypn6bk/FXOiLSQ1rtrB7wfAI5vEWq8da1jaZJl9tlZcojic5rQGvN0TQ+v1r52pt8ZqfV4ei2/S5V+RnR5DpY7stHaM36P8AH09SvaaHxHDq/B79O1nkyZIXdtHTRGQQCAbbV/OPVeM4s4G4g4K1g4mqYXxOZgoSsPM2X077epVcL8qCR73SHzm8h2HT/YXtwyxzx5xfEyyyt81tSTl75Cw0wOoBJ2rj3rDGeRpaNm3dLLEOZxB32XWM81kicXOIO+yd55RY2Qa0NNjZJkOIYKPeqd1+QdLEG/p5jD9AgXbu4fmvSs0fVtK4ci1l7eWCWUQNn+lYLqrp+74dyp+Gjiv1rFbnw/GMUuHOwPDPxP8ABe88sHEGK3RsLTNGY/F01kzZexdM2UcwY4Xe57z30uWXw9GnnlJzK8xw7qnZ6zDJkvLmk0O7ex4Lv3yO63j5PD2OwUS1gcN/q96/NJmpSxSxSOBkDXA0BVelfdfJ78Jj+SWMIZLIEfJy8o8R6PQvi7vaTP8AfI/R7Tddulxlea7w1bOGQ1r2kGQOomu7/dKp1PVMb4m1rQBKHAkjworlLK+GIZow2AmF17uLGmx4bhVU3wopcomp7cevmN6epfDx6bqZ+Y+tp7vHtdOZXGeDih0Zbb3ebzX830r5Txd5b8PhfUDjCYZEt32orp4eC+Ma35bZ9Sx5BhTGHIftI/kabZ3jcbb1uN18k1fW5cuZw7UucXcxJ3X0tDp3bhxlOa56m8ky8OttN+FQ2OTlfICwDYcjevqVzF8Lcl8UceWIQXAX2bDfo3C4hGZNfz/wCSaeWQxEvPmvDttl650/Hj08We8nL9T+APKlBxRAHSZTb7Pn5qA7x4D0r1WVxDA9jRFkNkdzbgV0X5t8H+WfM4VxmtOW7s+TkDQ1u3T0ehe24e+FQ7Tc18uQ90zDGWhpaNjY36eheDX6bnlnzh4jjdT6n7nesufC7Ea4/OLutrUk1CEN2rquOpPhns7IN5HcoPTkb7ljZ8MqJ7gHRuI/wj3Lz/ZZ4eK45e3ZMOYyZxaw71aylkk1BsvZVuSQOi5S0z4XeEG8/ZmNxFcxA9SOr/DExYsS2HncTVBo8D6FqbTJh1o2XFiYA7Jb2nebSvz4IhbJg89KC4G1X4WudkZJMMr4W315Gn8wrrh74VE8EhkyMguBYRuxvWx6FftMnTG+HcMGrMDzuOibI1ZjmCyOq42f8LlsYts1Hp8xvuSD4XnPs6ex/gb7lm7TJXYUueJW0w73axty+zNyG2rkF3wwxhjnD+e/NoMb7lr5fw0+ZjQWurm+g33J9rk55ScuxpM1sgqM05Y+2e7Ym/sXKekfDAxJt3sLDy9SAt3J+F1i8g7KQNdf0Wnb1KzaZMcOpMedsTyX9KpZznwAfrBF6SuRsn4XTSwfph1+g33Kg4n+FtkPwIxiD4xJ2ottNFCjv0+pam0yR2sdagxhzduJL2oUsORxDDOwNaRYNrg7F+FlqbZLlxjEyvnAA/Z0V3gfC9ie4sIMcgFlxaPcuOfTtTO8yvVp62OGPFjtGLUBPzNadwLVFm5IjnJkNtXK7vhijTh2jH8xd5pAY0+nw9C0cv4YI1McoJY4Hm5uRvu9KzOl6vy9mG5w49OTcckvO56LOZXwi2midtxa3RpzcMOlfCZGgbiyszNP+PYQy4sJ/YF3Js8jevEg+C/e5ea+TMMZ6iqZM8vvm3WZ+fO2F9PqhY80e5b8WiPndysx3xEC7dJzfhyhZHcOSsae0aS07LPDnljjz6Y9LEufpMspPNKzfmruVYc9z8Oub9MJKJruoq8x2u0XGkaPMheOUg7/AO+i8rlywtmcIRykmzvarxak4y8MsuVK5u7u/wAAsYyZGnZ34Bar5XV1Uie5ziCb2VkcW7Hlyl27u7wCzMkdKaebHXwWk00dlYaSYnZD+3HM0MJAut7ClbnornGEczDR6eKwZOVL2YoGTfoAtmXKxjkFhb5vcLK3oMGZronY0fM6VwjAq+u/f9SzXfH0psLMnZK6mOittWVuYeZPi50U8UwhcHDmkLC4hvorcHpuvYazwxPhaZC3Iwj27ng8242o+CpodIlY4kQyQbfOa5wv0dVLOZxXWW8cPtOd5Q+GuNeCcfT8rUhqurYgEgjdE+NzGgFt83fu4Cj4r43lS9qXltdmH0ArLh/T2xaiI5g5wyG9iLcepIP8E/FPCWbw5lujLS3He3mY2ro+N+tcu2Y+MZw+RuPGpxFCTXRZcQl0hvwVnicC6jn6Ec2DMEsjHcz4w0WGUb7vGlSYz5GyvN7N807d664+nmlqwlPK0EbbrWmeS0We9bWntOZn4+O5vaCV4Z4cvpWXirSjoPEPyeD2kXZdp2g6XY2/FWltaGN2RluaAZDRuGkdD4qyHxXUf0UmOzHAFh9Vv4LFoTwzU4mdl2va/ow38f4LFq0szsjIw8qIsMUvMw1y0KIrb61it45Xj29TwFwvp8mrZp1FrcqB2I4Qx8xbUnOyjYIPTmWzxjovCHk30V0Oo4A1fXMv9JDOyeRvYto+aWtcGneuoteW0HPfiZjX/G3YxjHMxwaHed4UftU1TDdqWW/LyXGUvdfbZQIaT4CiB9i55fD2bfT1NTLmXw8ZA+XIxnTS+aC/zWVVDdPC8xOJaaNUvTu0WLKNc8DiN6hsn1cyR3C7K81r3HwaWtP/ALnUt4SceH35hdOdtUBz54hbZKJ26BYBkyF5dzecR1pX2VwnPJGBBDOXA2aLH0PqbaxHhVzGDlme+bvjc2qHiu0k4XiX2qDlyjo/8AmiypXuILrFeAVn/JyWPeRpIRbofKbDCPtWnPLHHn0rHOJ6lRsjmGwd/qVs3RnXtCZPQCVli0Azu5XwvgAF2ATfoWaTx4ikfO8jcj1BPjyuL+7p4BegPD8TG1LizRs7pXg0T4dR/sKN0HHJ/REh31d3tLnccbfMX6OWp+6VUZGbM+EML/NBugAFquyJGCw7f0i16L+TrXbFxP8A5f8AuSS8NM5Ruev0f+5Z7Mfg+2z+XnJsuWdga9wIBsU0DdPFkyPHIXeaN6pWebw0/s2CBzw8u7oyb2O23N+StNO8nXEWbEDjaBkZe18+M2Qvr0ggCv8AopcMfhfttT5eaeS4bkrG4losEheszuANZ0eITaroeoafjudyNlmAYC7qBbqF0D6loO0SEj9VP99H71Zhj8H22p8qFsz2mwfWFkZK6U04ggb9ArgaDE/ZrJWHxc9jh6gVki4daHHzj0+j/wBydmPwn22fyqn5MhjDObzQboABY+2e3cOKvxw609XH2f8AuU/k0w959n/uTsx+Eu2z+XnnzyOFFxKVuT2Jt5NdOq9E7hpldT7P/ctXO4U7aINY5wPNfzf+5Xsx+Gbts/lVx6kQT2LqcRRvfb7Vgee0cXO+d4jZWMHCj8aTmLZ5S7zQ2KOzfrOyvMTyd8RZTBJHwznZEBGz42O5j9ngrxIs2uV9vHu80WPxRYeY0V6zU+BdT0qBs2o6DqGnQOdyNlmAYC6ieW3bXQJ+xVrdGhB2in+9j96jU2uUWuFxZpmpyPxosYRuewgkkmx4ble08j/lb0/gTDzYs1sclS9m1paNgd/4L4dhOOPOJI/Ne3cFYs6ONxdI4EySuu7PzvGl1vt5Lu8XWfF3lo4Y4w0AYjsdrJGyCVjo9jzBpHd9a+Kapxzp0Bdj+dNMHc1OFU3/AHS1fJfk6PiZzIdRxn5GQ5vVhJIFjuul9D4w8mujaiPj+MHxyFvzXjlFfYvPlbK4ZanfeY+Vapr8euY3YY8XZva7nJ9FEfxXj3xSw5TnPO1V0XpsR8OmcQZWNPBULYXcrrI35m/9VXZYZkag0AfonO6Lrhzx5cMrbVbzF3UrLji3n6lsa1jRYc7Wwt5AR0sn81p47zznfuXaemG088osbJWzvYSWuqxXRM2J+RbWnoLK1XTt7QxD543K1wrNG2LtueUc3huRuvu3A2HpjOGG6l2MfxnGPaB0k3IDQ6bml8DERyZI2czhbv3Rdr7Hw7hu07h+OPU4IsjT5iGRNkAPJKQSHV9Qd614Ne8ZeK1LX0PhziPG8pmQwZU+DhGA25kmTE3maNqG3XdfW4/INoXEOnsmgxZ2RVfbunDonO8AWm76+jYrjfVuHZcDWSzC0/HzJp/NjlZE1oZZBugK7l9oi8tPFHB2Ro3C2n6dFFisgE07n/Ne+wOvd1O1rwZ5Z8+Kxq5ZTDxVp5S/ITkcJYWNqmDKP0GU11N86hyu33Xidd4zx9f02Q6gW5GSxvZtdQbR+ptL7xJxvHxLprNO1LsYBkt5T8WfzvsjvBuh6fqXOXlQ8msnB+rFmNDmTYEj+cTFtt5t9r+q1108rcfNfHmeWXm1v+TDV9P07F1KGRt5ORjviBLydi5p6XXcvE6vo7tJnl83lZJJzAetawMenyRz42S8ZYcAWuaNm9/8F9B4+iw8zh7TXwxgZrg18jw47ije3TvC9WNvDcrwmj5pwcp0gIaeQiyL7ws2tagM6FzyeaUb8x6qa1pYwMjFDW8rJIeZws7usbqtlYGtAHRxo79y6StR7TyTYeHlaizIy4hLJG0ujJJFOsUaH2rNDw7n8c8aahCGsmEZLyCAymggd1eITeTWbC07UR8ZZcJjPKOYjzrHp+tNg663C4oyZcOZ+NzZHLcY5iR4G+5ePVysy8VOap9C4RzZeK5sSDHflz40nP8AFSzzXtHUX17xuukPIf5WToOXktHD7GRQHsJ5X45d2ZsHsxW56XZ8F9N8kPCeLNpMmc3SMaCbJiIkzZnut9kGuux2vbwXoHaHHoWJkw4mPgsjfbuSIPJL/Elpvx6ml489z2Xtr3bXc/Ty7ayu+Gz5GeGcv4vrXPh5AZTvi2JOXXttsHbfYs7Ph6/B7y+Zj8/NFCxz6fkEX9sa4p+EhwlqkePk6xqGFFh4UMgccmOdr3O2PmhnX036F8e1byacRR6HpurR4TG6fmMEkMsTuYvFfvDuX0NvqfUw7n3ct3jbzXdHle+GL5L+I+HpMbhjKfnZTZBIYsjT3RtawNcC63xgXZaKvvXH0/lHxNd1SfJkhY1hunNaG9/opfOJcSaNhx3Qujl/ecb3HgsbMV8MPZP/AFV2B6fr6r2Y+mfusX0jK4s00xj9EJd+gcVpycTafKKZj9ketlx/ivH6XAxuQ6h+73knvC3M3E7eINaNw69l0jllu8eXrNL4rxMLIc8RiS2ltde8K7wvKVh4OXFLJhufGHAO7NgcQPtC+babhOxp3OI2La3+sLazmCSIA2Bzfukt/JYvtzu7xdz+Sb4V/ka4dxoo9WnzMLOlj7EGLC5iXEg15outivrXA/wrfJbxTrGS3FysiPDwoy+eTIx3xB4BAqz3793gvzQ4DyWaJxJBmsAa6MWXPHNtY8bXsvKBx/gswMrG08EQ5jg6aNrieZ9Hf0d/Sl49TK93EdtHe/v458P090Hy3+TzX3TfF3foyeeOSzXL0rr6VZZflM4GZFzNMstHdsIJP/4X5x+RDylg6PFpkgDJoxbSWi+WwK6ekLpjhhseXiumLd3x1Y28PBfA3W8y0dTt5ftdphoa+lM8rxX213ll4Ckm7BmPM6Xu+Mim/Z6V6DR9awctxyGMa7Fc2msO4B28ftXMR4Mi1HVi/JifJE3z2jtHCnX12P1r7DwVDNFEMR5JxWM5ms8DYHXr0JXzc+o58/3V6MtLTxvGPmPo+fl6Rlwhk2LC9odYBaOu6rZjw7C0OfgQVddFX5GJCI/m73t5xVcdBlynO7UF0AFtFkb/AFj7VxvUtT8q5XDHn09Bj6twtgvMkkEWM0jl52Dc+hbB4t4RZuJ6P1FfPM7SGQOdzstg6AkndeW1OQwPAYGtHNXzQu2HUc7POVccsZz6fb8fjLg8PPaT22vT1T5PGnBvZjspqdfpOy+HzOijwHSva2wNjXetbR8mLNx3Eta54PWu5dZ1HL8qx2z4fcP5ccIxkGTIsHYbd6ssPiHhaZpkY8yt5dgAV8Fy8MZDWNaxth4PT617Xgx2RiyOB5OTsiKMbT3j0K/1HL8q45ycvXarqPD+tkYwxo8kMd2gZPGHAVte/fv+KzaW7S4Xlhw8dsYbsGRtbv8AYq2SNkptzGg+LWgfksUmJzNqIEOvx7lqdQy/J58rxXoM53D0sQGTBEyPmsHlvdaD4uFgP0MEUz+9pYBt4qlyIJcdgc7cE1uAVoZkjuyHQb9zQFm9Qy/J5NTLKZeK/9k=;" vertex="1" parent="1">
          <mxGeometry x="950" y="20" width="400" height="400" as="geometry" />
        </mxCell>
        <mxCell id="LcdQc8iV-d25lG8Cdk2--6" value="" style="shape=image;verticalLabelPosition=bottom;labelBackgroundColor=default;verticalAlign=top;aspect=fixed;imageAspect=0;image=data:image/jpeg,/9j/4AAQSkZJRgABAQAAAQABAAD/4gHYSUNDX1BST0ZJTEUAAQEAAAHIAAAAAAQwAABtbnRyUkdCIFhZWiAH4AABAAEAAAAAAABhY3NwAAAAAAAAAAAAAAAAAAAAAAAAAAAAAAAAAAAAAQAA9tYAAQAAAADTLQAAAAAAAAAAAAAAAAAAAAAAAAAAAAAAAAAAAAAAAAAAAAAAAAAAAAAAAAAAAAAAAAAAAAlkZXNjAAAA8AAAACRyWFlaAAABFAAAABRnWFlaAAABKAAAABRiWFlaAAABPAAAABR3dHB0AAABUAAAABRyVFJDAAABZAAAAChnVFJDAAABZAAAAChiVFJDAAABZAAAAChjcHJ0AAABjAAAADxtbHVjAAAAAAAAAAEAAAAMZW5VUwAAAAgAAAAcAHMAUgBHAEJYWVogAAAAAAAAb6IAADj1AAADkFhZWiAAAAAAAABimQAAt4UAABjaWFlaIAAAAAAAACSgAAAPhAAAts9YWVogAAAAAAAA9tYAAQAAAADTLXBhcmEAAAAAAAQAAAACZmYAAPKnAAANWQAAE9AAAApbAAAAAAAAAABtbHVjAAAAAAAAAAEAAAAMZW5VUwAAACAAAAAcAEcAbwBvAGcAbABlACAASQBuAGMALgAgADIAMAAxADb/2wBDAAMCAgMCAgMDAwMEAwMEBQgFBQQEBQoHBwYIDAoMDAsKCwsNDhIQDQ4RDgsLEBYQERMUFRUVDA8XGBYUGBIUFRT/2wBDAQMEBAUEBQkFBQkUDQsNFBQUFBQUFBQUFBQUFBQUFBQUFBQUFBQUFBQUFBQUFBQUFBQUFBQUFBQUFBQUFBQUFBT/wAARCAGQAZADASIAAhEBAxEB/8QAHQAAAgICAwEAAAAAAAAAAAAAAAECBQMEBgcICf/EAFUQAAEEAQIDAwYJBwoDBgQHAAEAAgMRBAUhBhIxE0FRByJhkZLRCBQVMnGBk6GxFiMzNEJSwTVDRFNUVWJy0vBFc+IkNoKywuEJJWSiFxgmY5TD8f/EABwBAQEBAAMBAQEAAAAAAAAAAAABAgMEBQYHCP/EACwRAQEAAgEEAQMCBgMBAAAAAAABAhEDBBIhMQUTFFFBUgYVIjJxkSNDYVP/2gAMAwEAAhEDEQA/APXgNlMmkVSKteY9MgbKaR26Js3O6M0KTY3ymmdeqCKU8eV0TyWmjVdEREwTQ7uYZR0oIBcT+qu+9bkWoTxutrxdd7Qf4LKdXyh0kb9m33INADm2dAYx4m0ntDRY2WzlajkZMYbI8FoN7MA/ALU5i7Y7oAOcDswyegKQc89cV33qcGTJiPL4nBriKsgHb61n+Wswfzrfs2+5BrshfOeVsBjI3s2pP0+YDa1mdrGXIKdIK9DGj+CidRyD1kHsj3INd2NJELf06KJFLLNlSzNDXusXfQBYhv1WaIoUqCCKRqIoQmBZRKSk00UEUldKxGaKCfJcWwRCZ4FlpNbeKy/JepH+gs9orXhmfE4lji01VhZTn5A/nn+tUZGaJqc55W4rIyN7LiiXRczBb2mUxgjJ5Rynv/2CsD8yeQU6Z9ehxCiJpD1ke4eDnEoCdjWsBArdYm9Vke4uFHdYzt0RqHVpEUmzc7puApFQTb1QRSV0gbuiiTSkN+qHAUgy4OL8cmLC8Mpt2Vuu0WFouXO7Fv7wAO/gqwbdLH0FNr3NN3f07oLD5Iwv72d7A9yxZOBjYzA6LOOU4muQtAoeOy1u2d/h9kJPlcR3fUAgUgDW7LHdqXMXbHdFBERRVpkUgCys1SqkiaU6Ci8UFYI2UXaRNIZud1KM2NjRZUhZNkHGaBYeADZ8FtfJGEP+Lu9hvuWlfJuK+sWk+ZwG3L7IVg3vknCP/F3ew33LFPp+NjsDos45Tia5C0Ch47LVjmc52/L7IU3PNd31AKjMRSindpKUMC+qYaB0Sb1UkiE7ohpop1aR26KiXMQjmJ71Cyiygkd+qR26JWUXaJRdoAspJt6oiVUkTSaTuilWFdob1STuki6SSd0Ssou1VAFlSqlFvVMmkQO6KKd2ksmjb1UqtRukWUNGRSTeqLtF0rA3dFGrTu0lVA26J3aSFKE7okBZUqtFUoCqSd0TSd0QJAFlCLpAyKUatO7QgVUgmk0ndEEbtNvVJF0gkTSid+qLtImkBygpUG9EwbKHdECu0iL6oQgAA07IcTSCaUbtBtgWUyKTqkVaURukwbKKCdUgEndEE0gb9UCAsp0E6pCBEUkBZUqtFUrGaVBOqQhKQwLKTxQRdIO/VQRAspkUnVIq1YsJgs7qRaB3JDboi7SqR26IG/VOrRVJGaVBBFJoq1KiIFlOgnVIRqERSQFlN3RJvVWJToIIpNFWlWIgWU6CDt0SsqKZFKKd2krGaEVaEKrCIpJSq0UEVECymRSk0C0OApZoglVqdBIilYI0EiKUkqtShAWU+UFFUmgg4Bo2SG/VScLCVUgVBJ+w2UwLKHNBCDEN+qYaCVLlA7k6pBnBspqLeqZNJUhpE0lZTG/VWJQN+qz4mJJlyFkTWucBdONbLDVJPYHiiXD/ACuI/BSotGaFmE7wx+2pfIOX/Ux+2qcQgdHy/au96Oz/AMcv2jverBZ5GlTYjA+aNjWk0C117rUlY1rQQK3WFgMZsOef8zyfxUy8v2JsKjJi4vxuQs5xHQuyt2PRbd+tQj/mmh9yrXDbvH0FIeafH/Nv+KC2OiV/TMH7Q+9Qk0Wm/reMf+U6z96rea/2WewEnecOgH+UV+CzRs5OB8VjD+2ElmqC1kgK7z9ZTVgEIQpQIQmBZVgSYFlBFJXSo2cOHGllIyZzjR1YeBdnw/FbnxHSP70d7IVS4B4pwBHpUeyZ+431I1Fs/H0eAcztQdKOlBqwyjTXtAxZnSyXuD4f7paLGtYbDW36WgqYkI6Bo+hoCJUpmBjQQKNrEDZUnPLxRNhKqWasRkNN28VhfkCEcz+nRZni6B8V1F5TuOdS4cyyyGciG6DAxpo772QrFdrxZTJ3FreoFrMBZXV3k14zydfiJlJ7XlJLy0Dax6F2hCS6AOPzj3qIkQkBZTG/VB26KxWSCWDHeXTxdswig2yN/HZZ/lHTv7Cfbd71p9o5m4P3KTJ3k7keyErNbXyjp4/oJ9t3vUJsrFyWhsOMYnA2XcxO31lYjK4eHqCg+VxHUeoKIb2gDZY3dEF5PUoG/VGoSRNKRFKNWilZQDZToIqkA7ooqTuiQFlBkx54cd5dPF2zCKDbI38dlsfKOnn+gn23e9aocWbjqgzvHePZCM1tfKOnf2E+273o+UNNNh2L2fgS93X1rUE7yeo9kLFlMblMa2UczQ7mFbb/AFIjbqkVajZTBsrTYoJ1SEIgQhCzUpgWU6CjdJ2UICKQ3qgb9Uzt0RdB3RRRdpgWVYEmBZQRSV0pQyKSRdpgWVYEhMiklQJt6oAspnbogKtIikWUrtAwLKCKSukXalUIQkTSRDSJpANlOrUqoOZJKCGGnDddbcf8Js1SJ0skXPNzfOsjuPcuzGyOhssNE7dLVVrY58YEiy51H1FBw/yacNjTsd7nx0zlIHXrYXYLPNbyj5o7lUaC8te6AbRBvNy132O/61dcoHcrArpF2mRSioCrQNuiEIh3aVWhCGiIpDeqdWiqVik7okBZUwL6p8oHcpWajQRQTfsNlCyiw3AUo1Sd2gCyiUndFGrWTlBUmRtJ3CEYWgWh4oLM9jWiwKWJwsIVmoJ1SEK1oigGynVoaBaRmhCZFJKkCFJgs7ploHcjSF0mN+qCKTYLKBEUldLI4ClAikCu0IUmCzus0RTb1UntAGyi3qrGadWkRSklVpURukxv1ToKTGglII0EiKWR7QBsogX1VEELMyNpO4UZm9m0FkZeb6BZoxoq0hI8n9Vd96fO/wDsrvvVgKpCYe8n9Vd96kC4n9Vd96lGJ/RVOvzNgw2Od0MgH3FX8befmvEcaF9SuvvKrrM+j8OTZLMRx7J/Nte3mu3VjUXHD2WybNe1nXsyfvC5BZXmL4PPlZ1rjXyiZ2JM17sGPEe4MMbR5wkjHUC+hK9UPxnSziNkBiHJzWSf4qJWqN+qyQshdIBPIYmeIF7rP8mSgEjuWl8sRaZlwtdiS5he8MLIW8xHp+jb71YsX7tG0/JxmGDKeJOa3Hlvb/dLW1LAwsTEZ2MzpJ+cAgitqP8A7LlGmvyJp/8AsMT4B2XMY8iJgFWO+rtV3EPbZcTYZdOdE4PDu2xxZOx2rpW/3KpXFCKUVvnSpiPzWLmTO/dLANvFQfpOeBtpuV6gs1GmhbQ0rPJ/k3K9QUhpOeT/ACbleoI1GpdIsrd+SM7+7Mr1BI6TnD/hmV6giVpONhRW8NJzj10zK9QT+R87+7Mr1BZqNBNgsrdfpGcBtpmV6gnDpOcXG9MyungFBrMaCdwsjI230Wy7Sc9osaZlD6gmzTNQv+Tcr1BBqzMaGjbvWu9oA6KzfpmXX57Cy4W9zg0HfwWGXTHBv6PN6/1bfctQbvxDSP70d7ISfjaNAOY6g6QHagFQ9pHFu9ra6dFOLIhkcQxzIjXUtB/FZbW5dog/pT/Umx2iE75GQ70RNsqs5mn+kRew33Jc4bu3KY0+LWtCbZq2/wDkR/ntQ+yHuRWhf1uofZD3KqEzif138Fq6nmS48DXR5/K4uq9j3FalWOQN+Qgf0uofZD3Ju+Q6/Tah9kPcuC5XEWXiRh/x7ns1Qa33LXZxrkMNyZBLfoAUtV2B/wDIj/Pah9kPcm35CB/S6h9kPcuAHjkj+fP3IHG0sjgGZBBvfp0TdHYQbo7jUXx6Z37pYBt4pPi04D9WzfUuN4Gqvz2AOyXRmr5gaW2ST1z3+2U3WatuTTx0gyG+mXYfcmG4I6Rj2j71ThoJ3zS70OdaHtaBtlD7lYsXBk0+IW7H7UdKDne9R7fTpdm4nZHrZe73qqif2biW5bbqtwCpSzOe0A5DZd+gAH4Kiz/7F/Vj2j71OPI0zGdzTY3bMIoND3Dfx2KpWbnclTaBfvRKu/lXQv7uP2r/AHrHPqmjlg7HTy11/wBY87etVR27h6kNeWGxQP0BEbrtT08j9SPtu96ceoYbnVFpnbOr5pkcNvHqtPt3nvHshIzPLTvW3dss2jffqGPGLk0gQN/eErz9XVOHXcTHcXMw6JFbkn8SqDGzp35r2OkLmBpIBAPeFvsneTuR7IUFseKYR0xR6kvylZN5rYhEetloVW6V1d3qCg/86KduOu2y1BaTa3I5o7JzQ6/3G9PUsXyzlj+cb9m33KuEbYzbRR+lSsrUG/8ALuax7KlaOZ1H823p6l1b5feJdRweEdTEM7WAxHrEw93pC7EYOaRl70bXRfwns7Nbw5kY+LLyPmcIx5oP7Lj3j0LcHTvwS+J9Si8qBx2TtEM2HI57exZue1j76te48nW8p0Uz5Z2NbG8NLyxo5G0em2/cvn98GPLGkeU5uTOXFsWG+JzWtsuf2kZr1Ar2Vgx53FcuRlZ8Ji0hsoMUHMWu7SjRJFEiubYmt1KsWmTxVqeYey0ucywA+dluibZ/w1Vem/QrDTHSYrhlcxGYRRk9H0dO4KOOxuOA2NoY0CqaNllBsrDTbn1TMyZBJJkyFw7w6vwU3a5nmIM+Mv5Qb7r9a0lGQ03bxRG0/Vcx4o5Uv1PI/BQOoZZ65U/2rvetPnPipMcSd0NNn4/lD+lT/au96fyhlj+lT/au9610nmhsitn5Ry/7VP8Aau96TtRy6/Wp/tXe9abp2xC39OiXxmOfzWyCMjeyiNz5Ryx/S5/tXe9Hylmf2uf7V3vVXm5LMWIPOW0W6ugWLB1OGaUtfltI5b7lBcnUcs9cqf7V3vS+Usxm4y5wf+a73rUM0Em0eS0Hr3KL+UD9ab6git06rmnrlz/aH3ps1PMv9bn+0d71UZOQ3Gi5zlt610C4zqHFrsJ9jUGtbdfNb7lKjsJuq5rTfxqY/S8lM6vmOG+TJ611vh8auypS0ai00L+a33Lbdxa6EczswSDpQa33KwdNar5a+OZ4x2HDepNbzX/Jz/A+hVzPK55Qpzys4W1KcjflOnvbXp2C+gjeIixoaM5gA7uVvuT/ACkd/b2j6GtH8FySRx7rwBF5SfKRlOLG8Hak0gX5uK5v/mFLL+XXlKPXg/WXeiKBpP3he95eIO0bT85rhfQhp/gsXy2wdMxrfS0NH8FdRY8IRcb+UhzjfBnEPT+zM/0rKeJfKTqX5pvBHEEhHnU7HaP4ele7BrvKbGf94WLK4khijByNSexl0DGaN/UppLXhlmV5TCd+AtdP0xD3IkPlNyG8reAtXaQb/OxAD7gvbv5WacP+LZPtlSZxjgQm26tPfTzjzfikkWWvDMmL5UA3bgTP6/uLJg4XlZlmIx+BM4vAs8ze5e5DxxhHrqsnsD3KD+M8B4o6rMP8or8FdRN141ZB5beXlbwJmuA7mcjT6yFIYvlvJ/7g6l9rD7l7FPFunO+dqk7h4ON/ikeLNMHTUZPZCaht4+ZieW8n/uDqX20PuWaPS/Lfku5RwNmQ0L5pp4gPo6dV65/K/TW9NSk9ke5J3F+mvFO1Fzh4FgP8E1FjyYOHvLsf0XBLpnfunKiG3j0Wzg6N5fcaYu/ITkc5vK28uIhx8Nx6F6o/KfTpNo8kzO68vKG/gpRcQ4ocTe4Fg83RSq6a4P8Ayxhj7DjPQfkXP5OcNbOyRrhY/dXJqpXfEWsRao8Acr5Q6+ci3V4X1VKsUJ3RDBZ3UmgOO6bmhosbIIloHcgNBDvoRdpt71Goq8VoGoSbfsn8QrFooqIxoo5DI1tPOxNlTqkA7ok3qnVoqlqJTAvqh7QBskTXRIuJ6qIi5xbRGxtdeeV/hUcSaLAyHHMua/JaGSAnzPMf51dPX4rsSg7qpN/Nh3KB5wo2L2+tNjqryQ+QHT/Jk12q5EbMrWJncxnc4kC9/m3y93guz5GCXKfkO/SPFGjTfZG33KTWBjeUXV3RJKdBAmgWpVSKpCNQiaUX7jdTq1FwFIlY6CbRRUqCbQLRYALKC0EtHcSmduiV7j0Irp7y6+UjU/J7hxZGDA3LDshsXYvc1g3a43ZHo+9cV0pvl94oxoMzT+DIsjAyGdtC5mVEDXq9K75z+AuFuM5HRcS6VHqeOBztZLI9oDwdj5rh3E+tdj6XreBpGmYunYcUeNh4rBHDFG0DkaO6+p+sqxmvIepcIeX6aBrcrggxR81g/G4etHxI9Peq4cJeXLDPO3grImJ25YMnHc76dnO2+pe1zxXiM3lyHQt/eG+/ghnGGnA7ak/2B7lWHjLB0jy5QzFz+AdSrlr9LD7lty4XluDf+4Opdf66H3L2IeMdOcN9Sk9ge5L8rdMdsdRkP/hCLHjHM03y1TxBsvAWoBt350jD/wCUWuO6zwd5V8qBva8CZ0Xng8zSTex2XvD8qtMHTU5mnxbsfuUhxbpzT/KuQfpcSrJDb59Y/CnlR0l5m/IrUX8w5Ko/T/BWGFi+VDtT/wDoXUD5ve1e9XcX6cRvqkp+pEXGOnxutuqSg14BXUTbrwCz853tFS5fS72is7MN8ZuTcdEzE0dy4pa3I1uS+93tFHIPF3tFbIjaT0Q5gaLbEZD4AlXY1xGCervaKmz8ybb16ed534qRc4dMV33qLnvr9Vd96ET+MP8A8HsD3IGQ89Qz2B7lGKOTIcWiEx0LsrKcWSDznRmQHags7q6R7Z3gz2B7kjM4dzPYHuTe5wG2K771FrnOO+K771ZaaHbu8GewPcjt3HuZ7A9ylR/sjvWVGRvMKMT4P8QF36N1Lalhdq49zPYHuR2p8GewPckyB7jUXaTO/dLa28VP4plf2ZybqIcxdsQB9AATG10TumcXLHTGd6k44Z2G5MZxb9asowCBkby9opxFE2VkZud1mcDX6o71lOKB87uVsBjNXZtUYvm9EFxPVbXydKfFNmmPJ85srh4RNBKzRppE10W8/SyBtFm/Zj3KI0uZxqLFzJnfulgG3io1GlzE96AbK3xo+aT/ACZleoKXyNmj/hmV6gtRWgkTSsPkfO/uzK9QQdHzu7TpW+mU0PuVZqtu0KzZoGoznlbiMjI3svKkeFtUH81H7SzUVV0hxNK2i4Z1BjrkhjLa/f71KTh+VrblDIW384OvfwVgpgbKatW6EAdsmEf811D7lL5D/wDq8H7Q+9VYpyaQDZVx8h3/AEvB+0PvSOh10y8H7Q+9ZrSoJpK7Vs7RDX65g/aH3pxaEHup2VjOFdInklWM1Tp3Su38PsA2nb61ik0JrW7ZDVUVN2krVmhgnfIb9yH6JCwXLm9i394AHfwWaKogOG6jyhvS/WrT5Iwv72d7A9ybdGxnmotRMzv3S0DbxVgq2uLTex+kWpdqR3M9ge5WTtEhaLlzexb+8ADv4KPyPg/3s72B7lLWlf2zvBnsD3IM7h0DPYHuVh8j4P8AezvYHuR8jYJ/4s72B7k3RXfGH/4PYHuR8Yf/AIPYHuVj8i4P97O9ge5L5Fxv5nUo5Hd4n80V9Xem6K74w8/uewPcg5Dx05PYHuVkNDvrlYzv+U4ko+QWn+kNVlppsS63hyNAdhki7+cfesYzsGc8oxuzI3sud71o/GJD3j2Qk55lFO3HXYUqyse0xB+wPWVkgzYMZ5dGA1xFb7/iqjs2+n1o7Nvp9aC8l4hbA3mLGyAmqDQoM4lZkHlEQjrey0KnYAw2Ovp3Tf8AnBTuno2QW79Ya4blv1NCh8rOH6FwDu/zQdvrVR2LT3H1lNjBGbbsenVQWx1bKPWRv2bfco/K2U3pI37NvuVf2jvFLnce9VqLH5Zy/wCsb9m33KcWv5sDi5kjLIreFh/EKsDiT1TsqJVs7ijUiP00Y+iCMf8ApUDxRqQ/n2/Ys9yq3E0o3a1Ii2HFGpHrO37FnuUZOItQlFOmaR1/RM9yq7pMGyosb7tbzK/St+zb7lB2s5bxRlH1MaP4LTd0SQra+VMr+sHsj3JjVssdJi0+LQAtRImlEbh1fNPXJk9aXynlu2OTKPoeQtMGypt6oNn5Qyx/Sp/tXe9B1HLH9Ln+1d71rk0oOJpVqNn5SzP7XP8Aau96PlLL78mV3oc8n8Vqg2VJWDO/PyJBTpn16HUofGZj/PSe2VjQpUpvkkkFOlkI/wA596iAR+28/S8n+KaEQA+Pnf5t/wAU7H7rPYCiTSQNlWNRIur9lnsBR5r/AGWewE3dFAmlUqVg/ss9gIDi020Bp8WgBRBspoiRleernetIkuG7netRJpKyixIWOhd6ynzub339O6iDZQ7oipds7/D7ISdI5wq6+gUoIWaJNe5pu7+ndMzvH7vshQRVqKl27/8AD7IQJ3k/s+yFGgkduiaGQzvH7vshQdKXinBpHpaFG7QmgXXQBvpaKQXOH7TvWhKrQbFBFUmhWsETSQNlSAvqpNYL6KwRQpPaANlECyqACypUE2gWnQWaIEUkBZU3AUhoFqwKqQTSlQScBSlELtAFlSoJtAtBEikrpTeKCgjUSb5x3SkAa3ZDTRRIbCCFlK7Qk6B8zHckgi5BzEkDoiVJvVSulwHijyt6LwyWxT5jGy9oGkkjwPuWTQ/LDw7rb+yZnxseG818w33A/ihHOXE0o3a0sLWMDN86LUGSiroUtozwv2imD3eA8EaTJronGS526xtJcd1kbsdkZrIGglMtA7kmGypO6IiBFJJu6JKwKrRVJoVahO6KNWpO6KKlBVIQhIE7ooqdWlQVUrpMb9UEUk3qgZFKJNKdWouApZoiDZTRVIQBNKN2m7okBZRmhCZFJIsImkgbKkBfVMtA6IrYIpJZpGAN2HesRFJWA3qmTXRRukxv1VgbTzGjupcoHck0UVmhaHuIIsUqMLvNGyQcSeq3fiUk/m48ImeNy0kjZA0PUpdm4jIz1suKzRqDfqg7dFvM4e1KM3JHGR0+csWXp2RiRh8rGNaTVtde6sWNQuIQHE9VnxNOyNTkMWNGZJAOYgPazbp1d9IW2OGNSh86TGDW9LdOxwv/AMO6pVaTSXMQrN+hZgH6GP21r5Gmz4jA+aNjWk0C117rNI1C4nqknKOVoI23WIOJPVGmS6ScbCVlJxNIIyEtbsuPcba9+T/DeXnPm7OOJpLht54o7f78FfuNujB6F1FdR/CUmfHwi/Ha4iEzNto7/Ncux0/H9blxwjiy9vHXGGTkcYDUdYzpZOyGQXQQ8xbtR8KtYfJ3wPqvFjH5Ola9i6TK0EdhnZAjDhY6F3U9NvpWLjrLlhjwmRu5WBvzQBS4LkRPnkY9tOeHA04Aj1Ha/Sv0XrMOk6HCdNlwS5al34/VndeldM0PyucGM+M4eHHrMJHZl0crJm11sBgvu69N1baX8IbinhDLL9b4Zy2N5eze6GF3m7g3523cuqtf17N4O4WxJ9Ez8vTMx8Q53wZDxY7xV1V0uT8Pa9qfEei6dkalqWTlyxEZLe1lJDngECx0Ozjsdl5vR/D/AM2lx4se2xi9ROP+mu9uHPhLaNxCG9hqDYn1boZmBso+kV0XaGj+UXRtTx28uUwykWTa8XcU8Z6RlZ78ziHgwTPZH2bM7TpPi7ydqsNIaRse7uCp5fKLokGjwz8N52o4epduGugyXRyM7OnWBsTdhv3rw+f4a8XNeLf9U/RvHknJO6PoTBnxZLeeCcSX3ClnZK5xom14j4O8vfG+iyxySaVLkYVcvaxMa5z9xtRHoXrDyecYR8aaJHqBbl4mSRTsSeMNAH711f8A/q4ef4vn4J3cs03HL7tCxhxJ6qQNlePLtUkiaQTSQ36qhXaFKgigs0RQtnDbCZT2zeZtbCyN1vMm0vGPNNjdq07Boe4b/UVYKhCtp9S0ZzB2WnkOv+sedvWtSfJxMhgbBjGF4Nl3MTt4blUabuiV0skjQG7eKxKVqHZTG/VRJpJpNqJUyKUU7tJFgq0jt0TJpDBzGjugjdoW7hy4eLKX5cHbxkUG8xFHx2P0rb+VdC/u4/av96sRT3STiaV0NU0In+Tj9q/3rW1HM0zJga3DxOwlDrLudxsUdtz9Cqwn7jdY3igjmJ70Hfqs1lBF0mRSSsEmGysrHFpsbLADXRSa831VG3HkSMdbXlp8Rso5OXM9gBmf17nELXMjh0Ki57nCibWasKRz5W06WQjr+kd71j5ez3Dnn/M8n8SsiVW5oPQlBoavrEWjYMmXkTNiij3JcBv6F0nxD8K/Q9NlcC4tha/k54upO/h9BV55ec17tDycF7z2LvmMG3nUe8b9LXk3XOCTo+Ljx4+njKklPaOY97j9e59P3riyt29ro/iebq8Prd0mDv8Aj+GFw491OnyCK/eK2IfhgcNMcSJZzt+0SfxXmnTOFn5eT2eVpcmHHWz8aHtnE2NqJ6dd/Queaf5Ffj2N2mLg6llPqy35Oqh47OWsfMdjm+O4+HLsx5ca7fPwveHMgconfHW9lg9yxv8AhaaJGWdhI7KcXUWcoFDx2H+7XSWb5KDpDnzavpWoRYTRsTh9n53dvZ7rWvh8L8PyRHJwsLJY0+Ye3BDfX47LbE+NvJNzkxeodM+ERoOqY7D27IZDuQT3Ll2jeUzQdbd2TM+OOQN5rLhv3V968YReTrTtRnPxaJ8MwHMXCeTp4VzV4Kzx+B59Ga6aGeTtA2mVI7Y+PX0LqcnUTjy7a9v4/wDhjqur3nhlLHuKLLgyo2uhIeAbDwVwXyzcHz8Y8JyxYv61HIJdv2mhrhVfWPUuO+QTizN1LEfpOoZPb5EMRlFtaCAC0dwH7y7gjcWSNcOrdxYtdzhyyymHNhdar5fr+g5Pjue8HNd2PnTxVwrka7reNhw1iyxnsDA/9qT0k7joVo5fki17QeIcfB1OD4tHMP0sPntA63a9ucYfB24a46yZsuLGycDVZH9tJl4eQQ4iiKLXktAsg+aAdh3WuPYvkc4u4YhmxNN17RdexnsLBpusRP7XqDYlbRvaqutyvvuq+Q+P+UxmeU/5NSb/AMPJy9vIXGWHJquoY+Hjvk+KY7hjyRuZQkHXmvr3d3iucafit0rAixom9m1kWw61612XxVwfmwyMbrvCmpaVlQbtkxsX4xhV4lzHCRv+dxcB0okgjiQ0bK1bJfHgx6dkvDSHPxc4Ssa30g8pB6bbr6P+Fet4/i7yd9l26HLwXky7o64PB+o+UXVJ9KwtQxcWdsZna3OfTJaIbyC+881/UVwHX+B9V4E1SXA1jTW4WSxvOySAAxO3G4d1vfornymaBxJomr8zsLMOHE7tBlQ4r2MDh3CTmIO17ej0Kp4edkcZZ7HTZeXlUOV8eRI40LHiV8vzY8nX/K9/HbLtyzC8XFp21o2RPj6JgSQzPjcyMTbO6uG38V6C+Dz5TMri/VcjTMppdJBiOl7XlDQaextbAD9pee9QjOm6e3HhjJcyMNa0b0LBP3Ar0N8GPTcef43quPh9hjzQdnG6yf2m8w39I+5fpn8T8PHj8Rc+2d0k8/q6nT55XPVrvZgsqZ26KT2BgsCisd2v55n9se3Yk3zjum4Bo2UWmipHfqrERBspk0g7dFG7UoLJR/vdCFYJNeWGxQP0BN0znCiR6goIVDJLhuokUgmkrtZqlVpHbomirRCBspoqkIpO6IaaOydWiqRmh5JG+6gdu4epSd0SAvqiItO/QepSTLQOiSNRnDiT1TsoaBaH7DZaZF2hRsqUfnO3QCLpSe0AbKKAu0iaTAsp8oKCANlQneWGItNW8D8VmLQOixyMDqsXRsLNWOoPL1Ax2HC8t87t273/AIXLq/jTFibHpsobTzDRIJ6L0F5R+GINf0GZ7oe1mgPataHEc1Aitj6V5z4k1t2bo0LMnTnYGXBkCMPkfy2zldt523WvTsvOzxynP378P0Doemz674icPT675b+uqqcFrfjLCQHec35wv9oDvXqnhHGwNIM3LhxmMRANaG95YXfiF5n4fxcHKnZ8ZmliaKdzY72SOJBG1bbelegNB4n0XHxGyT6nnulIAJ+LxeBHS/Alet9xx/h8fl8X1mFuPLxyV13Bx1l8YwzabmafQmmliZkdmGBtA10A8F1PBqs7YxpeZGY4YnPcWkV2jw6g++vQkV03XpXK1PhXF0p2PhPypKeZGsLI2ecQbPNZPf09K6B4o0nWdZ4gZJ8kZDsKBjmRSRvjJAJB3DRv06lPuOP8NY/H9VJqYsnB+nNyNSy3St5om4znNFkU7mb4fWrBzAzGLx87n5bO+1FZ9N7DSMY1PEMhw5Hw2TIG9TY8LAWPJljfiSdi2yz85yAnzu6vvXzfX5zPm3Pw/Zf4Q6bk4ek7uWfrXMvIdjRt40zJw2pTgPaTZ6dpH3dF3swWV0v5BdIz5c7J1nIgdjYz8d0DY3DvLmm/U0rutgFr0Oiyy+jrb86/inPHP5PK4z9ITmNdVi63Unkvj5CSG+g0fWEyKSXdxnbNT0+PsjE7GjkiEcgMzAeYCVxfv9dqp1rgThziXGfBqWiYOSwiwewa11+PM0A9571eAWUzt0XY4+XPjmsMrD06907yT6biYeXpWKJsDTZIyRE0fGAXWNqk5qFXuKPrXTeu/Bp4g4fzJsvRcLAy8VzjTBktglHfzecCD06V3+hepXuMjQ0uIHXzTX4LGYWFrhR84USHEEj6V6PR/JdV0nL34a/zfbGUl8V524S8js0rG5Ws6TqbMg3GX5LWDHIPUNewi3eG3S133wZwvp3B3C2NpumYoxMeNxIZzOeRe53cSfvW5jYGPAC2OINHXxPrW3zHl5e7wXd+R+Z6v5DL/k5L26niXx/piceM8yIyGwoAWVJ/RRb1Xz1bM7dErKbuiioC7QmBZQRSBJE0mirRqEDZTRVIRKTuiipO6JAWUWEhSIpRJpFCEM3O6kRSzRFBNJPNDZRDieqsQ7tF0hClNE4mkrKdWkRSI2rpB36oQtIA0Ep1y7jZK6ScTSCRcT1SAspM3O6zRMDnGx3KUYzt0QDZW2zEhnPLJkHFaN+cC79G/wDvZZo9N0+N1yas4t/yD3KDQAvqhzBXRWTtP014qPVnB3+Qe5a2ZhwY0YdFnHKcTXIWgUPHZWDTLG201ZabFqn13hDReJpWyanpmNmOBsB7NgfGhta5BhR480pblZBx4+Ww4C7Ph+K234+jwDmOoOkB2oNSyX25OPkz4su7jur/AOODN8mnCrWho4fwKHQGEFZD5POGC0N+QdP5R3fF2+5cyMmij+lP9SxTHTntAxZnSyXuD4f7pZ7Mfw7E6zqJ/wBl/wB1xWHgLhzEcXw6LhROI5SWwgGlhyfJ/oGRucDszd3DNJHfo81w29C5RIwBuw71j5QVezH8NTrep/8Apf8AdcTk8l/C+UwMk0ljqN8wlkDvaDrPrRj+SjhXFlbJFpfK8dCciU/cXLldBvRFlYvFx3zcY7GHynXcc7cObKT/ADSx4I8bHbBFG2OJvRrRSnyhvQJNJtO7W8cccZrGOhycufLl38mVt/8ASq0UE0LTjKqRVrPiSwQyF2RF2zKoNsjfx2Wy/P04DbBPtu96M1oBoJQWgdy3W6jp1/qJ9t3vUZ8nEyGBsOMYXg2XcxO3huVLJfaNRooqRNIeOUWNlAOJ6pJJ4gl87qgtA6JXSTiaVWCrRQSsosqVTO3RNg5jR3ULtMEtOyhpmDADtEZPQCUPBA2xHesoxs6bEeXxPDXEVZaDt9a2Druaesrfs2+5WI1RzE/qrvWUOFjeAx+kkrZOuZo6St+zb7lin1TJy2Bksgc0G6DGjf6gqsYHtAHRQO3RNziR1UbtFF2lVoQpQDbondpIUARfVSjjaXbjuUSaSDy07FBmLA3dsRkPgCUqP9kd6ynj502K8vjeGuIrdoO31hbHy5m/1rfs2+5WM1qmKSTaPFcD171F2PNGLlhMbfE+K3mcRahCeZkzQen6JnuWLM1vN1KIRZEoewHmAEbW7/UPSpSMINlSSqk1agTaA47pIBrokE+UN6BHMWbg0VHmJ70rtUZGyucdyD9ICUwD2gOa0i/AKLTRUjv1RYxxgROtrWg9OgWQvL9jX1ABKgm0C0Kg9jXDcA/SkxrWGw1t+loKyPFBQRA5+3zWewPchryDsGj6GgIAvqmWgdEAXFw3KSEAWUDaA47pvYANgl83oguJ6o1ETt0Qzc7pgX1Ug0DoiUBoJQ9oA2Tb1Q/opURY8xm29fotTOQ89SPZCxoSCfbvHePZCO1c/YkeoKCLpUSfuN1CqTu0KUCVWmhRqIkUkpVaKCJUUJkUkiwiaTZud0VaBt0ViU3AUonbondpO6JVhXaALKSd0opkUop3aSAQhCBO6JKVWigrBECymRSdUk7ooiNWg7dE0ndEVnBsqSi3qpLTNCEIRAgCyhF0gZ26JWUXaEBZT5iEkIGXE9UkIQF0k4mk0qtAgbKm3qo1Sd0gbuiQFlF2i6UolVIJpRspjfqkBzEILieqCKSVWBCEAWUKEIfsNlEGyiJJE0mBZTcBSzViANlMmkVSKtWBWUWUEUok0pSG4mkgbKBv1TqkaCEIViETSBv1Tq0jt0UqgilFO7SVgEIQqAmlGypVaRFIFZRZQhZBZRdoSJpAE0o3aLtMCyg2mgWmRSsW/Er/AEY9o+9SAwT1jHtH3rTCrAsqVBWThgtG0Y9o+9Q7fAh852P2o6UHO96CvIpJWDs/Tq/UT7bvekM/Tif1E+273oNFgs7qRaB3LeGfpw6YJ9t3vU2anpTDcuAS3/O7r60FaGglTZG0ncKzbq+iX/J5+0f71GXVtILR2WAQ6/6xx29aCvfG0DYKPIPBbjtUwCP1I+273qI1PTyf1I+273oNUMBPRD4HPFR7OW0/VMBosYRH/jd71Fmt4cZtuGQenzj70GoMPIJ6n1BP4lP4n1Kwj4gxi7fEPTxKlJxBjNbtiH1lBWPhmgHM5hkB2oKIkeT+qu+9WsOvwyOIZCIjXU7/AIrN8tNHe32Qgpg95P6q771JrnX+qu+9W51wDoW+yFjk1yRzaie0Ov8Acb09SCtc51fqrvvUC2aTaPGcD171Y/LGWf5xv2bfcpR65mwutkrQar9G33IK6KGdjrlxnFtenqpvtosYjh9ZW/NxFqD2gGZpF/1TPcsJ1zNcN5W/Zt9yDSLnnriu+9TggfkPLRAY6F2bWx8tZn9Y37NvuSOsZbhvKPqY33IE7TZWja1B2BNXepO1XKI/Sj2R7lEanknrIPZHuQDNPlJ84SuHhE0ErIzS5nGosXMmd+6WAbeKh8qZTd2zFp8WgBI6rmEfrUo+h5CDM7R86v5MyvUFB2j59badK30ymh9yxfKeYf6XP9o73oGo5R65Mrh4OeSgyfJGoj+gM9sqTNC1Kc8rcRkZG9lxWI6hkj+ef61jkzsh7aMz6vudSDbPDGqj+bj9pDOGNVJ3ij9paAyJj1mk9sqQyJR0mk9so1G8/hjVANoo/aSbw5qLDckUZb/mWkciY9ZpPbKhI58radLIR1/SO96JVmzQMsneGP2ym/QJmi5QyFv7wde/gqcRV0fL9o73p0W/tvP0vJ/iiLN+iADbJb9yh8jf/Ut+5V5JPVzvWUq9LvWUFmzRQTvkt+5N2hiv1hqqxY6F3rKHONfOd60aiyOiAf0hv3Jx6E97qjeyZ37pNbeKqrJ/ad6ykbP7Tx9DiEVdfk9lf1EftlRfw/lAfoI/bKpuU/1kv2jvegsJ6yS/aO96zWatToGWP5mP2yhug5d/oY/bVT2V/ty/aO96Riro+X7R3vViNmq8fWiyO8oQqtB36kqUTzG4lp3qt91FNvVEZXZMldR7IS+MyDvHshQd0UUGYZUhPUeyFGWV0jadRF+AUG9U6tAmgX0HqU2OLDbaB+hRO3RIGygy9u8949kIM7x0I9kKCTuiCfbvdsSD/wCEJGRw8PUFFgspvFBACZ7TsR6gpCZ79iQR9AWJNpooJyee2iNr7tlj7JvgfWp3aEGN0Ta6H1pxtDHWNjSk7ok3qgnznxRznxSQpQy4nqok0gmkhv1UADZTJpB26KN2rFgu0XSEJVF2hCYFlQ0SLpMilEmkNHdoq0gbKaGiO3RKym7oooh2UWUkIQ7KLtJMCyi6ImlGypvFBQQ0LKLtAFlSoIqBNJA2VJ4oKLeqBk0lZTq0iKRBZSu0wLKCKQ0zoUbKYNlWhoukiaSsqJUrtMCyoWU2k2rETO3RIGyldoulViVWiqSsosoUyaSG/VJxNJNJtCMg26IO/VQdM2IW/p0WDJ1CFjAe0EW/UqUrZoIqlW/L2JiEOmnbK13mgdN/qW9FmRZbA6Lp9KhGVImkrKV2i6Mb9Uzt0UbpF2rAwbKZNKN0i7UoLtF0hCJRdoQhFgQkTSVlFSQTXRRsou0ZphxPVOrUbpFlWIZ26JWUXaSlaiQ36oIpK6RdqwJCCaSBsqVTTukiaUbKCZ36pUFGyiygZ26JWUXaRNIGd+qVUlZRZQMmlG7RdoQNvVN3RRukOJpBt9m3wT5GjuVkzWuEnGotTwZnfunOYNvH5yk7V+FK/Palp+K3ueM5hs+G71gVgjaeoUJWNa0ECt1Zv1vg2ItczXNPm385rs2Mbe0utvKN5eOD+GZxBgZGHnTB3nQ4+WJXAUfOoOJrp60WOYk0hhsroV3wq9K+MOZ8TPKB0srJH8K7RY5ohJisY17gy5HOA+4FXa6jvpsT5TTOvVM4eQO8+oLW4J4+4f13BZlMkxeZ7fmtMryPq2XMm5OnSxiRroOU/wD7M3vWbay4qMPIJ6n1BTZgzk7k+pcn7bT/ABa70RQSk/eUnZumwDmc2ajt+rSe9TdRxs4b495Nx0WLIb2cRc3YhX2drGjiNhfHO5vNuBjTeB/dBK6U8sHlswuER2emRSOe54YWSwSsFUTdvYB3Da1qWtQeUHyqY/B2D22Q3twZRG1o2o0Tf3FedeNfhN6nlHssMPZGJA4ARtPcfR6VTcfeVLI4raGT4z42CUSB0IDiTRHQ/SuCP1GC+bscq/8AlN9y5cfMceXty2H4ROs9vF23aOZzDYxt9y9C+TLy94mpwthyojG8Rc3O7azY2+9eSxnRykBmHkzOG/KY2ivTsFZYvEWfBytjwsljW77Mb7las9Peuk8XQ63LyYzx05tvD/ZXKWD/ALO14jMjiegXiXyfeWzN4e1Rolxcp7XRlnLyN8QfD0L0h5GPLc7i5+ZFNgZQfFZDhG0+bYFVXpXBndVyz07KYXE74rvWVMAk/qjvWVfYvEkUkQdHpeXM/vBYBt4rK7iCQjzNAzHHwYGX/wDe9o+/6lj68w8VdRx9mO6c8rYDGRvZtT+TJPAq5k1rMlFM4bz3HrR+Lj/+9Y/lDPfseGc8f5ZcZv8A5p6T7rA+hln5iqGlyE9Ch+kTvFR2HK4ZqU8BLsjQc6FlUHSTYrgT4ebNaxxcSyQzuJ0RzI6oPOfCb9HKLI9afdYtTg5pNY47U/yHm+J9SkzQs0ncn1K9PFD5dmYMcB6802XGB9H0qLuI8lotrNOB/wAec2vuBU+tw5ecstH23Jl5ymlN8gZh8fUj8n8v0+pW/wCUucekelk+jNcfwjd+CR4kz2izHpY+nNePxiH4qfV6f96fT7P6aqRw/lk9/qUhw9lk9/qW/PxfPjMDp36VCwmg4ZoO/h8xYPy47XaPUtLhPXmMpl+qmtB+tPq9P+9iyMI4cyie/wBSl+TmV4H1Jy8byY7Q52t6VRNfoZFi/L+eXaDVtMlf1IZiyPNfQCFxZdVhjdY3cWSMg4bySeh9SZ4byQOh9Sxs43zCfz+sYOKzuf8AJ0ps+G7/APdLNFxdPkuLYeIMXIeBZbHpb7A8fnJOo4svOWWquox/k5leB9SnFw9Mx1yNJbX0LOOIMwfptZbC394aU87+HzljyNclmYGjiEne/wCTuy+9xI+pS9Vhj4xu4lS+QQf2D6yl+TEmV5kJ7Jw3Ljvt9a1H687DHPLrbpWnauwjG/srBPxnHGwFuqZF3/MwMJ+9vRT7uMVYP4Py4BzOl7QdKACh+TOR4H1Kr/Lwxbt1TUAem+LEf/Spw8eSZDi0axnR0Ls4cP8AoT7vEWP5M5HgfUj8mcjwPqWm7jWSAcztazpAdqGHD/oTj44fkO5RrGdHQuziQ/6Fm9ZFjdZwnlTnla/syN7IUvyHzD/SR6gtM8SzZI5W69nWN9sSH/QgaxkE/wAvZ/8A/Ei/0KfeRW5+Q+X/AGkeoI/IfL/tI9QWhNrOSxoI17PBv+yQ/wChas/F0mmsEs+t6hKwnlA+KxDf6mehPvI1IuDwPmD+kj1BY5OD8vHbzGXtAdqAConeUWOUER6pqAI3P/Zo+nsrTb5XMaCfs3apn83TfGi/0p95GpI5MOGsknofUh3DORXQ+pVkXlJaWCU6pn8h2H/ZIv8ASsjPKQyY8rNVymnrcuNGB/5U+7i6jTZxlrD3tByWVe9QRj8Grrfyw+XnO4JxWuOU3lMoYGmGM78rje7fQsvG3HuHwi3tXuEbBsb+gnv+heLfLv5WH8baj2eLlc2MyUP5Q1vUAjrXpXh8P1+XPffdf5dHG3Tm3Evwy+Ku1kZFqgZDfmhuJB1+nktdK8ReWjiDinVZMiXNc6UgkvdDHVfRy0uHZsrpmDnN7+C1HyuY3zSB9QX0WEywmsq1uuQzcZ6w084yxzHa+yZ/pTxvKDreJKJG6i+Jw6OjY1p9YC4tLkyFo87v8AteWR0jacbFrklqW13fwj8J3jTRMtjH8RZMmKBQiLWEA2N/m/SvUvk4+E/qPEUDMWXUpu0DOcnYd4Hh6V868dxjk5mmjX0rmHB3lAzOGNQM75iYzGWABrdjYPh6F1+fj5Mse7GuXDzH1D03jrVNQhY9mozi+9r6/BciizdQ1KKNr9TyWUeYkzu326dV4K4R+Elq5ysPGjzuyjc8NNwxmx4btXrTSuNGP0CLOy5eeNrA+/m716PrXzuXJzcd7blf9uzhJp1X5efLhxBwRxBJgxallNxAPNBdzDm+k33WvJHGnlY1vjLVH/Gs+eUNPOC4ivD+K558JLyjDi/WXjFma6OGXncA1vQAjrXpXTEWBk5mL8eYfzBPJs0dev8ABe10meWXFu10ee2Z6jadr+oNbtlPH0UsMvEOpBv65L18VV5GXTuzBp43K15J3kfO+5ejjlde3Tyyy37WzuItTI/XZh9DqSHEeqNus/I32/SFU3bPPf8AcjtXeKvdXJjlde1tjaznx50Ujc3IDy6ie1d4fSvS3wNeJdUHE2oj49MQ6JwIc69udnivK+PI4ygk7t3H0rs/yG+UeXyfcUyZBkrHliLS3lB84uab3HoK6fUZWY7ldrgtueq+oT9Ty2QxhuTI0ctmnEKl1Hi2SmxfGHvcHWQ93MPUV511D4WcBbDBFkCGQgWSxpseG4V3wr5QY+L8u45eeXk5yRXSwP4r4/n5uTv/ALq+m4+PC4+Y7rz8p2q6e1jXeeHB1t2PQ+H0rg+uxT8oZM9z4w7ZrietFcmiyjp+juyGMLpKrx/30XFotWfrccjciM208wJFfh9K631uT91dzDDGT04ZxjwLg8b6fj4eXAyVkE7clrX3XMGub/6irXhnTmcLQiCLBDYg3lBANLeY0Oyy0/NaLAvvVnNrE0WM2OR7TEDsORvX6atWc3J+6u1hNTwxfG3akRE3HDKPNbmg/j9K5Pw9hu02Xt42iF7m8hcwcpIsGtvoXF4tWdJIBG4B3oaFyvTMuWaMB77AF9AuPLkzt3a6/JJcnLXPc/Fa5z3uNjq4la8mT8WbzF7m2asOIWpiZcspMbn2wCwKCeewSQgO3HNf4reOV17eRz4zv9HPnDKYGc73UbouJWhnNuEbuHndziEuQQ+czY9OtqE0jntAcbFrklroZybV+TisnYGvLyAb/SOH8VHFjh0yQysidISOWnOLvT0J9C3C0HqEMPZG20D03FrUzynqsIHLjzx2bsVjQPOssH++9bOm4kPbuqNrDy9WDlPUeCh2rpNnVXXYALLiuMchLTRpS2325cZNLOLGja4midu9xKyOkjxBz0Be261oJnuebPd4J5YE0Ya/cXfgrM8p6pZE5c9szQ1gbd380LA6RzxRof5QB+CwCJsW7BR6dbUZJHNbsVyTPLXt1eTxkeU9zIwQ5wN+K1TI9+xe76iQsj3mQU42FieOUWNkueX5cNrJC5zHEh7rrvcStiNzpjyvc4jrs4haTHm+qzwPIed+5Tvy/LU9LDEjEchLXPBr98+9bE2T8XaHOe6ia+cVpwSODzv3LK+NuUwtlHM0bgXW/wBSxc8t+3b45Lj5Y59Q7VgDJHXd/OKr9Re6aBrXvc4c11zHwKxuHY5DgzYV9K09Wz34mM1/KZLeBQ+grivJnv27mGOOvTXzJX4UPPC9zHOPKTd7fX9CpexgOQZponzO9D3D69is2Xqr8uMM7Mx0bsrFh5MkcpLXC6rcArU5M9e3NMMdelrBqbsiMY4Y+ONvnCyfo/it/Tnls7t7839rfvHiqqLLlldTnAir2aAt3BkcJTv+yr35flm4Y79PMXwleP8AD1bR436flBzXZLWPDSDtyP8A/ZeTMjMbDK8Y5LSTZs834p5nEWTm4/Ymdz28/OQd96PvVRKSw842cdrX23S8U48NWeXyu6sH6nI0XK+2/QOqgdQE3msO/VU+ZK98QBPesOLK6OQlpo0u979ndfyu5JnkdfuWF8zwOv3LTOTIervuCO2e7qfuTUWWtoZEjTs77lkjnfI6nG636LSY8k7lSdK6MW00Vf007GFunKuE3zZvEukY5m5IzktLtgLG+y9w+UDV4eG+AoYMfIAa+MAtBv8AZPivAGh6n8T1XHnldvG4OYelO7j+K7B4i8q2u8SZeLpg1HtDJUccbo2AE1sL5V5fP0v1M+6R2Meecc1XGdU1Rx1XMe55MUltIPfv/wCyuOEtfjEE2mykOwQwytiro+wAb69Cdr71TcT8D8RaNPIzUcMY7XR9q2SM8zSfp+srjOlTzQRvcXntr5Sa7lz8PH9LDtefz8nfnuLbVeRuqSSQjlaQR1vvWs6Z5HX7ljMr5DbjZUmDmNHddmOpbdsmO4veQ42KWSbzGgjY2oxgMNjYqOQ88g371U7r+UoHvLnEHoLO3cr7E0XMj01+ruJ+KfMZt0f1B9QKqNAmw26tBHqEhZjSuEbgP2r7vR0XZvlV1nC0rgvB0bRMZmJh/GWSucHl5d5jx+0Se9cOcluq5sMspNyusItTlypGy5UheQ+gR5vcfBeqPgo5uPmYuXkTyVM0GJsjj0bYNV07gvIHM6gL80O5vrXZHkn8qsHBORNBM+8R0ZcIh/WWKN9el7dN153U9PhyYduOPl7PSdXcb25V9J/jUmHpLJPjLZIXnk5eUd4J8PQqiXOgihcGANBN7LyVkfC2c3CZjw5BbG1wIbyNPcfEKuyfhWZUsfKzJ3vf82z3L53+Vcv5fSTqsdPTeoa/HgzGQGr82/D/AHS4hx15TsbhvSY8t+a2fnmEfYgC221xv7vvXQM/whcjV2PiORyuq7MbPd6V1dxRxbNqE7pJMhz2l3Q9PUvR4PjrjhrKbrN6ySvROL8JrGxc11nzeU1sPEehW8fwum40b+zmDabt5jT/AAXjbJy2TbsPn3ufQsLZHOsEmiN13cfj8bP7XT5Otnc+g3kv+EqOMcxsD8sRvrmc8sYLFgV09K72dxZgThjWTtlPLzEA/evlDwjxRNwtmGaJ7gwNoAdxsH+C7T0T4TGZg5ALclwlDOUksafNseI+hefz/GZ3PeHiOply/UvdH0J+V4cvzITThufoSfldmLkNjovGmH8Lxul47ZeYvnd5pPI3p16V6Fkf8MuTUh2TXmMjzr7Nnu9K6/2OeHiuN6+ydQBa0RGnc2/fstxpLsdrj84nqvIGj/CxYMpxypeePkNDkaN7HgPpV6/4XuO6LkjlArf5rfcsXg5cbrHHccWXt6iZLHGbleI2+J8U3Z2PELZMHnpQXiviv4XWTl47YocoipA7aNngfR6VQ4HwrNTiyLZmOG1G4mHb2VvHpc8pvKareN8PecWrta7Zw6LI7WGuFFwK8bRfC2DMRpfNct7nkb7kv/zdD+u/+xvuWcuDlxuscdxba9ju1ASimHfqoOy+QXIbavHZ+GN8RHaCTnJ82gxvuWKb4a3atAeCRd/o2j+Ck4uf9jjs3XsZ+oQgbUsbs1sw5WHfqvIWmfDExsudzJgWtDbBLQN7HoVoPhbYbTcL+V/eaB29SXi5/wBjFkeq4XkuNnuWxHKyJ1ySCNvSyvJjvhedmLbMAf8AI33Kv1f4Wpz8Ts3T3TuYUxo3o+A9K3j02eU3lNU09iv1DHjFtymg9O5Yn622MWzJDydiAAvA+R8KbUYMpznTvkgqgzkbsfG6+lb2ifCzljy3mRzmN5DuWt62PQs5fHcmd3K7XHzY4Y6se336nG53MT5x71rZuqRiIdPnd4XkGX4X7IG8znGQE1QY33LVyvhgNzIwyImJwN2WN6fWFxX4vl/NdrHqcNenq7V9REuM0RkA84OwHgVoYWRI6UguvzfALyzD8K65B203M3w5G+5cgxfhR4TYg8Ecx2ugt49DnhNVv7rD8PTmA8vmIJscqs8cAPP5wRbdSvKU3wsYcVofFIGuJq+Vp29S0s74W7sqIME/R17MaP4JfjuTPzKs6nD8PKui47suTJA3LIC8ese9VZ1J72OYX/nGu8B0V9FFNo7ZZIT2ZkYY3GgbBo1v9C4lkNEWU9zdnOu195qPluTxk2ZcqVzQC69/ALG3IkabDq+oLWfK6uqUT3OcQTey1HDW6zLlJ3d9wWaCd7nkF17eC0ga6Le0p0Znf2w5mhhret7ClWJyTvY22uo34LGcqVw3d9wRJmY5yCwjze4Wt1unc0Yc2EyGTzGAE7Hx+5Zrs4eleZHSFvMb5TY+lZWzOMpmJd2ob5rwaLd+q5H+R2Rh6QyXKw5e1e8DnaD0o9y0m8OMDw/tXyOG4ic2uX0rDsY442bsdy8JeUzQNR8mcuh6trDNW1Bh7VmM/GkjkjIBHN2p6gc1cvpvuXUE8UUbZSxtOMmxv9ndWWm6azMzIMfPyJWxOdyxtDzXP3bfRaz8b8H6pok8TWQdnAad2vUkV0orjy9vJ6r+nk1HHuYhZsU80hB32VjqHCGVicNwawzKD45JxAYwBsS1xv8A+1V+NJGPNA/Ogbn0Lkx9Onus8vmNsbG1rTPJaLPerjQ9Hfr2oNxmv5QAXu9IG38VW5eA/DycuOSYS9nLyNaANhulN1rwNldMx0UfaPjPOBV16VbT5jNSkDs+J7pQ2gS9wHqBpZuEIJ5dTlbjEB3YPLraDtt4+mlUSZ2TmYmOcp4fKXPLiGhvQ0OgHisVuZVdcLcPRajxDjNmgbNgB3NNE55bzM8LBB6kdCuWanwDwPwzg6lrme0ZIlk+L42mdvI3srBdz2HWa5a3J+cuBYU8uRI1jpXNbH57Q08u427uvXotjiGYas2N2oY0gohjZiSAfRQIH1+hcd8V2ODiz5M+6VwvIliyMmWXFxzBi81Nsk/eVLHcQ80e5csZw58ZwGwQuIgDg8NDB1o9/NfesX5FyM3DnA/5f+pc2PmPoZjcJquPPmewW11FY5MqWVoa55IBtcmHBmVICI4ZckgWWxs3A8dif9lV03DUrJCwdo2QdY3tqgtaVTdq+PdrqPRZIMqVzzbu7wCsxw7Kw3I0lvqU26HyGwwg/Stxx2S3zGj8albdO67dAtcANkMg2eRRKt3aQ8DaIyHwBKidNLK7TFkaCaBbZ3VWePSr5y02DupxTP5jv3eCvo+F3PYJHRysjOwL2bX6wssPC7HONBztu5jj+F/guHLGW+Y19HPPzKoDK49XFI5EkItjyCdvFcldwkXimB7T4mN//qAH3qDuDJnCgXu9AjJ/Dm/BSST0zemz/Likj3F3NfnHvTgne1xp3d4Lks3BM4hkIbLYbY/NSf6FHQeANW1WJwxNPy9TyBuY4In8wb47tAq6H1rNxlrePTZ69qHndIfOJKjIOVu1+tc2Hku4mxrfLwxmxMrd2U17W/Vyi7/91V5PDoY8xSRugnG5ZyvofW4D8Uk16L02f5cba9zTYPrU2yucdyPUFdjhxpPzj7P/AFLLDw0wuNk9P3f+pajP22f5UQPPsfu2TBMW7CQenW1yRnDEd9T7P/UnJwp2jajJBu/m/wDUqn22f5caORI4buKg+eRosOXJBwZM40C930Rk/hzfgoZHBk7WAntG79TG4fiG/ipcZfcZvTZ/lx+POmuucfW0e5Kad+Q0NeQQDewA/BXP5H5h/QMM7+9vIenj5tn7ls4Hk/17UJjHj6Nk5jw3mMeMx5cBtvu0bb/ekknpPtcq4vyiPdvX07pcxfsfwXL8/wAnWt6XC2XUtDz9OgLuVss8TuUu3PLsDvQJ+pVzuGnNGzZfspP9Cum50uaibE15pwut+q2HSvjjAa4gWraPh1zXb87fpjcPxA/FZWcOh5pziR/l/wCpZuON9xPtc3HpZnyNpziRawukdGLaaK5T+TEZ7z7P/UoycJNlFMJvr83/AKluYyTwfbZ/lh1LiWDU8fsoIuyeDzE9dun8Vw7Jnech1u+5X+M/FjyJ4nsBc0EDcjvVXiYIyNehbK3mx3u5S26+9OO7x8vJzzmd3Gi17nGibWbHFvP0J6lEzG1HKijHKxj6aLugoYjrkcD+7suaONnlPK0EbbqDZnsunVeyxTw5cR7SR1wnYCh1UY3FztypVbOFFA/Ic+dvNTbHnEb2F3XwPp2mZWhx5L4qlhdzhwlDen+bZdL4MByJJGtiMxDCaF7bjddpcF6djSaHy6lI1+MHX2LtqPjfXxXS5crMvFalrsXhTyq4mo8QT6NPJhYkhxy2GbUXRmNz+ZoDRygedV/UCu4Y/Idw7xVp8eS2HHlz+T867ElcYifGw7r6F4z4q4egwM45ulNx44Zz8XaXQdryOO9jqQfNO67a4c8r2v8AkW4c0/h3RIjlyZL25WQ/snOsUQd5LoecNhS6nJlluayZ5c8scPFXnH/ka1Dg7stSwCGMgnB3aH0Kd+9fguEcTcexajhHJzT8ayf0Dj80ctX0FAdBvS9C4XlWg8oHC3ydm6bE3PyRyl7pCC3Y70DS8yce+T/I4O16fD5JMiKS5Lo8o+v61xcWeVz1a8aZ5ZecrtZac/T9a4Ndh4eK6KYyCRhMjnb0R0J9K4JnYPxPUQ6Mcoawsk77fY9xV9wVrc2PxBgYXJ2OOJeaRpaNxVVfXvVrruiY+ucU6jj6bWPjsBnc2y63AgdTf7y9XLxfDctUPDGqDTM+WZzqPZFrT6bCptUc05s+RHYMhtxu7KyZfJFnPwzCQ9g5u0s7938VCSMO5GkebzCx6FJTbsjgPDxMHQMzUuyrMMDmCTmPfXddd3gqbyd8ATcf5OfjxOaJoIZJYQ40HHnaOX67+5ch4ddhT8PZGGxwh5Yi82479BX3qo8mut5Gk8RywQse2EtIDm+PM3vXW5MrMvabqlw+DdXx+LRokuDI7WIiZfijQeSSMGj53XqQu6PIp5UhwnxPJjt0rKz5YHdnlxCEN7Fli2g1ZFgb9V6E8mfDUOqMiz5cXHhyDHTsrIHnFtjzebr4epa3FnAOoy8WRPhyMGLQQ7nniw4mNfJ/mkA5q+vwXQ5ep+nl213ul6n6eXbXYMfwp+BeDdJfkcRwajpUcg/MkYrpBdXVNa49x3PgqjF/+IV5DmY5OTqmoOeHVfydOPwiXS/wlGZ7uC5GNw8c4eM4PhlMluawNcPHfqOtryDo3k71fiLgx+vYbI9RhOWITHYa9nmuN0K282vrXd6fl+ph3Pfy6vG3y+hHH3w8fItxFw5Ni6XqGQ7KB5wMnBeG1RH85GBdken714m4n8q+m8UatPlQsjOMXktlEbWX6NgF1HlaVkYWVJBKC2SiHRPjBAH0kLEzDfFF2bxUV2Gjbf6vrXo4eY471WLsiXijT8lvKACQb6rXl1zCa0EADfxXCdMw4TkOtp+b+8fELeytOY+MCNpDr8Sq471eO3LtN4lxoZ3OZyg8tb0e8K2g8oMWkPOQGxyUKp0bXfiPQuuMPTjFKS8GqrqtmXHj7Mjl2dsdz0WbWL1eL2N5BPhceT7gl/x3imM40UkRxxLi4/M4vJBAIb3eaTfoC7s4e+GN5O+JNcxtG06bLzMwtc/IdNgPa2KOxUn1WB/4l8yNNxBg5uKcYGNnatMosm2jfv8ASAu4+JfKNi6fh5WbgOfFmZeOMbIkheWuczY1sdt2jpS6/JdVzYfIcmE1hjuPoBwj8Kjya61qmfp2HkSTZ+G/ke44zo2ube5B6da2XY3/AOJvBsuJFO7MdIHOA7JkYceh8Qvkn5CvKBPpnE8kZke3EmY5pEx7SyXNPV1nuK9a8DZcWv8AxiSQl5jdbOVxbXqpeR1nJnhvVr6L4/kvU4zLOPTeZ5b+DflOfCixZAI4TI580Qa0gECr8d1m4V8oOh8QTSDAhhGM1pdyhoO9jvP0roHWtGh1KAMewu5jyu89wJHhsVd8B6HFws+KPBY6CKU8rgXufd7/ALRPgvA+/wCTDxcq+ivFhj4kehnazgUQI2MvY8nmk+pV0+doGI7t5mNgLvN7Qbk99fcqufBhZHGQwgkWfOK0cvSRmxiONluB5t91xZfK8+N1j5jq54Y79L9nEfDJP6yfZRLxhwtgNEj5TICeWgP9+C4lPoJwozJLG3lOw271xnVZSxkoAb5osWwH+C5MPk+XKbytlcFxm/TtTE8ofCEshD3Fgq7NrcHHvCIP5rI5Xd+17LojDyG5OC5+S1j6dsQ0N/BauJlxvzXsjDRTSeg8QuWfKc2PjHy47Jt6Ak8oPCsbbkyQ4X3sCyYPHPCeoTGOOdoIbzbMA/31XRTsb47FI3lBLW842HX/AGVucH4bsd753NbzEFl8o6WD/BanyfJl5yunFZNu69U1rRMjHa3ClEkocCQR3Uf/AGWpp2oYbJ3GWNjm8vQgdbC4/i40Tog4sAd4jZZXYYkFRgh30q/zHL91cGXiuT5WoaVNGGvx4iLvoAtGbJ0JrQZY44W384NvfwXH8nDfDGHPurpV+W4xRgtq7rcX+KfzHL91dLkyymXiuWxanwzA7mdMACK2YAszdf4cv8y8TO72nbbxXXs0zpGgODSL/cHuWrOfMGwG/cKWp8hl+5mZZfl2VNxNw/jtDp6hYTQcCTv4IxuNeFGybZFEiui6oyoHZEYaNyDe+6hhacGzgysBb3bd6v8AMcv3OWW6f//Z;" vertex="1" parent="1">
          <mxGeometry x="1410" y="20" width="400" height="400" as="geometry" />
        </mxCell>
      </root>
    </mxGraphModel>
  </diagram>
</mxfile>
